%TF.GenerationSoftware,KiCad,Pcbnew,(5.1.6)-1*%
%TF.CreationDate,2020-06-24T18:06:57-05:00*%
%TF.ProjectId,Dual Passive VLPG,4475616c-2050-4617-9373-69766520564c,rev?*%
%TF.SameCoordinates,Original*%
%TF.FileFunction,Soldermask,Top*%
%TF.FilePolarity,Negative*%
%FSLAX46Y46*%
G04 Gerber Fmt 4.6, Leading zero omitted, Abs format (unit mm)*
G04 Created by KiCad (PCBNEW (5.1.6)-1) date 2020-06-24 18:06:57*
%MOMM*%
%LPD*%
G01*
G04 APERTURE LIST*
%ADD10C,0.300000*%
%ADD11C,1.900000*%
%ADD12R,1.900000X1.900000*%
%ADD13C,4.600000*%
%ADD14R,4.600001X4.600001*%
%ADD15C,4.600001*%
%ADD16C,1.700000*%
%ADD17O,1.700000X1.700000*%
%ADD18R,1.700000X1.700000*%
%ADD19C,1.250000*%
G04 APERTURE END LIST*
D10*
X144421428Y-150492857D02*
X144350000Y-150421428D01*
X144278571Y-150278571D01*
X144278571Y-149921428D01*
X144350000Y-149778571D01*
X144421428Y-149707142D01*
X144564285Y-149635714D01*
X144707142Y-149635714D01*
X144921428Y-149707142D01*
X145778571Y-150564285D01*
X145778571Y-149635714D01*
X145778571Y-149135714D02*
X144778571Y-148350000D01*
X144778571Y-149135714D02*
X145778571Y-148350000D01*
X145778571Y-147064285D02*
X145778571Y-147778571D01*
X144278571Y-147778571D01*
X145778571Y-146564285D02*
X144278571Y-146564285D01*
X144278571Y-145992857D01*
X144350000Y-145850000D01*
X144421428Y-145778571D01*
X144564285Y-145707142D01*
X144778571Y-145707142D01*
X144921428Y-145778571D01*
X144992857Y-145850000D01*
X145064285Y-145992857D01*
X145064285Y-146564285D01*
X144350000Y-144278571D02*
X144278571Y-144421428D01*
X144278571Y-144635714D01*
X144350000Y-144850000D01*
X144492857Y-144992857D01*
X144635714Y-145064285D01*
X144921428Y-145135714D01*
X145135714Y-145135714D01*
X145421428Y-145064285D01*
X145564285Y-144992857D01*
X145707142Y-144850000D01*
X145778571Y-144635714D01*
X145778571Y-144492857D01*
X145707142Y-144278571D01*
X145635714Y-144207142D01*
X145135714Y-144207142D01*
X145135714Y-144492857D01*
D11*
%TO.C,D1*%
X141330000Y-93350000D03*
D12*
X143870000Y-93350000D03*
%TD*%
D13*
%TO.C,J6*%
X136000001Y-194200000D03*
D14*
X147140001Y-198440000D03*
D15*
X142900001Y-187300000D03*
D13*
X139900001Y-200100000D03*
D15*
X148800001Y-191200000D03*
%TD*%
D16*
%TO.C,R1*%
X134600000Y-55100000D03*
D17*
X134600000Y-65260000D03*
%TD*%
D12*
%TO.C,D3*%
X143870000Y-179700000D03*
D11*
X141330000Y-179700000D03*
%TD*%
D15*
%TO.C,J2*%
X148800001Y-76600000D03*
D13*
X139900001Y-85500000D03*
D15*
X142900001Y-72700000D03*
D14*
X147140001Y-83840000D03*
D13*
X136000001Y-79600000D03*
%TD*%
D18*
%TO.C,D4*%
X148610000Y-175700000D03*
D17*
X148610000Y-183320000D03*
%TD*%
D15*
%TO.C,J3*%
X148800001Y-104850000D03*
D13*
X139900001Y-113750000D03*
D15*
X142900001Y-100950000D03*
D14*
X147140001Y-112090000D03*
D13*
X136000001Y-107850000D03*
%TD*%
D15*
%TO.C,J5*%
X148800001Y-162950000D03*
D13*
X139900001Y-171850000D03*
D15*
X142900001Y-159050000D03*
D14*
X147140001Y-170190000D03*
D13*
X136000001Y-165950000D03*
%TD*%
D17*
%TO.C,R2*%
X150350000Y-54940000D03*
D16*
X150350000Y-65100000D03*
%TD*%
D17*
%TO.C,D2*%
X148600000Y-96970000D03*
D18*
X148600000Y-89350000D03*
%TD*%
D13*
%TO.C,J4*%
X136000001Y-127200000D03*
D14*
X147140001Y-131440000D03*
D15*
X142900001Y-120300000D03*
D13*
X139900001Y-133100000D03*
D15*
X148800001Y-124200000D03*
%TD*%
D17*
%TO.C,R3*%
X134610000Y-151610000D03*
D16*
X134610000Y-141450000D03*
%TD*%
%TO.C,U1*%
G36*
G01*
X144662500Y-68725000D02*
X144037500Y-68725000D01*
G75*
G02*
X143725000Y-68412500I0J312500D01*
G01*
X143725000Y-67787500D01*
G75*
G02*
X144037500Y-67475000I312500J0D01*
G01*
X144662500Y-67475000D01*
G75*
G02*
X144975000Y-67787500I0J-312500D01*
G01*
X144975000Y-68412500D01*
G75*
G02*
X144662500Y-68725000I-312500J0D01*
G01*
G37*
D19*
X144990000Y-53100000D03*
X139910000Y-53100000D03*
X140550000Y-68100000D03*
%TD*%
D16*
%TO.C,R4*%
X150360000Y-151450000D03*
D17*
X150360000Y-141290000D03*
%TD*%
D13*
%TO.C,J1*%
X136000001Y-40850000D03*
D14*
X147140001Y-45090000D03*
D15*
X142900001Y-33950000D03*
D13*
X139900001Y-46750000D03*
D15*
X148800001Y-37850000D03*
%TD*%
D19*
%TO.C,U2*%
X140560000Y-154450000D03*
X139920000Y-139450000D03*
X145000000Y-139450000D03*
G36*
G01*
X144672500Y-155075000D02*
X144047500Y-155075000D01*
G75*
G02*
X143735000Y-154762500I0J312500D01*
G01*
X143735000Y-154137500D01*
G75*
G02*
X144047500Y-153825000I312500J0D01*
G01*
X144672500Y-153825000D01*
G75*
G02*
X144985000Y-154137500I0J-312500D01*
G01*
X144985000Y-154762500D01*
G75*
G02*
X144672500Y-155075000I-312500J0D01*
G01*
G37*
%TD*%
D16*
%TO.C,C1*%
X136100000Y-95850000D03*
X136100000Y-90850000D03*
%TD*%
%TO.C,C2*%
X136110000Y-177200000D03*
X136110000Y-182200000D03*
%TD*%
M02*
