M48
; DRILL file {KiCad (5.1.6)-1} date 06/24/20 18:07:00
; FORMAT={-:-/ absolute / inch / decimal}
; #@! TF.CreationDate,2020-06-24T18:07:00-05:00
; #@! TF.GenerationSoftware,Kicad,Pcbnew,(5.1.6)-1
; #@! TF.FileFunction,Plated,1,2,PTH
FMAT,2
INCH
T1C0.0217
T2C0.0315
T3C0.0354
T4C0.1063
%
G90
G05
T1
X5.5087Y-5.4902
X5.5339Y-6.0807
X5.6835Y-6.0807
X5.7087Y-5.4902
X5.5083Y-2.0906
X5.5335Y-2.6811
X5.6831Y-2.6811
X5.7083Y-2.0906
T2
X5.2996Y-5.5689
X5.2996Y-5.9689
X5.8504Y-3.5177
X5.8504Y-3.8177
X5.2992Y-2.1693
X5.2992Y-2.5693
X5.3587Y-6.9764
X5.3587Y-7.1732
X5.9193Y-2.163
X5.9193Y-2.563
X5.3583Y-3.5768
X5.3583Y-3.7736
X5.9197Y-5.5626
X5.9197Y-5.9626
X5.8508Y-6.9173
X5.8508Y-7.2173
T3
X5.5642Y-3.6752
X5.6642Y-3.6752
X5.5642Y-7.0748
X5.6642Y-7.0748
T4
X5.3543Y-7.6457
X5.5079Y-7.878
X5.626Y-7.374
X5.7929Y-7.8126
X5.8583Y-7.5276
X5.3543Y-1.6083
X5.5079Y-1.8406
X5.626Y-1.3366
X5.7929Y-1.7752
X5.8583Y-1.4902
X5.3543Y-6.5335
X5.5079Y-6.7657
X5.626Y-6.2618
X5.7929Y-6.7004
X5.8583Y-6.4154
X5.3543Y-4.2461
X5.5079Y-4.4783
X5.626Y-3.9744
X5.7929Y-4.413
X5.8583Y-4.128
X5.3543Y-3.1339
X5.5079Y-3.3661
X5.626Y-2.8622
X5.7929Y-3.3008
X5.8583Y-3.0157
X5.3543Y-5.0079
X5.5079Y-5.2402
X5.626Y-4.7362
X5.7929Y-5.1748
X5.8583Y-4.8898
T0
M30
