%TF.GenerationSoftware,KiCad,Pcbnew,(5.1.6)-1*%
%TF.CreationDate,2020-06-24T18:06:57-05:00*%
%TF.ProjectId,Dual Passive VLPG,4475616c-2050-4617-9373-69766520564c,rev?*%
%TF.SameCoordinates,Original*%
%TF.FileFunction,Legend,Top*%
%TF.FilePolarity,Positive*%
%FSLAX46Y46*%
G04 Gerber Fmt 4.6, Leading zero omitted, Abs format (unit mm)*
G04 Created by KiCad (PCBNEW (5.1.6)-1) date 2020-06-24 18:06:57*
%MOMM*%
%LPD*%
G01*
G04 APERTURE LIST*
%ADD10C,0.120000*%
%ADD11C,0.150000*%
G04 APERTURE END LIST*
D10*
%TO.C,D1*%
X145160000Y-94895000D02*
X145160000Y-91805000D01*
X145100000Y-93350000D02*
G75*
G03*
X145100000Y-93350000I-2500000J0D01*
G01*
X139610000Y-93350462D02*
G75*
G02*
X145160000Y-91805170I2990000J462D01*
G01*
X139610000Y-93349538D02*
G75*
G03*
X145160000Y-94894830I2990000J-462D01*
G01*
%TO.C,J6*%
X150250001Y-199550000D02*
X147750001Y-201550000D01*
X134500001Y-201550000D02*
X134500001Y-185800000D01*
X134500001Y-185800000D02*
X150250001Y-185800000D01*
X150250001Y-199500000D02*
X150250001Y-199550000D01*
X150250001Y-185800000D02*
X150250001Y-199500000D01*
X147750001Y-201550000D02*
X134500001Y-201550000D01*
%TO.C,R1*%
X135970000Y-56910000D02*
X133230000Y-56910000D01*
X133230000Y-56910000D02*
X133230000Y-63450000D01*
X133230000Y-63450000D02*
X135970000Y-63450000D01*
X135970000Y-63450000D02*
X135970000Y-56910000D01*
X134600000Y-56140000D02*
X134600000Y-56910000D01*
X134600000Y-64220000D02*
X134600000Y-63450000D01*
%TO.C,D3*%
X145100000Y-179700000D02*
G75*
G03*
X145100000Y-179700000I-2500000J0D01*
G01*
X145160000Y-181245000D02*
X145160000Y-178155000D01*
X139610000Y-179699538D02*
G75*
G03*
X145160000Y-181244830I2990000J-462D01*
G01*
X139610000Y-179700462D02*
G75*
G02*
X145160000Y-178155170I2990000J462D01*
G01*
%TO.C,J2*%
X147750001Y-86950000D02*
X134500001Y-86950000D01*
X150250001Y-71200000D02*
X150250001Y-84900000D01*
X150250001Y-84900000D02*
X150250001Y-84950000D01*
X134500001Y-71200000D02*
X150250001Y-71200000D01*
X134500001Y-86950000D02*
X134500001Y-71200000D01*
X150250001Y-84950000D02*
X147750001Y-86950000D01*
%TO.C,D4*%
X149730000Y-177390000D02*
X147490000Y-177390000D01*
X147490000Y-177390000D02*
X147490000Y-181630000D01*
X147490000Y-181630000D02*
X149730000Y-181630000D01*
X149730000Y-181630000D02*
X149730000Y-177390000D01*
X148610000Y-176740000D02*
X148610000Y-177390000D01*
X148610000Y-182280000D02*
X148610000Y-181630000D01*
X149730000Y-178110000D02*
X147490000Y-178110000D01*
X149730000Y-178230000D02*
X147490000Y-178230000D01*
X149730000Y-177990000D02*
X147490000Y-177990000D01*
%TO.C,J3*%
X147750001Y-115200000D02*
X134500001Y-115200000D01*
X150250001Y-99450000D02*
X150250001Y-113150000D01*
X150250001Y-113150000D02*
X150250001Y-113200000D01*
X134500001Y-99450000D02*
X150250001Y-99450000D01*
X134500001Y-115200000D02*
X134500001Y-99450000D01*
X150250001Y-113200000D02*
X147750001Y-115200000D01*
%TO.C,J5*%
X147750001Y-173300000D02*
X134500001Y-173300000D01*
X150250001Y-157550000D02*
X150250001Y-171250000D01*
X150250001Y-171250000D02*
X150250001Y-171300000D01*
X134500001Y-157550000D02*
X150250001Y-157550000D01*
X134500001Y-173300000D02*
X134500001Y-157550000D01*
X150250001Y-171300000D02*
X147750001Y-173300000D01*
%TO.C,R2*%
X150350000Y-55980000D02*
X150350000Y-56750000D01*
X150350000Y-64060000D02*
X150350000Y-63290000D01*
X148980000Y-56750000D02*
X148980000Y-63290000D01*
X151720000Y-56750000D02*
X148980000Y-56750000D01*
X151720000Y-63290000D02*
X151720000Y-56750000D01*
X148980000Y-63290000D02*
X151720000Y-63290000D01*
%TO.C,D2*%
X149720000Y-91640000D02*
X147480000Y-91640000D01*
X149720000Y-91880000D02*
X147480000Y-91880000D01*
X149720000Y-91760000D02*
X147480000Y-91760000D01*
X148600000Y-95930000D02*
X148600000Y-95280000D01*
X148600000Y-90390000D02*
X148600000Y-91040000D01*
X149720000Y-95280000D02*
X149720000Y-91040000D01*
X147480000Y-95280000D02*
X149720000Y-95280000D01*
X147480000Y-91040000D02*
X147480000Y-95280000D01*
X149720000Y-91040000D02*
X147480000Y-91040000D01*
%TO.C,J4*%
X150250001Y-132550000D02*
X147750001Y-134550000D01*
X134500001Y-134550000D02*
X134500001Y-118800000D01*
X134500001Y-118800000D02*
X150250001Y-118800000D01*
X150250001Y-132500000D02*
X150250001Y-132550000D01*
X150250001Y-118800000D02*
X150250001Y-132500000D01*
X147750001Y-134550000D02*
X134500001Y-134550000D01*
%TO.C,R3*%
X134610000Y-150570000D02*
X134610000Y-149800000D01*
X134610000Y-142490000D02*
X134610000Y-143260000D01*
X135980000Y-149800000D02*
X135980000Y-143260000D01*
X133240000Y-149800000D02*
X135980000Y-149800000D01*
X133240000Y-143260000D02*
X133240000Y-149800000D01*
X135980000Y-143260000D02*
X133240000Y-143260000D01*
%TO.C,R4*%
X148990000Y-149640000D02*
X151730000Y-149640000D01*
X151730000Y-149640000D02*
X151730000Y-143100000D01*
X151730000Y-143100000D02*
X148990000Y-143100000D01*
X148990000Y-143100000D02*
X148990000Y-149640000D01*
X150360000Y-150410000D02*
X150360000Y-149640000D01*
X150360000Y-142330000D02*
X150360000Y-143100000D01*
%TO.C,J1*%
X150250001Y-46200000D02*
X147750001Y-48200000D01*
X134500001Y-48200000D02*
X134500001Y-32450000D01*
X134500001Y-32450000D02*
X150250001Y-32450000D01*
X150250001Y-46150000D02*
X150250001Y-46200000D01*
X150250001Y-32450000D02*
X150250001Y-46150000D01*
X147750001Y-48200000D02*
X134500001Y-48200000D01*
%TO.C,C1*%
X134730000Y-95970000D02*
X134730000Y-90730000D01*
X137470000Y-95970000D02*
X137470000Y-90730000D01*
X134730000Y-95970000D02*
X135045000Y-95970000D01*
X137155000Y-95970000D02*
X137470000Y-95970000D01*
X134730000Y-90730000D02*
X135045000Y-90730000D01*
X137155000Y-90730000D02*
X137470000Y-90730000D01*
%TO.C,C2*%
X137165000Y-177080000D02*
X137480000Y-177080000D01*
X134740000Y-177080000D02*
X135055000Y-177080000D01*
X137165000Y-182320000D02*
X137480000Y-182320000D01*
X134740000Y-182320000D02*
X135055000Y-182320000D01*
X137480000Y-182320000D02*
X137480000Y-177080000D01*
X134740000Y-182320000D02*
X134740000Y-177080000D01*
%TO.C,D1*%
D11*
X141861904Y-89702380D02*
X141861904Y-88702380D01*
X142100000Y-88702380D01*
X142242857Y-88750000D01*
X142338095Y-88845238D01*
X142385714Y-88940476D01*
X142433333Y-89130952D01*
X142433333Y-89273809D01*
X142385714Y-89464285D01*
X142338095Y-89559523D01*
X142242857Y-89654761D01*
X142100000Y-89702380D01*
X141861904Y-89702380D01*
X143385714Y-89702380D02*
X142814285Y-89702380D01*
X143100000Y-89702380D02*
X143100000Y-88702380D01*
X143004761Y-88845238D01*
X142909523Y-88940476D01*
X142814285Y-88988095D01*
X142107142Y-97952380D02*
X141630952Y-97952380D01*
X141630952Y-96952380D01*
X142440476Y-97428571D02*
X142773809Y-97428571D01*
X142916666Y-97952380D02*
X142440476Y-97952380D01*
X142440476Y-96952380D01*
X142916666Y-96952380D01*
X143345238Y-97952380D02*
X143345238Y-96952380D01*
X143583333Y-96952380D01*
X143726190Y-97000000D01*
X143821428Y-97095238D01*
X143869047Y-97190476D01*
X143916666Y-97380952D01*
X143916666Y-97523809D01*
X143869047Y-97714285D01*
X143821428Y-97809523D01*
X143726190Y-97904761D01*
X143583333Y-97952380D01*
X143345238Y-97952380D01*
%TO.C,J6*%
X142066667Y-193202380D02*
X142066667Y-193916666D01*
X142019048Y-194059523D01*
X141923810Y-194154761D01*
X141780953Y-194202380D01*
X141685715Y-194202380D01*
X142971429Y-193202380D02*
X142780953Y-193202380D01*
X142685715Y-193250000D01*
X142638096Y-193297619D01*
X142542858Y-193440476D01*
X142495239Y-193630952D01*
X142495239Y-194011904D01*
X142542858Y-194107142D01*
X142590477Y-194154761D01*
X142685715Y-194202380D01*
X142876191Y-194202380D01*
X142971429Y-194154761D01*
X143019048Y-194107142D01*
X143066667Y-194011904D01*
X143066667Y-193773809D01*
X143019048Y-193678571D01*
X142971429Y-193630952D01*
X142876191Y-193583333D01*
X142685715Y-193583333D01*
X142590477Y-193630952D01*
X142542858Y-193678571D01*
X142495239Y-193773809D01*
%TO.C,R1*%
X134433333Y-53752380D02*
X134100000Y-53276190D01*
X133861904Y-53752380D02*
X133861904Y-52752380D01*
X134242857Y-52752380D01*
X134338095Y-52800000D01*
X134385714Y-52847619D01*
X134433333Y-52942857D01*
X134433333Y-53085714D01*
X134385714Y-53180952D01*
X134338095Y-53228571D01*
X134242857Y-53276190D01*
X133861904Y-53276190D01*
X135385714Y-53752380D02*
X134814285Y-53752380D01*
X135100000Y-53752380D02*
X135100000Y-52752380D01*
X135004761Y-52895238D01*
X134909523Y-52990476D01*
X134814285Y-53038095D01*
X134202380Y-61785714D02*
X134202380Y-61166666D01*
X134583333Y-61500000D01*
X134583333Y-61357142D01*
X134630952Y-61261904D01*
X134678571Y-61214285D01*
X134773809Y-61166666D01*
X135011904Y-61166666D01*
X135107142Y-61214285D01*
X135154761Y-61261904D01*
X135202380Y-61357142D01*
X135202380Y-61642857D01*
X135154761Y-61738095D01*
X135107142Y-61785714D01*
X135202380Y-60690476D02*
X135202380Y-60500000D01*
X135154761Y-60404761D01*
X135107142Y-60357142D01*
X134964285Y-60261904D01*
X134773809Y-60214285D01*
X134392857Y-60214285D01*
X134297619Y-60261904D01*
X134250000Y-60309523D01*
X134202380Y-60404761D01*
X134202380Y-60595238D01*
X134250000Y-60690476D01*
X134297619Y-60738095D01*
X134392857Y-60785714D01*
X134630952Y-60785714D01*
X134726190Y-60738095D01*
X134773809Y-60690476D01*
X134821428Y-60595238D01*
X134821428Y-60404761D01*
X134773809Y-60309523D01*
X134726190Y-60261904D01*
X134630952Y-60214285D01*
X134202380Y-59595238D02*
X134202380Y-59500000D01*
X134250000Y-59404761D01*
X134297619Y-59357142D01*
X134392857Y-59309523D01*
X134583333Y-59261904D01*
X134821428Y-59261904D01*
X135011904Y-59309523D01*
X135107142Y-59357142D01*
X135154761Y-59404761D01*
X135202380Y-59500000D01*
X135202380Y-59595238D01*
X135154761Y-59690476D01*
X135107142Y-59738095D01*
X135011904Y-59785714D01*
X134821428Y-59833333D01*
X134583333Y-59833333D01*
X134392857Y-59785714D01*
X134297619Y-59738095D01*
X134250000Y-59690476D01*
X134202380Y-59595238D01*
X135202380Y-58261904D02*
X134726190Y-58595238D01*
X135202380Y-58833333D02*
X134202380Y-58833333D01*
X134202380Y-58452380D01*
X134250000Y-58357142D01*
X134297619Y-58309523D01*
X134392857Y-58261904D01*
X134535714Y-58261904D01*
X134630952Y-58309523D01*
X134678571Y-58357142D01*
X134726190Y-58452380D01*
X134726190Y-58833333D01*
%TO.C,D3*%
X141761904Y-176202380D02*
X141761904Y-175202380D01*
X142000000Y-175202380D01*
X142142857Y-175250000D01*
X142238095Y-175345238D01*
X142285714Y-175440476D01*
X142333333Y-175630952D01*
X142333333Y-175773809D01*
X142285714Y-175964285D01*
X142238095Y-176059523D01*
X142142857Y-176154761D01*
X142000000Y-176202380D01*
X141761904Y-176202380D01*
X142666666Y-175202380D02*
X143285714Y-175202380D01*
X142952380Y-175583333D01*
X143095238Y-175583333D01*
X143190476Y-175630952D01*
X143238095Y-175678571D01*
X143285714Y-175773809D01*
X143285714Y-176011904D01*
X143238095Y-176107142D01*
X143190476Y-176154761D01*
X143095238Y-176202380D01*
X142809523Y-176202380D01*
X142714285Y-176154761D01*
X142666666Y-176107142D01*
X141857142Y-184202380D02*
X141380952Y-184202380D01*
X141380952Y-183202380D01*
X142190476Y-183678571D02*
X142523809Y-183678571D01*
X142666666Y-184202380D02*
X142190476Y-184202380D01*
X142190476Y-183202380D01*
X142666666Y-183202380D01*
X143095238Y-184202380D02*
X143095238Y-183202380D01*
X143333333Y-183202380D01*
X143476190Y-183250000D01*
X143571428Y-183345238D01*
X143619047Y-183440476D01*
X143666666Y-183630952D01*
X143666666Y-183773809D01*
X143619047Y-183964285D01*
X143571428Y-184059523D01*
X143476190Y-184154761D01*
X143333333Y-184202380D01*
X143095238Y-184202380D01*
%TO.C,J2*%
X142066667Y-78452380D02*
X142066667Y-79166666D01*
X142019048Y-79309523D01*
X141923810Y-79404761D01*
X141780953Y-79452380D01*
X141685715Y-79452380D01*
X142495239Y-78547619D02*
X142542858Y-78500000D01*
X142638096Y-78452380D01*
X142876191Y-78452380D01*
X142971429Y-78500000D01*
X143019048Y-78547619D01*
X143066667Y-78642857D01*
X143066667Y-78738095D01*
X143019048Y-78880952D01*
X142447620Y-79452380D01*
X143066667Y-79452380D01*
%TO.C,D4*%
X147202380Y-180488095D02*
X146202380Y-180488095D01*
X146202380Y-180250000D01*
X146250000Y-180107142D01*
X146345238Y-180011904D01*
X146440476Y-179964285D01*
X146630952Y-179916666D01*
X146773809Y-179916666D01*
X146964285Y-179964285D01*
X147059523Y-180011904D01*
X147154761Y-180107142D01*
X147202380Y-180250000D01*
X147202380Y-180488095D01*
X146535714Y-179059523D02*
X147202380Y-179059523D01*
X146154761Y-179297619D02*
X146869047Y-179535714D01*
X146869047Y-178916666D01*
X151202380Y-181892857D02*
X151202380Y-182464285D01*
X151202380Y-182178571D02*
X150202380Y-182178571D01*
X150345238Y-182273809D01*
X150440476Y-182369047D01*
X150488095Y-182464285D01*
X151202380Y-181464285D02*
X150202380Y-181464285D01*
X151202380Y-180892857D01*
X150202380Y-180892857D01*
X150535714Y-179988095D02*
X151202380Y-179988095D01*
X150154761Y-180226190D02*
X150869047Y-180464285D01*
X150869047Y-179845238D01*
X151202380Y-178940476D02*
X151202380Y-179511904D01*
X151202380Y-179226190D02*
X150202380Y-179226190D01*
X150345238Y-179321428D01*
X150440476Y-179416666D01*
X150488095Y-179511904D01*
X150535714Y-178083333D02*
X151202380Y-178083333D01*
X150154761Y-178321428D02*
X150869047Y-178559523D01*
X150869047Y-177940476D01*
X150630952Y-177416666D02*
X150583333Y-177511904D01*
X150535714Y-177559523D01*
X150440476Y-177607142D01*
X150392857Y-177607142D01*
X150297619Y-177559523D01*
X150250000Y-177511904D01*
X150202380Y-177416666D01*
X150202380Y-177226190D01*
X150250000Y-177130952D01*
X150297619Y-177083333D01*
X150392857Y-177035714D01*
X150440476Y-177035714D01*
X150535714Y-177083333D01*
X150583333Y-177130952D01*
X150630952Y-177226190D01*
X150630952Y-177416666D01*
X150678571Y-177511904D01*
X150726190Y-177559523D01*
X150821428Y-177607142D01*
X151011904Y-177607142D01*
X151107142Y-177559523D01*
X151154761Y-177511904D01*
X151202380Y-177416666D01*
X151202380Y-177226190D01*
X151154761Y-177130952D01*
X151107142Y-177083333D01*
X151011904Y-177035714D01*
X150821428Y-177035714D01*
X150726190Y-177083333D01*
X150678571Y-177130952D01*
X150630952Y-177226190D01*
X150862380Y-175961904D02*
X149862380Y-175961904D01*
X150862380Y-175390476D02*
X150290952Y-175819047D01*
X149862380Y-175390476D02*
X150433809Y-175961904D01*
%TO.C,J3*%
X142066667Y-106952380D02*
X142066667Y-107666666D01*
X142019048Y-107809523D01*
X141923810Y-107904761D01*
X141780953Y-107952380D01*
X141685715Y-107952380D01*
X142447620Y-106952380D02*
X143066667Y-106952380D01*
X142733334Y-107333333D01*
X142876191Y-107333333D01*
X142971429Y-107380952D01*
X143019048Y-107428571D01*
X143066667Y-107523809D01*
X143066667Y-107761904D01*
X143019048Y-107857142D01*
X142971429Y-107904761D01*
X142876191Y-107952380D01*
X142590477Y-107952380D01*
X142495239Y-107904761D01*
X142447620Y-107857142D01*
%TO.C,J5*%
X141916666Y-164952380D02*
X141916666Y-165666666D01*
X141869047Y-165809523D01*
X141773809Y-165904761D01*
X141630952Y-165952380D01*
X141535714Y-165952380D01*
X142869047Y-164952380D02*
X142392857Y-164952380D01*
X142345238Y-165428571D01*
X142392857Y-165380952D01*
X142488095Y-165333333D01*
X142726190Y-165333333D01*
X142821428Y-165380952D01*
X142869047Y-165428571D01*
X142916666Y-165523809D01*
X142916666Y-165761904D01*
X142869047Y-165857142D01*
X142821428Y-165904761D01*
X142726190Y-165952380D01*
X142488095Y-165952380D01*
X142392857Y-165904761D01*
X142345238Y-165857142D01*
%TO.C,R2*%
X150083333Y-53452380D02*
X149750000Y-52976190D01*
X149511904Y-53452380D02*
X149511904Y-52452380D01*
X149892857Y-52452380D01*
X149988095Y-52500000D01*
X150035714Y-52547619D01*
X150083333Y-52642857D01*
X150083333Y-52785714D01*
X150035714Y-52880952D01*
X149988095Y-52928571D01*
X149892857Y-52976190D01*
X149511904Y-52976190D01*
X150464285Y-52547619D02*
X150511904Y-52500000D01*
X150607142Y-52452380D01*
X150845238Y-52452380D01*
X150940476Y-52500000D01*
X150988095Y-52547619D01*
X151035714Y-52642857D01*
X151035714Y-52738095D01*
X150988095Y-52880952D01*
X150416666Y-53452380D01*
X151035714Y-53452380D01*
X149952380Y-61785714D02*
X149952380Y-61166666D01*
X150333333Y-61500000D01*
X150333333Y-61357142D01*
X150380952Y-61261904D01*
X150428571Y-61214285D01*
X150523809Y-61166666D01*
X150761904Y-61166666D01*
X150857142Y-61214285D01*
X150904761Y-61261904D01*
X150952380Y-61357142D01*
X150952380Y-61642857D01*
X150904761Y-61738095D01*
X150857142Y-61785714D01*
X150952380Y-60690476D02*
X150952380Y-60500000D01*
X150904761Y-60404761D01*
X150857142Y-60357142D01*
X150714285Y-60261904D01*
X150523809Y-60214285D01*
X150142857Y-60214285D01*
X150047619Y-60261904D01*
X150000000Y-60309523D01*
X149952380Y-60404761D01*
X149952380Y-60595238D01*
X150000000Y-60690476D01*
X150047619Y-60738095D01*
X150142857Y-60785714D01*
X150380952Y-60785714D01*
X150476190Y-60738095D01*
X150523809Y-60690476D01*
X150571428Y-60595238D01*
X150571428Y-60404761D01*
X150523809Y-60309523D01*
X150476190Y-60261904D01*
X150380952Y-60214285D01*
X149952380Y-59595238D02*
X149952380Y-59500000D01*
X150000000Y-59404761D01*
X150047619Y-59357142D01*
X150142857Y-59309523D01*
X150333333Y-59261904D01*
X150571428Y-59261904D01*
X150761904Y-59309523D01*
X150857142Y-59357142D01*
X150904761Y-59404761D01*
X150952380Y-59500000D01*
X150952380Y-59595238D01*
X150904761Y-59690476D01*
X150857142Y-59738095D01*
X150761904Y-59785714D01*
X150571428Y-59833333D01*
X150333333Y-59833333D01*
X150142857Y-59785714D01*
X150047619Y-59738095D01*
X150000000Y-59690476D01*
X149952380Y-59595238D01*
X150952380Y-58261904D02*
X150476190Y-58595238D01*
X150952380Y-58833333D02*
X149952380Y-58833333D01*
X149952380Y-58452380D01*
X150000000Y-58357142D01*
X150047619Y-58309523D01*
X150142857Y-58261904D01*
X150285714Y-58261904D01*
X150380952Y-58309523D01*
X150428571Y-58357142D01*
X150476190Y-58452380D01*
X150476190Y-58833333D01*
%TO.C,D2*%
X147202380Y-93988095D02*
X146202380Y-93988095D01*
X146202380Y-93750000D01*
X146250000Y-93607142D01*
X146345238Y-93511904D01*
X146440476Y-93464285D01*
X146630952Y-93416666D01*
X146773809Y-93416666D01*
X146964285Y-93464285D01*
X147059523Y-93511904D01*
X147154761Y-93607142D01*
X147202380Y-93750000D01*
X147202380Y-93988095D01*
X146297619Y-93035714D02*
X146250000Y-92988095D01*
X146202380Y-92892857D01*
X146202380Y-92654761D01*
X146250000Y-92559523D01*
X146297619Y-92511904D01*
X146392857Y-92464285D01*
X146488095Y-92464285D01*
X146630952Y-92511904D01*
X147202380Y-93083333D01*
X147202380Y-92464285D01*
X151202380Y-95392857D02*
X151202380Y-95964285D01*
X151202380Y-95678571D02*
X150202380Y-95678571D01*
X150345238Y-95773809D01*
X150440476Y-95869047D01*
X150488095Y-95964285D01*
X151202380Y-94964285D02*
X150202380Y-94964285D01*
X151202380Y-94392857D01*
X150202380Y-94392857D01*
X150535714Y-93488095D02*
X151202380Y-93488095D01*
X150154761Y-93726190D02*
X150869047Y-93964285D01*
X150869047Y-93345238D01*
X151202380Y-92440476D02*
X151202380Y-93011904D01*
X151202380Y-92726190D02*
X150202380Y-92726190D01*
X150345238Y-92821428D01*
X150440476Y-92916666D01*
X150488095Y-93011904D01*
X150535714Y-91583333D02*
X151202380Y-91583333D01*
X150154761Y-91821428D02*
X150869047Y-92059523D01*
X150869047Y-91440476D01*
X150630952Y-90916666D02*
X150583333Y-91011904D01*
X150535714Y-91059523D01*
X150440476Y-91107142D01*
X150392857Y-91107142D01*
X150297619Y-91059523D01*
X150250000Y-91011904D01*
X150202380Y-90916666D01*
X150202380Y-90726190D01*
X150250000Y-90630952D01*
X150297619Y-90583333D01*
X150392857Y-90535714D01*
X150440476Y-90535714D01*
X150535714Y-90583333D01*
X150583333Y-90630952D01*
X150630952Y-90726190D01*
X150630952Y-90916666D01*
X150678571Y-91011904D01*
X150726190Y-91059523D01*
X150821428Y-91107142D01*
X151011904Y-91107142D01*
X151107142Y-91059523D01*
X151154761Y-91011904D01*
X151202380Y-90916666D01*
X151202380Y-90726190D01*
X151154761Y-90630952D01*
X151107142Y-90583333D01*
X151011904Y-90535714D01*
X150821428Y-90535714D01*
X150726190Y-90583333D01*
X150678571Y-90630952D01*
X150630952Y-90726190D01*
X150852380Y-89611904D02*
X149852380Y-89611904D01*
X150852380Y-89040476D02*
X150280952Y-89469047D01*
X149852380Y-89040476D02*
X150423809Y-89611904D01*
%TO.C,J4*%
X142166666Y-126202380D02*
X142166666Y-126916666D01*
X142119047Y-127059523D01*
X142023809Y-127154761D01*
X141880952Y-127202380D01*
X141785714Y-127202380D01*
X143071428Y-126535714D02*
X143071428Y-127202380D01*
X142833333Y-126154761D02*
X142595238Y-126869047D01*
X143214285Y-126869047D01*
%TO.C,R3*%
X134333333Y-139952380D02*
X134000000Y-139476190D01*
X133761904Y-139952380D02*
X133761904Y-138952380D01*
X134142857Y-138952380D01*
X134238095Y-139000000D01*
X134285714Y-139047619D01*
X134333333Y-139142857D01*
X134333333Y-139285714D01*
X134285714Y-139380952D01*
X134238095Y-139428571D01*
X134142857Y-139476190D01*
X133761904Y-139476190D01*
X134666666Y-138952380D02*
X135285714Y-138952380D01*
X134952380Y-139333333D01*
X135095238Y-139333333D01*
X135190476Y-139380952D01*
X135238095Y-139428571D01*
X135285714Y-139523809D01*
X135285714Y-139761904D01*
X135238095Y-139857142D01*
X135190476Y-139904761D01*
X135095238Y-139952380D01*
X134809523Y-139952380D01*
X134714285Y-139904761D01*
X134666666Y-139857142D01*
X134202380Y-148315714D02*
X134202380Y-147696666D01*
X134583333Y-148030000D01*
X134583333Y-147887142D01*
X134630952Y-147791904D01*
X134678571Y-147744285D01*
X134773809Y-147696666D01*
X135011904Y-147696666D01*
X135107142Y-147744285D01*
X135154761Y-147791904D01*
X135202380Y-147887142D01*
X135202380Y-148172857D01*
X135154761Y-148268095D01*
X135107142Y-148315714D01*
X135202380Y-147220476D02*
X135202380Y-147030000D01*
X135154761Y-146934761D01*
X135107142Y-146887142D01*
X134964285Y-146791904D01*
X134773809Y-146744285D01*
X134392857Y-146744285D01*
X134297619Y-146791904D01*
X134250000Y-146839523D01*
X134202380Y-146934761D01*
X134202380Y-147125238D01*
X134250000Y-147220476D01*
X134297619Y-147268095D01*
X134392857Y-147315714D01*
X134630952Y-147315714D01*
X134726190Y-147268095D01*
X134773809Y-147220476D01*
X134821428Y-147125238D01*
X134821428Y-146934761D01*
X134773809Y-146839523D01*
X134726190Y-146791904D01*
X134630952Y-146744285D01*
X134202380Y-146125238D02*
X134202380Y-146030000D01*
X134250000Y-145934761D01*
X134297619Y-145887142D01*
X134392857Y-145839523D01*
X134583333Y-145791904D01*
X134821428Y-145791904D01*
X135011904Y-145839523D01*
X135107142Y-145887142D01*
X135154761Y-145934761D01*
X135202380Y-146030000D01*
X135202380Y-146125238D01*
X135154761Y-146220476D01*
X135107142Y-146268095D01*
X135011904Y-146315714D01*
X134821428Y-146363333D01*
X134583333Y-146363333D01*
X134392857Y-146315714D01*
X134297619Y-146268095D01*
X134250000Y-146220476D01*
X134202380Y-146125238D01*
X135202380Y-144791904D02*
X134726190Y-145125238D01*
X135202380Y-145363333D02*
X134202380Y-145363333D01*
X134202380Y-144982380D01*
X134250000Y-144887142D01*
X134297619Y-144839523D01*
X134392857Y-144791904D01*
X134535714Y-144791904D01*
X134630952Y-144839523D01*
X134678571Y-144887142D01*
X134726190Y-144982380D01*
X134726190Y-145363333D01*
%TO.C,R4*%
X150083333Y-139952380D02*
X149750000Y-139476190D01*
X149511904Y-139952380D02*
X149511904Y-138952380D01*
X149892857Y-138952380D01*
X149988095Y-139000000D01*
X150035714Y-139047619D01*
X150083333Y-139142857D01*
X150083333Y-139285714D01*
X150035714Y-139380952D01*
X149988095Y-139428571D01*
X149892857Y-139476190D01*
X149511904Y-139476190D01*
X150940476Y-139285714D02*
X150940476Y-139952380D01*
X150702380Y-138904761D02*
X150464285Y-139619047D01*
X151083333Y-139619047D01*
X149952380Y-148155714D02*
X149952380Y-147536666D01*
X150333333Y-147870000D01*
X150333333Y-147727142D01*
X150380952Y-147631904D01*
X150428571Y-147584285D01*
X150523809Y-147536666D01*
X150761904Y-147536666D01*
X150857142Y-147584285D01*
X150904761Y-147631904D01*
X150952380Y-147727142D01*
X150952380Y-148012857D01*
X150904761Y-148108095D01*
X150857142Y-148155714D01*
X150952380Y-147060476D02*
X150952380Y-146870000D01*
X150904761Y-146774761D01*
X150857142Y-146727142D01*
X150714285Y-146631904D01*
X150523809Y-146584285D01*
X150142857Y-146584285D01*
X150047619Y-146631904D01*
X150000000Y-146679523D01*
X149952380Y-146774761D01*
X149952380Y-146965238D01*
X150000000Y-147060476D01*
X150047619Y-147108095D01*
X150142857Y-147155714D01*
X150380952Y-147155714D01*
X150476190Y-147108095D01*
X150523809Y-147060476D01*
X150571428Y-146965238D01*
X150571428Y-146774761D01*
X150523809Y-146679523D01*
X150476190Y-146631904D01*
X150380952Y-146584285D01*
X149952380Y-145965238D02*
X149952380Y-145870000D01*
X150000000Y-145774761D01*
X150047619Y-145727142D01*
X150142857Y-145679523D01*
X150333333Y-145631904D01*
X150571428Y-145631904D01*
X150761904Y-145679523D01*
X150857142Y-145727142D01*
X150904761Y-145774761D01*
X150952380Y-145870000D01*
X150952380Y-145965238D01*
X150904761Y-146060476D01*
X150857142Y-146108095D01*
X150761904Y-146155714D01*
X150571428Y-146203333D01*
X150333333Y-146203333D01*
X150142857Y-146155714D01*
X150047619Y-146108095D01*
X150000000Y-146060476D01*
X149952380Y-145965238D01*
X150952380Y-144631904D02*
X150476190Y-144965238D01*
X150952380Y-145203333D02*
X149952380Y-145203333D01*
X149952380Y-144822380D01*
X150000000Y-144727142D01*
X150047619Y-144679523D01*
X150142857Y-144631904D01*
X150285714Y-144631904D01*
X150380952Y-144679523D01*
X150428571Y-144727142D01*
X150476190Y-144822380D01*
X150476190Y-145203333D01*
%TO.C,J1*%
X141916666Y-40202380D02*
X141916666Y-40916666D01*
X141869047Y-41059523D01*
X141773809Y-41154761D01*
X141630952Y-41202380D01*
X141535714Y-41202380D01*
X142916666Y-41202380D02*
X142345238Y-41202380D01*
X142630952Y-41202380D02*
X142630952Y-40202380D01*
X142535714Y-40345238D01*
X142440476Y-40440476D01*
X142345238Y-40488095D01*
%TO.C,C1*%
X135833333Y-89357142D02*
X135785714Y-89404761D01*
X135642857Y-89452380D01*
X135547619Y-89452380D01*
X135404761Y-89404761D01*
X135309523Y-89309523D01*
X135261904Y-89214285D01*
X135214285Y-89023809D01*
X135214285Y-88880952D01*
X135261904Y-88690476D01*
X135309523Y-88595238D01*
X135404761Y-88500000D01*
X135547619Y-88452380D01*
X135642857Y-88452380D01*
X135785714Y-88500000D01*
X135833333Y-88547619D01*
X136785714Y-89452380D02*
X136214285Y-89452380D01*
X136500000Y-89452380D02*
X136500000Y-88452380D01*
X136404761Y-88595238D01*
X136309523Y-88690476D01*
X136214285Y-88738095D01*
X134202380Y-94809523D02*
X134202380Y-95380952D01*
X134202380Y-95095238D02*
X133202380Y-95095238D01*
X133345238Y-95190476D01*
X133440476Y-95285714D01*
X133488095Y-95380952D01*
X134107142Y-94380952D02*
X134154761Y-94333333D01*
X134202380Y-94380952D01*
X134154761Y-94428571D01*
X134107142Y-94380952D01*
X134202380Y-94380952D01*
X133202380Y-93428571D02*
X133202380Y-93904761D01*
X133678571Y-93952380D01*
X133630952Y-93904761D01*
X133583333Y-93809523D01*
X133583333Y-93571428D01*
X133630952Y-93476190D01*
X133678571Y-93428571D01*
X133773809Y-93380952D01*
X134011904Y-93380952D01*
X134107142Y-93428571D01*
X134154761Y-93476190D01*
X134202380Y-93571428D01*
X134202380Y-93809523D01*
X134154761Y-93904761D01*
X134107142Y-93952380D01*
X133535714Y-92952380D02*
X134202380Y-92952380D01*
X133630952Y-92952380D02*
X133583333Y-92904761D01*
X133535714Y-92809523D01*
X133535714Y-92666666D01*
X133583333Y-92571428D01*
X133678571Y-92523809D01*
X134202380Y-92523809D01*
X133678571Y-91714285D02*
X133678571Y-92047619D01*
X134202380Y-92047619D02*
X133202380Y-92047619D01*
X133202380Y-91571428D01*
%TO.C,C2*%
X135833333Y-175857142D02*
X135785714Y-175904761D01*
X135642857Y-175952380D01*
X135547619Y-175952380D01*
X135404761Y-175904761D01*
X135309523Y-175809523D01*
X135261904Y-175714285D01*
X135214285Y-175523809D01*
X135214285Y-175380952D01*
X135261904Y-175190476D01*
X135309523Y-175095238D01*
X135404761Y-175000000D01*
X135547619Y-174952380D01*
X135642857Y-174952380D01*
X135785714Y-175000000D01*
X135833333Y-175047619D01*
X136214285Y-175047619D02*
X136261904Y-175000000D01*
X136357142Y-174952380D01*
X136595238Y-174952380D01*
X136690476Y-175000000D01*
X136738095Y-175047619D01*
X136785714Y-175142857D01*
X136785714Y-175238095D01*
X136738095Y-175380952D01*
X136166666Y-175952380D01*
X136785714Y-175952380D01*
X134202380Y-180809523D02*
X134202380Y-181380952D01*
X134202380Y-181095238D02*
X133202380Y-181095238D01*
X133345238Y-181190476D01*
X133440476Y-181285714D01*
X133488095Y-181380952D01*
X134107142Y-180380952D02*
X134154761Y-180333333D01*
X134202380Y-180380952D01*
X134154761Y-180428571D01*
X134107142Y-180380952D01*
X134202380Y-180380952D01*
X133202380Y-179428571D02*
X133202380Y-179904761D01*
X133678571Y-179952380D01*
X133630952Y-179904761D01*
X133583333Y-179809523D01*
X133583333Y-179571428D01*
X133630952Y-179476190D01*
X133678571Y-179428571D01*
X133773809Y-179380952D01*
X134011904Y-179380952D01*
X134107142Y-179428571D01*
X134154761Y-179476190D01*
X134202380Y-179571428D01*
X134202380Y-179809523D01*
X134154761Y-179904761D01*
X134107142Y-179952380D01*
X133535714Y-178952380D02*
X134202380Y-178952380D01*
X133630952Y-178952380D02*
X133583333Y-178904761D01*
X133535714Y-178809523D01*
X133535714Y-178666666D01*
X133583333Y-178571428D01*
X133678571Y-178523809D01*
X134202380Y-178523809D01*
X133678571Y-177714285D02*
X133678571Y-178047619D01*
X134202380Y-178047619D02*
X133202380Y-178047619D01*
X133202380Y-177571428D01*
%TD*%
M02*
