%TF.GenerationSoftware,KiCad,Pcbnew,(5.1.6)-1*%
%TF.CreationDate,2020-06-24T18:06:57-05:00*%
%TF.ProjectId,Dual Passive VLPG,4475616c-2050-4617-9373-69766520564c,rev?*%
%TF.SameCoordinates,Original*%
%TF.FileFunction,Copper,L2,Bot*%
%TF.FilePolarity,Positive*%
%FSLAX46Y46*%
G04 Gerber Fmt 4.6, Leading zero omitted, Abs format (unit mm)*
G04 Created by KiCad (PCBNEW (5.1.6)-1) date 2020-06-24 18:06:57*
%MOMM*%
%LPD*%
G01*
G04 APERTURE LIST*
%TA.AperFunction,ComponentPad*%
%ADD10C,1.800000*%
%TD*%
%TA.AperFunction,ComponentPad*%
%ADD11R,1.800000X1.800000*%
%TD*%
%TA.AperFunction,ComponentPad*%
%ADD12C,4.500000*%
%TD*%
%TA.AperFunction,ComponentPad*%
%ADD13R,4.500001X4.500001*%
%TD*%
%TA.AperFunction,ComponentPad*%
%ADD14C,4.500001*%
%TD*%
%TA.AperFunction,ComponentPad*%
%ADD15C,1.600000*%
%TD*%
%TA.AperFunction,ComponentPad*%
%ADD16O,1.600000X1.600000*%
%TD*%
%TA.AperFunction,ComponentPad*%
%ADD17R,1.600000X1.600000*%
%TD*%
%TA.AperFunction,ComponentPad*%
%ADD18C,1.150000*%
%TD*%
%TA.AperFunction,Conductor*%
%ADD19C,0.635000*%
%TD*%
%TA.AperFunction,Conductor*%
%ADD20C,0.254000*%
%TD*%
G04 APERTURE END LIST*
D10*
%TO.P,D1,2*%
%TO.N,Net-(D1-Pad2)*%
X141330000Y-93350000D03*
D11*
%TO.P,D1,1*%
%TO.N,GND*%
X143870000Y-93350000D03*
%TD*%
D12*
%TO.P,J6,T*%
%TO.N,Net-(D4-Pad2)*%
X136000001Y-194200000D03*
D13*
%TO.P,J6,S*%
%TO.N,GND*%
X147140001Y-198440000D03*
D14*
%TO.P,J6,R*%
%TO.N,N/C*%
X142900001Y-187300000D03*
D12*
%TO.P,J6,TN*%
X139900001Y-200100000D03*
D14*
%TO.P,J6,RN*%
X148800001Y-191200000D03*
%TD*%
D15*
%TO.P,R1,1*%
%TO.N,Net-(D2-Pad1)*%
X134600000Y-55100000D03*
D16*
%TO.P,R1,2*%
%TO.N,Net-(D1-Pad2)*%
X134600000Y-65260000D03*
%TD*%
D11*
%TO.P,D3,1*%
%TO.N,GND*%
X143870000Y-179700000D03*
D10*
%TO.P,D3,2*%
%TO.N,Net-(D3-Pad2)*%
X141330000Y-179700000D03*
%TD*%
D14*
%TO.P,J2,RN*%
%TO.N,N/C*%
X148800001Y-76600000D03*
D12*
%TO.P,J2,TN*%
X139900001Y-85500000D03*
D14*
%TO.P,J2,R*%
X142900001Y-72700000D03*
D13*
%TO.P,J2,S*%
%TO.N,GND*%
X147140001Y-83840000D03*
D12*
%TO.P,J2,T*%
%TO.N,Net-(C1-Pad2)*%
X136000001Y-79600000D03*
%TD*%
D17*
%TO.P,D4,1*%
%TO.N,Net-(D4-Pad1)*%
X148610000Y-175700000D03*
D16*
%TO.P,D4,2*%
%TO.N,Net-(D4-Pad2)*%
X148610000Y-183320000D03*
%TD*%
D14*
%TO.P,J3,RN*%
%TO.N,N/C*%
X148800001Y-104850000D03*
D12*
%TO.P,J3,TN*%
X139900001Y-113750000D03*
D14*
%TO.P,J3,R*%
X142900001Y-100950000D03*
D13*
%TO.P,J3,S*%
%TO.N,GND*%
X147140001Y-112090000D03*
D12*
%TO.P,J3,T*%
%TO.N,Net-(D2-Pad2)*%
X136000001Y-107850000D03*
%TD*%
D14*
%TO.P,J5,RN*%
%TO.N,N/C*%
X148800001Y-162950000D03*
D12*
%TO.P,J5,TN*%
X139900001Y-171850000D03*
D14*
%TO.P,J5,R*%
X142900001Y-159050000D03*
D13*
%TO.P,J5,S*%
%TO.N,GND*%
X147140001Y-170190000D03*
D12*
%TO.P,J5,T*%
%TO.N,Net-(C2-Pad2)*%
X136000001Y-165950000D03*
%TD*%
D16*
%TO.P,R2,2*%
%TO.N,GND*%
X150350000Y-54940000D03*
D15*
%TO.P,R2,1*%
%TO.N,Net-(R2-Pad1)*%
X150350000Y-65100000D03*
%TD*%
D16*
%TO.P,D2,2*%
%TO.N,Net-(D2-Pad2)*%
X148600000Y-96970000D03*
D17*
%TO.P,D2,1*%
%TO.N,Net-(D2-Pad1)*%
X148600000Y-89350000D03*
%TD*%
D12*
%TO.P,J4,T*%
%TO.N,Net-(J4-PadT)*%
X136000001Y-127200000D03*
D13*
%TO.P,J4,S*%
%TO.N,GND*%
X147140001Y-131440000D03*
D14*
%TO.P,J4,R*%
%TO.N,N/C*%
X142900001Y-120300000D03*
D12*
%TO.P,J4,TN*%
X139900001Y-133100000D03*
D14*
%TO.P,J4,RN*%
X148800001Y-124200000D03*
%TD*%
D16*
%TO.P,R3,2*%
%TO.N,Net-(D3-Pad2)*%
X134610000Y-151610000D03*
D15*
%TO.P,R3,1*%
%TO.N,Net-(D4-Pad1)*%
X134610000Y-141450000D03*
%TD*%
%TO.P,U1,1*%
%TO.N,Net-(R2-Pad1)*%
%TA.AperFunction,ComponentPad*%
G36*
G01*
X144637500Y-68675000D02*
X144062500Y-68675000D01*
G75*
G02*
X143775000Y-68387500I0J287500D01*
G01*
X143775000Y-67812500D01*
G75*
G02*
X144062500Y-67525000I287500J0D01*
G01*
X144637500Y-67525000D01*
G75*
G02*
X144925000Y-67812500I0J-287500D01*
G01*
X144925000Y-68387500D01*
G75*
G02*
X144637500Y-68675000I-287500J0D01*
G01*
G37*
%TD.AperFunction*%
D18*
%TO.P,U1,3*%
%TO.N,Net-(J1-PadT)*%
X144990000Y-53100000D03*
%TO.P,U1,4*%
%TO.N,Net-(C1-Pad2)*%
X139910000Y-53100000D03*
%TO.P,U1,2*%
%TO.N,Net-(D2-Pad1)*%
X140550000Y-68100000D03*
%TD*%
D15*
%TO.P,R4,1*%
%TO.N,Net-(R4-Pad1)*%
X150360000Y-151450000D03*
D16*
%TO.P,R4,2*%
%TO.N,GND*%
X150360000Y-141290000D03*
%TD*%
D12*
%TO.P,J1,T*%
%TO.N,Net-(J1-PadT)*%
X136000001Y-40850000D03*
D13*
%TO.P,J1,S*%
%TO.N,GND*%
X147140001Y-45090000D03*
D14*
%TO.P,J1,R*%
%TO.N,N/C*%
X142900001Y-33950000D03*
D12*
%TO.P,J1,TN*%
X139900001Y-46750000D03*
D14*
%TO.P,J1,RN*%
X148800001Y-37850000D03*
%TD*%
D18*
%TO.P,U2,2*%
%TO.N,Net-(D4-Pad1)*%
X140560000Y-154450000D03*
%TO.P,U2,4*%
%TO.N,Net-(C2-Pad2)*%
X139920000Y-139450000D03*
%TO.P,U2,3*%
%TO.N,Net-(J4-PadT)*%
X145000000Y-139450000D03*
%TO.P,U2,1*%
%TO.N,Net-(R4-Pad1)*%
%TA.AperFunction,ComponentPad*%
G36*
G01*
X144647500Y-155025000D02*
X144072500Y-155025000D01*
G75*
G02*
X143785000Y-154737500I0J287500D01*
G01*
X143785000Y-154162500D01*
G75*
G02*
X144072500Y-153875000I287500J0D01*
G01*
X144647500Y-153875000D01*
G75*
G02*
X144935000Y-154162500I0J-287500D01*
G01*
X144935000Y-154737500D01*
G75*
G02*
X144647500Y-155025000I-287500J0D01*
G01*
G37*
%TD.AperFunction*%
%TD*%
D15*
%TO.P,C1,1*%
%TO.N,GND*%
X136100000Y-95850000D03*
%TO.P,C1,2*%
%TO.N,Net-(C1-Pad2)*%
X136100000Y-90850000D03*
%TD*%
%TO.P,C2,2*%
%TO.N,Net-(C2-Pad2)*%
X136110000Y-177200000D03*
%TO.P,C2,1*%
%TO.N,GND*%
X136110000Y-182200000D03*
%TD*%
D19*
%TO.N,Net-(C1-Pad2)*%
X133600000Y-89600000D02*
X133600000Y-81950000D01*
X135950000Y-69250000D02*
X141100000Y-64100000D01*
X135950000Y-79600000D02*
X135950000Y-69250000D01*
X141100000Y-64100000D02*
X141100000Y-54290000D01*
X141100000Y-54290000D02*
X139910000Y-53100000D01*
X133600000Y-81950000D02*
X135950000Y-79600000D01*
X136100000Y-90850000D02*
X134850000Y-90850000D01*
X134850000Y-90850000D02*
X133600000Y-89600000D01*
%TO.N,Net-(C2-Pad2)*%
X134010000Y-175100000D02*
X136110000Y-177200000D01*
X134010000Y-168300000D02*
X134010000Y-175100000D01*
X141960000Y-149860000D02*
X136010000Y-155810000D01*
X136010000Y-155810000D02*
X136010000Y-165950000D01*
X141960000Y-141490000D02*
X141960000Y-149860000D01*
X139920000Y-139450000D02*
X141960000Y-141490000D01*
X136010000Y-165950000D02*
X136010000Y-166300000D01*
X136010000Y-166300000D02*
X134010000Y-168300000D01*
%TO.N,Net-(R2-Pad1)*%
X144350000Y-66600000D02*
X145850000Y-65100000D01*
X144350000Y-68100000D02*
X144350000Y-66600000D01*
X145850000Y-65100000D02*
X150350000Y-65100000D01*
%TO.N,Net-(R4-Pad1)*%
X144360000Y-154450000D02*
X144360000Y-153090000D01*
X146000000Y-151450000D02*
X150360000Y-151450000D01*
X144360000Y-153090000D02*
X146000000Y-151450000D01*
%TD*%
D20*
%TO.N,GND*%
G36*
X152390001Y-203890000D02*
G01*
X132810000Y-203890000D01*
X132810000Y-199815852D01*
X137015001Y-199815852D01*
X137015001Y-200384148D01*
X137125870Y-200941523D01*
X137343347Y-201466560D01*
X137659075Y-201939080D01*
X138060921Y-202340926D01*
X138533441Y-202656654D01*
X139058478Y-202874131D01*
X139615853Y-202985000D01*
X140184149Y-202985000D01*
X140741524Y-202874131D01*
X141266561Y-202656654D01*
X141739081Y-202340926D01*
X142140927Y-201939080D01*
X142456655Y-201466560D01*
X142674132Y-200941523D01*
X142724163Y-200690000D01*
X144251929Y-200690000D01*
X144264189Y-200814482D01*
X144300499Y-200934180D01*
X144359464Y-201044494D01*
X144438816Y-201141185D01*
X144535507Y-201220537D01*
X144645821Y-201279502D01*
X144765519Y-201315812D01*
X144890001Y-201328072D01*
X146854251Y-201325000D01*
X147013001Y-201166250D01*
X147013001Y-198567000D01*
X147267001Y-198567000D01*
X147267001Y-201166250D01*
X147425751Y-201325000D01*
X149390001Y-201328072D01*
X149514483Y-201315812D01*
X149634181Y-201279502D01*
X149744495Y-201220537D01*
X149841186Y-201141185D01*
X149920538Y-201044494D01*
X149979503Y-200934180D01*
X150015813Y-200814482D01*
X150028073Y-200690000D01*
X150025001Y-198725750D01*
X149866251Y-198567000D01*
X147267001Y-198567000D01*
X147013001Y-198567000D01*
X144413751Y-198567000D01*
X144255001Y-198725750D01*
X144251929Y-200690000D01*
X142724163Y-200690000D01*
X142785001Y-200384148D01*
X142785001Y-199815852D01*
X142674132Y-199258477D01*
X142456655Y-198733440D01*
X142140927Y-198260920D01*
X141739081Y-197859074D01*
X141266561Y-197543346D01*
X140741524Y-197325869D01*
X140184149Y-197215000D01*
X139615853Y-197215000D01*
X139058478Y-197325869D01*
X138533441Y-197543346D01*
X138060921Y-197859074D01*
X137659075Y-198260920D01*
X137343347Y-198733440D01*
X137125870Y-199258477D01*
X137015001Y-199815852D01*
X132810000Y-199815852D01*
X132810000Y-193915852D01*
X133115001Y-193915852D01*
X133115001Y-194484148D01*
X133225870Y-195041523D01*
X133443347Y-195566560D01*
X133759075Y-196039080D01*
X134160921Y-196440926D01*
X134633441Y-196756654D01*
X135158478Y-196974131D01*
X135715853Y-197085000D01*
X136284149Y-197085000D01*
X136841524Y-196974131D01*
X137366561Y-196756654D01*
X137839081Y-196440926D01*
X138090007Y-196190000D01*
X144251929Y-196190000D01*
X144255001Y-198154250D01*
X144413751Y-198313000D01*
X147013001Y-198313000D01*
X147013001Y-195713750D01*
X147267001Y-195713750D01*
X147267001Y-198313000D01*
X149866251Y-198313000D01*
X150025001Y-198154250D01*
X150028073Y-196190000D01*
X150015813Y-196065518D01*
X149979503Y-195945820D01*
X149920538Y-195835506D01*
X149841186Y-195738815D01*
X149744495Y-195659463D01*
X149634181Y-195600498D01*
X149514483Y-195564188D01*
X149390001Y-195551928D01*
X147425751Y-195555000D01*
X147267001Y-195713750D01*
X147013001Y-195713750D01*
X146854251Y-195555000D01*
X144890001Y-195551928D01*
X144765519Y-195564188D01*
X144645821Y-195600498D01*
X144535507Y-195659463D01*
X144438816Y-195738815D01*
X144359464Y-195835506D01*
X144300499Y-195945820D01*
X144264189Y-196065518D01*
X144251929Y-196190000D01*
X138090007Y-196190000D01*
X138240927Y-196039080D01*
X138556655Y-195566560D01*
X138774132Y-195041523D01*
X138885001Y-194484148D01*
X138885001Y-193915852D01*
X138774132Y-193358477D01*
X138556655Y-192833440D01*
X138240927Y-192360920D01*
X137839081Y-191959074D01*
X137366561Y-191643346D01*
X136841524Y-191425869D01*
X136284149Y-191315000D01*
X135715853Y-191315000D01*
X135158478Y-191425869D01*
X134633441Y-191643346D01*
X134160921Y-191959074D01*
X133759075Y-192360920D01*
X133443347Y-192833440D01*
X133225870Y-193358477D01*
X133115001Y-193915852D01*
X132810000Y-193915852D01*
X132810000Y-190915852D01*
X145915001Y-190915852D01*
X145915001Y-191484148D01*
X146025870Y-192041523D01*
X146243347Y-192566560D01*
X146559075Y-193039080D01*
X146960921Y-193440926D01*
X147433441Y-193756654D01*
X147958478Y-193974131D01*
X148515853Y-194085000D01*
X149084149Y-194085000D01*
X149641524Y-193974131D01*
X150166561Y-193756654D01*
X150639081Y-193440926D01*
X151040927Y-193039080D01*
X151356655Y-192566560D01*
X151574132Y-192041523D01*
X151685001Y-191484148D01*
X151685001Y-190915852D01*
X151574132Y-190358477D01*
X151356655Y-189833440D01*
X151040927Y-189360920D01*
X150639081Y-188959074D01*
X150166561Y-188643346D01*
X149641524Y-188425869D01*
X149084149Y-188315000D01*
X148515853Y-188315000D01*
X147958478Y-188425869D01*
X147433441Y-188643346D01*
X146960921Y-188959074D01*
X146559075Y-189360920D01*
X146243347Y-189833440D01*
X146025870Y-190358477D01*
X145915001Y-190915852D01*
X132810000Y-190915852D01*
X132810000Y-187015852D01*
X140015001Y-187015852D01*
X140015001Y-187584148D01*
X140125870Y-188141523D01*
X140343347Y-188666560D01*
X140659075Y-189139080D01*
X141060921Y-189540926D01*
X141533441Y-189856654D01*
X142058478Y-190074131D01*
X142615853Y-190185000D01*
X143184149Y-190185000D01*
X143741524Y-190074131D01*
X144266561Y-189856654D01*
X144739081Y-189540926D01*
X145140927Y-189139080D01*
X145456655Y-188666560D01*
X145674132Y-188141523D01*
X145785001Y-187584148D01*
X145785001Y-187015852D01*
X145674132Y-186458477D01*
X145456655Y-185933440D01*
X145140927Y-185460920D01*
X144739081Y-185059074D01*
X144266561Y-184743346D01*
X143741524Y-184525869D01*
X143184149Y-184415000D01*
X142615853Y-184415000D01*
X142058478Y-184525869D01*
X141533441Y-184743346D01*
X141060921Y-185059074D01*
X140659075Y-185460920D01*
X140343347Y-185933440D01*
X140125870Y-186458477D01*
X140015001Y-187015852D01*
X132810000Y-187015852D01*
X132810000Y-183192702D01*
X135296903Y-183192702D01*
X135368486Y-183436671D01*
X135623996Y-183557571D01*
X135898184Y-183626300D01*
X136180512Y-183640217D01*
X136460130Y-183598787D01*
X136726292Y-183503603D01*
X136851514Y-183436671D01*
X136923097Y-183192702D01*
X136909060Y-183178665D01*
X147175000Y-183178665D01*
X147175000Y-183461335D01*
X147230147Y-183738574D01*
X147338320Y-183999727D01*
X147495363Y-184234759D01*
X147695241Y-184434637D01*
X147930273Y-184591680D01*
X148191426Y-184699853D01*
X148468665Y-184755000D01*
X148751335Y-184755000D01*
X149028574Y-184699853D01*
X149289727Y-184591680D01*
X149524759Y-184434637D01*
X149724637Y-184234759D01*
X149881680Y-183999727D01*
X149989853Y-183738574D01*
X150045000Y-183461335D01*
X150045000Y-183178665D01*
X149989853Y-182901426D01*
X149881680Y-182640273D01*
X149724637Y-182405241D01*
X149524759Y-182205363D01*
X149289727Y-182048320D01*
X149028574Y-181940147D01*
X148751335Y-181885000D01*
X148468665Y-181885000D01*
X148191426Y-181940147D01*
X147930273Y-182048320D01*
X147695241Y-182205363D01*
X147495363Y-182405241D01*
X147338320Y-182640273D01*
X147230147Y-182901426D01*
X147175000Y-183178665D01*
X136909060Y-183178665D01*
X136110000Y-182379605D01*
X135296903Y-183192702D01*
X132810000Y-183192702D01*
X132810000Y-182270512D01*
X134669783Y-182270512D01*
X134711213Y-182550130D01*
X134806397Y-182816292D01*
X134873329Y-182941514D01*
X135117298Y-183013097D01*
X135930395Y-182200000D01*
X136289605Y-182200000D01*
X137102702Y-183013097D01*
X137346671Y-182941514D01*
X137467571Y-182686004D01*
X137536300Y-182411816D01*
X137550217Y-182129488D01*
X137508787Y-181849870D01*
X137413603Y-181583708D01*
X137346671Y-181458486D01*
X137102702Y-181386903D01*
X136289605Y-182200000D01*
X135930395Y-182200000D01*
X135117298Y-181386903D01*
X134873329Y-181458486D01*
X134752429Y-181713996D01*
X134683700Y-181988184D01*
X134669783Y-182270512D01*
X132810000Y-182270512D01*
X132810000Y-181207298D01*
X135296903Y-181207298D01*
X136110000Y-182020395D01*
X136923097Y-181207298D01*
X136851514Y-180963329D01*
X136596004Y-180842429D01*
X136321816Y-180773700D01*
X136039488Y-180759783D01*
X135759870Y-180801213D01*
X135493708Y-180896397D01*
X135368486Y-180963329D01*
X135296903Y-181207298D01*
X132810000Y-181207298D01*
X132810000Y-179548816D01*
X139795000Y-179548816D01*
X139795000Y-179851184D01*
X139853989Y-180147743D01*
X139969701Y-180427095D01*
X140137688Y-180678505D01*
X140351495Y-180892312D01*
X140602905Y-181060299D01*
X140882257Y-181176011D01*
X141178816Y-181235000D01*
X141481184Y-181235000D01*
X141777743Y-181176011D01*
X142057095Y-181060299D01*
X142308505Y-180892312D01*
X142374944Y-180825873D01*
X142380498Y-180844180D01*
X142439463Y-180954494D01*
X142518815Y-181051185D01*
X142615506Y-181130537D01*
X142725820Y-181189502D01*
X142845518Y-181225812D01*
X142970000Y-181238072D01*
X143584250Y-181235000D01*
X143743000Y-181076250D01*
X143743000Y-179827000D01*
X143997000Y-179827000D01*
X143997000Y-181076250D01*
X144155750Y-181235000D01*
X144770000Y-181238072D01*
X144894482Y-181225812D01*
X145014180Y-181189502D01*
X145124494Y-181130537D01*
X145221185Y-181051185D01*
X145300537Y-180954494D01*
X145359502Y-180844180D01*
X145395812Y-180724482D01*
X145408072Y-180600000D01*
X145405000Y-179985750D01*
X145246250Y-179827000D01*
X143997000Y-179827000D01*
X143743000Y-179827000D01*
X143723000Y-179827000D01*
X143723000Y-179573000D01*
X143743000Y-179573000D01*
X143743000Y-178323750D01*
X143997000Y-178323750D01*
X143997000Y-179573000D01*
X145246250Y-179573000D01*
X145405000Y-179414250D01*
X145408072Y-178800000D01*
X145395812Y-178675518D01*
X145359502Y-178555820D01*
X145300537Y-178445506D01*
X145221185Y-178348815D01*
X145124494Y-178269463D01*
X145014180Y-178210498D01*
X144894482Y-178174188D01*
X144770000Y-178161928D01*
X144155750Y-178165000D01*
X143997000Y-178323750D01*
X143743000Y-178323750D01*
X143584250Y-178165000D01*
X142970000Y-178161928D01*
X142845518Y-178174188D01*
X142725820Y-178210498D01*
X142615506Y-178269463D01*
X142518815Y-178348815D01*
X142439463Y-178445506D01*
X142380498Y-178555820D01*
X142374944Y-178574127D01*
X142308505Y-178507688D01*
X142057095Y-178339701D01*
X141777743Y-178223989D01*
X141481184Y-178165000D01*
X141178816Y-178165000D01*
X140882257Y-178223989D01*
X140602905Y-178339701D01*
X140351495Y-178507688D01*
X140137688Y-178721495D01*
X139969701Y-178972905D01*
X139853989Y-179252257D01*
X139795000Y-179548816D01*
X132810000Y-179548816D01*
X132810000Y-168300000D01*
X133052892Y-168300000D01*
X133057500Y-168346785D01*
X133057501Y-175053205D01*
X133052892Y-175100000D01*
X133071283Y-175286722D01*
X133125749Y-175466269D01*
X133214195Y-175631741D01*
X133333223Y-175776778D01*
X133369565Y-175806603D01*
X134675000Y-177112038D01*
X134675000Y-177341335D01*
X134730147Y-177618574D01*
X134838320Y-177879727D01*
X134995363Y-178114759D01*
X135195241Y-178314637D01*
X135430273Y-178471680D01*
X135691426Y-178579853D01*
X135968665Y-178635000D01*
X136251335Y-178635000D01*
X136528574Y-178579853D01*
X136789727Y-178471680D01*
X137024759Y-178314637D01*
X137224637Y-178114759D01*
X137381680Y-177879727D01*
X137489853Y-177618574D01*
X137545000Y-177341335D01*
X137545000Y-177058665D01*
X137489853Y-176781426D01*
X137381680Y-176520273D01*
X137224637Y-176285241D01*
X137024759Y-176085363D01*
X136789727Y-175928320D01*
X136528574Y-175820147D01*
X136251335Y-175765000D01*
X136022038Y-175765000D01*
X135157038Y-174900000D01*
X147171928Y-174900000D01*
X147171928Y-176500000D01*
X147184188Y-176624482D01*
X147220498Y-176744180D01*
X147279463Y-176854494D01*
X147358815Y-176951185D01*
X147455506Y-177030537D01*
X147565820Y-177089502D01*
X147685518Y-177125812D01*
X147810000Y-177138072D01*
X149410000Y-177138072D01*
X149534482Y-177125812D01*
X149654180Y-177089502D01*
X149764494Y-177030537D01*
X149861185Y-176951185D01*
X149940537Y-176854494D01*
X149999502Y-176744180D01*
X150035812Y-176624482D01*
X150048072Y-176500000D01*
X150048072Y-174900000D01*
X150035812Y-174775518D01*
X149999502Y-174655820D01*
X149940537Y-174545506D01*
X149861185Y-174448815D01*
X149764494Y-174369463D01*
X149654180Y-174310498D01*
X149534482Y-174274188D01*
X149410000Y-174261928D01*
X147810000Y-174261928D01*
X147685518Y-174274188D01*
X147565820Y-174310498D01*
X147455506Y-174369463D01*
X147358815Y-174448815D01*
X147279463Y-174545506D01*
X147220498Y-174655820D01*
X147184188Y-174775518D01*
X147171928Y-174900000D01*
X135157038Y-174900000D01*
X134962500Y-174705462D01*
X134962500Y-171565852D01*
X137015001Y-171565852D01*
X137015001Y-172134148D01*
X137125870Y-172691523D01*
X137343347Y-173216560D01*
X137659075Y-173689080D01*
X138060921Y-174090926D01*
X138533441Y-174406654D01*
X139058478Y-174624131D01*
X139615853Y-174735000D01*
X140184149Y-174735000D01*
X140741524Y-174624131D01*
X141266561Y-174406654D01*
X141739081Y-174090926D01*
X142140927Y-173689080D01*
X142456655Y-173216560D01*
X142674132Y-172691523D01*
X142724163Y-172440000D01*
X144251929Y-172440000D01*
X144264189Y-172564482D01*
X144300499Y-172684180D01*
X144359464Y-172794494D01*
X144438816Y-172891185D01*
X144535507Y-172970537D01*
X144645821Y-173029502D01*
X144765519Y-173065812D01*
X144890001Y-173078072D01*
X146854251Y-173075000D01*
X147013001Y-172916250D01*
X147013001Y-170317000D01*
X147267001Y-170317000D01*
X147267001Y-172916250D01*
X147425751Y-173075000D01*
X149390001Y-173078072D01*
X149514483Y-173065812D01*
X149634181Y-173029502D01*
X149744495Y-172970537D01*
X149841186Y-172891185D01*
X149920538Y-172794494D01*
X149979503Y-172684180D01*
X150015813Y-172564482D01*
X150028073Y-172440000D01*
X150025001Y-170475750D01*
X149866251Y-170317000D01*
X147267001Y-170317000D01*
X147013001Y-170317000D01*
X144413751Y-170317000D01*
X144255001Y-170475750D01*
X144251929Y-172440000D01*
X142724163Y-172440000D01*
X142785001Y-172134148D01*
X142785001Y-171565852D01*
X142674132Y-171008477D01*
X142456655Y-170483440D01*
X142140927Y-170010920D01*
X141739081Y-169609074D01*
X141266561Y-169293346D01*
X140741524Y-169075869D01*
X140184149Y-168965000D01*
X139615853Y-168965000D01*
X139058478Y-169075869D01*
X138533441Y-169293346D01*
X138060921Y-169609074D01*
X137659075Y-170010920D01*
X137343347Y-170483440D01*
X137125870Y-171008477D01*
X137015001Y-171565852D01*
X134962500Y-171565852D01*
X134962500Y-168694538D01*
X134998975Y-168658063D01*
X135158478Y-168724131D01*
X135715853Y-168835000D01*
X136284149Y-168835000D01*
X136841524Y-168724131D01*
X137366561Y-168506654D01*
X137839081Y-168190926D01*
X138090007Y-167940000D01*
X144251929Y-167940000D01*
X144255001Y-169904250D01*
X144413751Y-170063000D01*
X147013001Y-170063000D01*
X147013001Y-167463750D01*
X147267001Y-167463750D01*
X147267001Y-170063000D01*
X149866251Y-170063000D01*
X150025001Y-169904250D01*
X150028073Y-167940000D01*
X150015813Y-167815518D01*
X149979503Y-167695820D01*
X149920538Y-167585506D01*
X149841186Y-167488815D01*
X149744495Y-167409463D01*
X149634181Y-167350498D01*
X149514483Y-167314188D01*
X149390001Y-167301928D01*
X147425751Y-167305000D01*
X147267001Y-167463750D01*
X147013001Y-167463750D01*
X146854251Y-167305000D01*
X144890001Y-167301928D01*
X144765519Y-167314188D01*
X144645821Y-167350498D01*
X144535507Y-167409463D01*
X144438816Y-167488815D01*
X144359464Y-167585506D01*
X144300499Y-167695820D01*
X144264189Y-167815518D01*
X144251929Y-167940000D01*
X138090007Y-167940000D01*
X138240927Y-167789080D01*
X138556655Y-167316560D01*
X138774132Y-166791523D01*
X138885001Y-166234148D01*
X138885001Y-165665852D01*
X138774132Y-165108477D01*
X138556655Y-164583440D01*
X138240927Y-164110920D01*
X137839081Y-163709074D01*
X137366561Y-163393346D01*
X136962500Y-163225979D01*
X136962500Y-162665852D01*
X145915001Y-162665852D01*
X145915001Y-163234148D01*
X146025870Y-163791523D01*
X146243347Y-164316560D01*
X146559075Y-164789080D01*
X146960921Y-165190926D01*
X147433441Y-165506654D01*
X147958478Y-165724131D01*
X148515853Y-165835000D01*
X149084149Y-165835000D01*
X149641524Y-165724131D01*
X150166561Y-165506654D01*
X150639081Y-165190926D01*
X151040927Y-164789080D01*
X151356655Y-164316560D01*
X151574132Y-163791523D01*
X151685001Y-163234148D01*
X151685001Y-162665852D01*
X151574132Y-162108477D01*
X151356655Y-161583440D01*
X151040927Y-161110920D01*
X150639081Y-160709074D01*
X150166561Y-160393346D01*
X149641524Y-160175869D01*
X149084149Y-160065000D01*
X148515853Y-160065000D01*
X147958478Y-160175869D01*
X147433441Y-160393346D01*
X146960921Y-160709074D01*
X146559075Y-161110920D01*
X146243347Y-161583440D01*
X146025870Y-162108477D01*
X145915001Y-162665852D01*
X136962500Y-162665852D01*
X136962500Y-158765852D01*
X140015001Y-158765852D01*
X140015001Y-159334148D01*
X140125870Y-159891523D01*
X140343347Y-160416560D01*
X140659075Y-160889080D01*
X141060921Y-161290926D01*
X141533441Y-161606654D01*
X142058478Y-161824131D01*
X142615853Y-161935000D01*
X143184149Y-161935000D01*
X143741524Y-161824131D01*
X144266561Y-161606654D01*
X144739081Y-161290926D01*
X145140927Y-160889080D01*
X145456655Y-160416560D01*
X145674132Y-159891523D01*
X145785001Y-159334148D01*
X145785001Y-158765852D01*
X145674132Y-158208477D01*
X145456655Y-157683440D01*
X145140927Y-157210920D01*
X144739081Y-156809074D01*
X144266561Y-156493346D01*
X143741524Y-156275869D01*
X143184149Y-156165000D01*
X142615853Y-156165000D01*
X142058478Y-156275869D01*
X141533441Y-156493346D01*
X141060921Y-156809074D01*
X140659075Y-157210920D01*
X140343347Y-157683440D01*
X140125870Y-158208477D01*
X140015001Y-158765852D01*
X136962500Y-158765852D01*
X136962500Y-156204538D01*
X138836213Y-154330825D01*
X139350000Y-154330825D01*
X139350000Y-154569175D01*
X139396499Y-154802944D01*
X139487712Y-155023150D01*
X139620131Y-155221330D01*
X139788670Y-155389869D01*
X139986850Y-155522288D01*
X140207056Y-155613501D01*
X140440825Y-155660000D01*
X140679175Y-155660000D01*
X140912944Y-155613501D01*
X141133150Y-155522288D01*
X141331330Y-155389869D01*
X141499869Y-155221330D01*
X141632288Y-155023150D01*
X141723501Y-154802944D01*
X141770000Y-154569175D01*
X141770000Y-154330825D01*
X141736519Y-154162500D01*
X143146928Y-154162500D01*
X143146928Y-154737500D01*
X143164713Y-154918070D01*
X143217383Y-155091701D01*
X143302915Y-155251720D01*
X143418022Y-155391978D01*
X143558280Y-155507085D01*
X143718299Y-155592617D01*
X143891930Y-155645287D01*
X144072500Y-155663072D01*
X144647500Y-155663072D01*
X144828070Y-155645287D01*
X145001701Y-155592617D01*
X145161720Y-155507085D01*
X145301978Y-155391978D01*
X145417085Y-155251720D01*
X145502617Y-155091701D01*
X145555287Y-154918070D01*
X145573072Y-154737500D01*
X145573072Y-154162500D01*
X145555287Y-153981930D01*
X145502617Y-153808299D01*
X145417085Y-153648280D01*
X145312500Y-153520843D01*
X145312500Y-153484538D01*
X146394539Y-152402500D01*
X149283104Y-152402500D01*
X149445241Y-152564637D01*
X149680273Y-152721680D01*
X149941426Y-152829853D01*
X150218665Y-152885000D01*
X150501335Y-152885000D01*
X150778574Y-152829853D01*
X151039727Y-152721680D01*
X151274759Y-152564637D01*
X151474637Y-152364759D01*
X151631680Y-152129727D01*
X151739853Y-151868574D01*
X151795000Y-151591335D01*
X151795000Y-151308665D01*
X151739853Y-151031426D01*
X151631680Y-150770273D01*
X151474637Y-150535241D01*
X151274759Y-150335363D01*
X151039727Y-150178320D01*
X150778574Y-150070147D01*
X150501335Y-150015000D01*
X150218665Y-150015000D01*
X149941426Y-150070147D01*
X149680273Y-150178320D01*
X149445241Y-150335363D01*
X149283104Y-150497500D01*
X146046784Y-150497500D01*
X145999999Y-150492892D01*
X145813277Y-150511283D01*
X145633731Y-150565748D01*
X145468259Y-150654194D01*
X145323222Y-150773222D01*
X145293397Y-150809564D01*
X143719564Y-152383398D01*
X143683223Y-152413222D01*
X143653399Y-152449563D01*
X143564194Y-152558260D01*
X143475749Y-152723731D01*
X143421283Y-152903278D01*
X143402892Y-153090000D01*
X143407501Y-153136794D01*
X143407501Y-153520842D01*
X143302915Y-153648280D01*
X143217383Y-153808299D01*
X143164713Y-153981930D01*
X143146928Y-154162500D01*
X141736519Y-154162500D01*
X141723501Y-154097056D01*
X141632288Y-153876850D01*
X141499869Y-153678670D01*
X141331330Y-153510131D01*
X141133150Y-153377712D01*
X140912944Y-153286499D01*
X140679175Y-153240000D01*
X140440825Y-153240000D01*
X140207056Y-153286499D01*
X139986850Y-153377712D01*
X139788670Y-153510131D01*
X139620131Y-153678670D01*
X139487712Y-153876850D01*
X139396499Y-154097056D01*
X139350000Y-154330825D01*
X138836213Y-154330825D01*
X142600436Y-150566603D01*
X142636778Y-150536778D01*
X142755806Y-150391741D01*
X142800029Y-150309005D01*
X142844252Y-150226270D01*
X142898717Y-150046722D01*
X142901842Y-150015000D01*
X142912500Y-149906785D01*
X142917108Y-149860000D01*
X142912500Y-149813215D01*
X142912500Y-141639040D01*
X148968091Y-141639040D01*
X149062930Y-141903881D01*
X149207615Y-142145131D01*
X149396586Y-142353519D01*
X149622580Y-142521037D01*
X149876913Y-142641246D01*
X150010961Y-142681904D01*
X150233000Y-142559915D01*
X150233000Y-141417000D01*
X150487000Y-141417000D01*
X150487000Y-142559915D01*
X150709039Y-142681904D01*
X150843087Y-142641246D01*
X151097420Y-142521037D01*
X151323414Y-142353519D01*
X151512385Y-142145131D01*
X151657070Y-141903881D01*
X151751909Y-141639040D01*
X151630624Y-141417000D01*
X150487000Y-141417000D01*
X150233000Y-141417000D01*
X149089376Y-141417000D01*
X148968091Y-141639040D01*
X142912500Y-141639040D01*
X142912500Y-141536785D01*
X142917108Y-141490000D01*
X142898717Y-141303278D01*
X142844252Y-141123730D01*
X142794914Y-141031426D01*
X142755806Y-140958259D01*
X142741610Y-140940960D01*
X148968091Y-140940960D01*
X149089376Y-141163000D01*
X150233000Y-141163000D01*
X150233000Y-140020085D01*
X150487000Y-140020085D01*
X150487000Y-141163000D01*
X151630624Y-141163000D01*
X151751909Y-140940960D01*
X151657070Y-140676119D01*
X151512385Y-140434869D01*
X151323414Y-140226481D01*
X151097420Y-140058963D01*
X150843087Y-139938754D01*
X150709039Y-139898096D01*
X150487000Y-140020085D01*
X150233000Y-140020085D01*
X150010961Y-139898096D01*
X149876913Y-139938754D01*
X149622580Y-140058963D01*
X149396586Y-140226481D01*
X149207615Y-140434869D01*
X149062930Y-140676119D01*
X148968091Y-140940960D01*
X142741610Y-140940960D01*
X142636778Y-140813222D01*
X142600431Y-140783393D01*
X141147863Y-139330825D01*
X143790000Y-139330825D01*
X143790000Y-139569175D01*
X143836499Y-139802944D01*
X143927712Y-140023150D01*
X144060131Y-140221330D01*
X144228670Y-140389869D01*
X144426850Y-140522288D01*
X144647056Y-140613501D01*
X144880825Y-140660000D01*
X145119175Y-140660000D01*
X145352944Y-140613501D01*
X145573150Y-140522288D01*
X145771330Y-140389869D01*
X145939869Y-140221330D01*
X146072288Y-140023150D01*
X146163501Y-139802944D01*
X146210000Y-139569175D01*
X146210000Y-139330825D01*
X146163501Y-139097056D01*
X146072288Y-138876850D01*
X145939869Y-138678670D01*
X145771330Y-138510131D01*
X145573150Y-138377712D01*
X145352944Y-138286499D01*
X145119175Y-138240000D01*
X144880825Y-138240000D01*
X144647056Y-138286499D01*
X144426850Y-138377712D01*
X144228670Y-138510131D01*
X144060131Y-138678670D01*
X143927712Y-138876850D01*
X143836499Y-139097056D01*
X143790000Y-139330825D01*
X141147863Y-139330825D01*
X141125565Y-139308527D01*
X141083501Y-139097056D01*
X140992288Y-138876850D01*
X140859869Y-138678670D01*
X140691330Y-138510131D01*
X140493150Y-138377712D01*
X140272944Y-138286499D01*
X140039175Y-138240000D01*
X139800825Y-138240000D01*
X139567056Y-138286499D01*
X139346850Y-138377712D01*
X139148670Y-138510131D01*
X138980131Y-138678670D01*
X138847712Y-138876850D01*
X138756499Y-139097056D01*
X138710000Y-139330825D01*
X138710000Y-139569175D01*
X138756499Y-139802944D01*
X138847712Y-140023150D01*
X138980131Y-140221330D01*
X139148670Y-140389869D01*
X139346850Y-140522288D01*
X139567056Y-140613501D01*
X139778527Y-140655565D01*
X141007500Y-141884538D01*
X141007501Y-149465460D01*
X135369569Y-155103393D01*
X135333222Y-155133222D01*
X135214194Y-155278259D01*
X135125748Y-155443732D01*
X135080584Y-155592617D01*
X135071283Y-155623278D01*
X135052892Y-155810000D01*
X135057500Y-155856785D01*
X135057501Y-163217695D01*
X134633441Y-163393346D01*
X134160921Y-163709074D01*
X133759075Y-164110920D01*
X133443347Y-164583440D01*
X133225870Y-165108477D01*
X133115001Y-165665852D01*
X133115001Y-166234148D01*
X133225870Y-166791523D01*
X133443347Y-167316560D01*
X133524679Y-167438282D01*
X133369569Y-167593393D01*
X133333222Y-167623222D01*
X133214194Y-167768259D01*
X133125748Y-167933732D01*
X133123847Y-167940000D01*
X133071283Y-168113278D01*
X133052892Y-168300000D01*
X132810000Y-168300000D01*
X132810000Y-151468665D01*
X133175000Y-151468665D01*
X133175000Y-151751335D01*
X133230147Y-152028574D01*
X133338320Y-152289727D01*
X133495363Y-152524759D01*
X133695241Y-152724637D01*
X133930273Y-152881680D01*
X134191426Y-152989853D01*
X134468665Y-153045000D01*
X134751335Y-153045000D01*
X135028574Y-152989853D01*
X135289727Y-152881680D01*
X135524759Y-152724637D01*
X135724637Y-152524759D01*
X135881680Y-152289727D01*
X135989853Y-152028574D01*
X136045000Y-151751335D01*
X136045000Y-151468665D01*
X135989853Y-151191426D01*
X135881680Y-150930273D01*
X135724637Y-150695241D01*
X135524759Y-150495363D01*
X135289727Y-150338320D01*
X135028574Y-150230147D01*
X134751335Y-150175000D01*
X134468665Y-150175000D01*
X134191426Y-150230147D01*
X133930273Y-150338320D01*
X133695241Y-150495363D01*
X133495363Y-150695241D01*
X133338320Y-150930273D01*
X133230147Y-151191426D01*
X133175000Y-151468665D01*
X132810000Y-151468665D01*
X132810000Y-141308665D01*
X133175000Y-141308665D01*
X133175000Y-141591335D01*
X133230147Y-141868574D01*
X133338320Y-142129727D01*
X133495363Y-142364759D01*
X133695241Y-142564637D01*
X133930273Y-142721680D01*
X134191426Y-142829853D01*
X134468665Y-142885000D01*
X134751335Y-142885000D01*
X135028574Y-142829853D01*
X135289727Y-142721680D01*
X135524759Y-142564637D01*
X135724637Y-142364759D01*
X135881680Y-142129727D01*
X135989853Y-141868574D01*
X136045000Y-141591335D01*
X136045000Y-141308665D01*
X135989853Y-141031426D01*
X135881680Y-140770273D01*
X135724637Y-140535241D01*
X135524759Y-140335363D01*
X135289727Y-140178320D01*
X135028574Y-140070147D01*
X134751335Y-140015000D01*
X134468665Y-140015000D01*
X134191426Y-140070147D01*
X133930273Y-140178320D01*
X133695241Y-140335363D01*
X133495363Y-140535241D01*
X133338320Y-140770273D01*
X133230147Y-141031426D01*
X133175000Y-141308665D01*
X132810000Y-141308665D01*
X132810000Y-132815852D01*
X137015001Y-132815852D01*
X137015001Y-133384148D01*
X137125870Y-133941523D01*
X137343347Y-134466560D01*
X137659075Y-134939080D01*
X138060921Y-135340926D01*
X138533441Y-135656654D01*
X139058478Y-135874131D01*
X139615853Y-135985000D01*
X140184149Y-135985000D01*
X140741524Y-135874131D01*
X141266561Y-135656654D01*
X141739081Y-135340926D01*
X142140927Y-134939080D01*
X142456655Y-134466560D01*
X142674132Y-133941523D01*
X142724163Y-133690000D01*
X144251929Y-133690000D01*
X144264189Y-133814482D01*
X144300499Y-133934180D01*
X144359464Y-134044494D01*
X144438816Y-134141185D01*
X144535507Y-134220537D01*
X144645821Y-134279502D01*
X144765519Y-134315812D01*
X144890001Y-134328072D01*
X146854251Y-134325000D01*
X147013001Y-134166250D01*
X147013001Y-131567000D01*
X147267001Y-131567000D01*
X147267001Y-134166250D01*
X147425751Y-134325000D01*
X149390001Y-134328072D01*
X149514483Y-134315812D01*
X149634181Y-134279502D01*
X149744495Y-134220537D01*
X149841186Y-134141185D01*
X149920538Y-134044494D01*
X149979503Y-133934180D01*
X150015813Y-133814482D01*
X150028073Y-133690000D01*
X150025001Y-131725750D01*
X149866251Y-131567000D01*
X147267001Y-131567000D01*
X147013001Y-131567000D01*
X144413751Y-131567000D01*
X144255001Y-131725750D01*
X144251929Y-133690000D01*
X142724163Y-133690000D01*
X142785001Y-133384148D01*
X142785001Y-132815852D01*
X142674132Y-132258477D01*
X142456655Y-131733440D01*
X142140927Y-131260920D01*
X141739081Y-130859074D01*
X141266561Y-130543346D01*
X140741524Y-130325869D01*
X140184149Y-130215000D01*
X139615853Y-130215000D01*
X139058478Y-130325869D01*
X138533441Y-130543346D01*
X138060921Y-130859074D01*
X137659075Y-131260920D01*
X137343347Y-131733440D01*
X137125870Y-132258477D01*
X137015001Y-132815852D01*
X132810000Y-132815852D01*
X132810000Y-126915852D01*
X133115001Y-126915852D01*
X133115001Y-127484148D01*
X133225870Y-128041523D01*
X133443347Y-128566560D01*
X133759075Y-129039080D01*
X134160921Y-129440926D01*
X134633441Y-129756654D01*
X135158478Y-129974131D01*
X135715853Y-130085000D01*
X136284149Y-130085000D01*
X136841524Y-129974131D01*
X137366561Y-129756654D01*
X137839081Y-129440926D01*
X138090007Y-129190000D01*
X144251929Y-129190000D01*
X144255001Y-131154250D01*
X144413751Y-131313000D01*
X147013001Y-131313000D01*
X147013001Y-128713750D01*
X147267001Y-128713750D01*
X147267001Y-131313000D01*
X149866251Y-131313000D01*
X150025001Y-131154250D01*
X150028073Y-129190000D01*
X150015813Y-129065518D01*
X149979503Y-128945820D01*
X149920538Y-128835506D01*
X149841186Y-128738815D01*
X149744495Y-128659463D01*
X149634181Y-128600498D01*
X149514483Y-128564188D01*
X149390001Y-128551928D01*
X147425751Y-128555000D01*
X147267001Y-128713750D01*
X147013001Y-128713750D01*
X146854251Y-128555000D01*
X144890001Y-128551928D01*
X144765519Y-128564188D01*
X144645821Y-128600498D01*
X144535507Y-128659463D01*
X144438816Y-128738815D01*
X144359464Y-128835506D01*
X144300499Y-128945820D01*
X144264189Y-129065518D01*
X144251929Y-129190000D01*
X138090007Y-129190000D01*
X138240927Y-129039080D01*
X138556655Y-128566560D01*
X138774132Y-128041523D01*
X138885001Y-127484148D01*
X138885001Y-126915852D01*
X138774132Y-126358477D01*
X138556655Y-125833440D01*
X138240927Y-125360920D01*
X137839081Y-124959074D01*
X137366561Y-124643346D01*
X136841524Y-124425869D01*
X136284149Y-124315000D01*
X135715853Y-124315000D01*
X135158478Y-124425869D01*
X134633441Y-124643346D01*
X134160921Y-124959074D01*
X133759075Y-125360920D01*
X133443347Y-125833440D01*
X133225870Y-126358477D01*
X133115001Y-126915852D01*
X132810000Y-126915852D01*
X132810000Y-123915852D01*
X145915001Y-123915852D01*
X145915001Y-124484148D01*
X146025870Y-125041523D01*
X146243347Y-125566560D01*
X146559075Y-126039080D01*
X146960921Y-126440926D01*
X147433441Y-126756654D01*
X147958478Y-126974131D01*
X148515853Y-127085000D01*
X149084149Y-127085000D01*
X149641524Y-126974131D01*
X150166561Y-126756654D01*
X150639081Y-126440926D01*
X151040927Y-126039080D01*
X151356655Y-125566560D01*
X151574132Y-125041523D01*
X151685001Y-124484148D01*
X151685001Y-123915852D01*
X151574132Y-123358477D01*
X151356655Y-122833440D01*
X151040927Y-122360920D01*
X150639081Y-121959074D01*
X150166561Y-121643346D01*
X149641524Y-121425869D01*
X149084149Y-121315000D01*
X148515853Y-121315000D01*
X147958478Y-121425869D01*
X147433441Y-121643346D01*
X146960921Y-121959074D01*
X146559075Y-122360920D01*
X146243347Y-122833440D01*
X146025870Y-123358477D01*
X145915001Y-123915852D01*
X132810000Y-123915852D01*
X132810000Y-120015852D01*
X140015001Y-120015852D01*
X140015001Y-120584148D01*
X140125870Y-121141523D01*
X140343347Y-121666560D01*
X140659075Y-122139080D01*
X141060921Y-122540926D01*
X141533441Y-122856654D01*
X142058478Y-123074131D01*
X142615853Y-123185000D01*
X143184149Y-123185000D01*
X143741524Y-123074131D01*
X144266561Y-122856654D01*
X144739081Y-122540926D01*
X145140927Y-122139080D01*
X145456655Y-121666560D01*
X145674132Y-121141523D01*
X145785001Y-120584148D01*
X145785001Y-120015852D01*
X145674132Y-119458477D01*
X145456655Y-118933440D01*
X145140927Y-118460920D01*
X144739081Y-118059074D01*
X144266561Y-117743346D01*
X143741524Y-117525869D01*
X143184149Y-117415000D01*
X142615853Y-117415000D01*
X142058478Y-117525869D01*
X141533441Y-117743346D01*
X141060921Y-118059074D01*
X140659075Y-118460920D01*
X140343347Y-118933440D01*
X140125870Y-119458477D01*
X140015001Y-120015852D01*
X132810000Y-120015852D01*
X132810000Y-113465852D01*
X137015001Y-113465852D01*
X137015001Y-114034148D01*
X137125870Y-114591523D01*
X137343347Y-115116560D01*
X137659075Y-115589080D01*
X138060921Y-115990926D01*
X138533441Y-116306654D01*
X139058478Y-116524131D01*
X139615853Y-116635000D01*
X140184149Y-116635000D01*
X140741524Y-116524131D01*
X141266561Y-116306654D01*
X141739081Y-115990926D01*
X142140927Y-115589080D01*
X142456655Y-115116560D01*
X142674132Y-114591523D01*
X142724163Y-114340000D01*
X144251929Y-114340000D01*
X144264189Y-114464482D01*
X144300499Y-114584180D01*
X144359464Y-114694494D01*
X144438816Y-114791185D01*
X144535507Y-114870537D01*
X144645821Y-114929502D01*
X144765519Y-114965812D01*
X144890001Y-114978072D01*
X146854251Y-114975000D01*
X147013001Y-114816250D01*
X147013001Y-112217000D01*
X147267001Y-112217000D01*
X147267001Y-114816250D01*
X147425751Y-114975000D01*
X149390001Y-114978072D01*
X149514483Y-114965812D01*
X149634181Y-114929502D01*
X149744495Y-114870537D01*
X149841186Y-114791185D01*
X149920538Y-114694494D01*
X149979503Y-114584180D01*
X150015813Y-114464482D01*
X150028073Y-114340000D01*
X150025001Y-112375750D01*
X149866251Y-112217000D01*
X147267001Y-112217000D01*
X147013001Y-112217000D01*
X144413751Y-112217000D01*
X144255001Y-112375750D01*
X144251929Y-114340000D01*
X142724163Y-114340000D01*
X142785001Y-114034148D01*
X142785001Y-113465852D01*
X142674132Y-112908477D01*
X142456655Y-112383440D01*
X142140927Y-111910920D01*
X141739081Y-111509074D01*
X141266561Y-111193346D01*
X140741524Y-110975869D01*
X140184149Y-110865000D01*
X139615853Y-110865000D01*
X139058478Y-110975869D01*
X138533441Y-111193346D01*
X138060921Y-111509074D01*
X137659075Y-111910920D01*
X137343347Y-112383440D01*
X137125870Y-112908477D01*
X137015001Y-113465852D01*
X132810000Y-113465852D01*
X132810000Y-107565852D01*
X133115001Y-107565852D01*
X133115001Y-108134148D01*
X133225870Y-108691523D01*
X133443347Y-109216560D01*
X133759075Y-109689080D01*
X134160921Y-110090926D01*
X134633441Y-110406654D01*
X135158478Y-110624131D01*
X135715853Y-110735000D01*
X136284149Y-110735000D01*
X136841524Y-110624131D01*
X137366561Y-110406654D01*
X137839081Y-110090926D01*
X138090007Y-109840000D01*
X144251929Y-109840000D01*
X144255001Y-111804250D01*
X144413751Y-111963000D01*
X147013001Y-111963000D01*
X147013001Y-109363750D01*
X147267001Y-109363750D01*
X147267001Y-111963000D01*
X149866251Y-111963000D01*
X150025001Y-111804250D01*
X150028073Y-109840000D01*
X150015813Y-109715518D01*
X149979503Y-109595820D01*
X149920538Y-109485506D01*
X149841186Y-109388815D01*
X149744495Y-109309463D01*
X149634181Y-109250498D01*
X149514483Y-109214188D01*
X149390001Y-109201928D01*
X147425751Y-109205000D01*
X147267001Y-109363750D01*
X147013001Y-109363750D01*
X146854251Y-109205000D01*
X144890001Y-109201928D01*
X144765519Y-109214188D01*
X144645821Y-109250498D01*
X144535507Y-109309463D01*
X144438816Y-109388815D01*
X144359464Y-109485506D01*
X144300499Y-109595820D01*
X144264189Y-109715518D01*
X144251929Y-109840000D01*
X138090007Y-109840000D01*
X138240927Y-109689080D01*
X138556655Y-109216560D01*
X138774132Y-108691523D01*
X138885001Y-108134148D01*
X138885001Y-107565852D01*
X138774132Y-107008477D01*
X138556655Y-106483440D01*
X138240927Y-106010920D01*
X137839081Y-105609074D01*
X137366561Y-105293346D01*
X136841524Y-105075869D01*
X136284149Y-104965000D01*
X135715853Y-104965000D01*
X135158478Y-105075869D01*
X134633441Y-105293346D01*
X134160921Y-105609074D01*
X133759075Y-106010920D01*
X133443347Y-106483440D01*
X133225870Y-107008477D01*
X133115001Y-107565852D01*
X132810000Y-107565852D01*
X132810000Y-104565852D01*
X145915001Y-104565852D01*
X145915001Y-105134148D01*
X146025870Y-105691523D01*
X146243347Y-106216560D01*
X146559075Y-106689080D01*
X146960921Y-107090926D01*
X147433441Y-107406654D01*
X147958478Y-107624131D01*
X148515853Y-107735000D01*
X149084149Y-107735000D01*
X149641524Y-107624131D01*
X150166561Y-107406654D01*
X150639081Y-107090926D01*
X151040927Y-106689080D01*
X151356655Y-106216560D01*
X151574132Y-105691523D01*
X151685001Y-105134148D01*
X151685001Y-104565852D01*
X151574132Y-104008477D01*
X151356655Y-103483440D01*
X151040927Y-103010920D01*
X150639081Y-102609074D01*
X150166561Y-102293346D01*
X149641524Y-102075869D01*
X149084149Y-101965000D01*
X148515853Y-101965000D01*
X147958478Y-102075869D01*
X147433441Y-102293346D01*
X146960921Y-102609074D01*
X146559075Y-103010920D01*
X146243347Y-103483440D01*
X146025870Y-104008477D01*
X145915001Y-104565852D01*
X132810000Y-104565852D01*
X132810000Y-100665852D01*
X140015001Y-100665852D01*
X140015001Y-101234148D01*
X140125870Y-101791523D01*
X140343347Y-102316560D01*
X140659075Y-102789080D01*
X141060921Y-103190926D01*
X141533441Y-103506654D01*
X142058478Y-103724131D01*
X142615853Y-103835000D01*
X143184149Y-103835000D01*
X143741524Y-103724131D01*
X144266561Y-103506654D01*
X144739081Y-103190926D01*
X145140927Y-102789080D01*
X145456655Y-102316560D01*
X145674132Y-101791523D01*
X145785001Y-101234148D01*
X145785001Y-100665852D01*
X145674132Y-100108477D01*
X145456655Y-99583440D01*
X145140927Y-99110920D01*
X144739081Y-98709074D01*
X144266561Y-98393346D01*
X143741524Y-98175869D01*
X143184149Y-98065000D01*
X142615853Y-98065000D01*
X142058478Y-98175869D01*
X141533441Y-98393346D01*
X141060921Y-98709074D01*
X140659075Y-99110920D01*
X140343347Y-99583440D01*
X140125870Y-100108477D01*
X140015001Y-100665852D01*
X132810000Y-100665852D01*
X132810000Y-96842702D01*
X135286903Y-96842702D01*
X135358486Y-97086671D01*
X135613996Y-97207571D01*
X135888184Y-97276300D01*
X136170512Y-97290217D01*
X136450130Y-97248787D01*
X136716292Y-97153603D01*
X136841514Y-97086671D01*
X136913097Y-96842702D01*
X136899060Y-96828665D01*
X147165000Y-96828665D01*
X147165000Y-97111335D01*
X147220147Y-97388574D01*
X147328320Y-97649727D01*
X147485363Y-97884759D01*
X147685241Y-98084637D01*
X147920273Y-98241680D01*
X148181426Y-98349853D01*
X148458665Y-98405000D01*
X148741335Y-98405000D01*
X149018574Y-98349853D01*
X149279727Y-98241680D01*
X149514759Y-98084637D01*
X149714637Y-97884759D01*
X149871680Y-97649727D01*
X149979853Y-97388574D01*
X150035000Y-97111335D01*
X150035000Y-96828665D01*
X149979853Y-96551426D01*
X149871680Y-96290273D01*
X149714637Y-96055241D01*
X149514759Y-95855363D01*
X149279727Y-95698320D01*
X149018574Y-95590147D01*
X148741335Y-95535000D01*
X148458665Y-95535000D01*
X148181426Y-95590147D01*
X147920273Y-95698320D01*
X147685241Y-95855363D01*
X147485363Y-96055241D01*
X147328320Y-96290273D01*
X147220147Y-96551426D01*
X147165000Y-96828665D01*
X136899060Y-96828665D01*
X136100000Y-96029605D01*
X135286903Y-96842702D01*
X132810000Y-96842702D01*
X132810000Y-95920512D01*
X134659783Y-95920512D01*
X134701213Y-96200130D01*
X134796397Y-96466292D01*
X134863329Y-96591514D01*
X135107298Y-96663097D01*
X135920395Y-95850000D01*
X136279605Y-95850000D01*
X137092702Y-96663097D01*
X137336671Y-96591514D01*
X137457571Y-96336004D01*
X137526300Y-96061816D01*
X137540217Y-95779488D01*
X137498787Y-95499870D01*
X137403603Y-95233708D01*
X137336671Y-95108486D01*
X137092702Y-95036903D01*
X136279605Y-95850000D01*
X135920395Y-95850000D01*
X135107298Y-95036903D01*
X134863329Y-95108486D01*
X134742429Y-95363996D01*
X134673700Y-95638184D01*
X134659783Y-95920512D01*
X132810000Y-95920512D01*
X132810000Y-94857298D01*
X135286903Y-94857298D01*
X136100000Y-95670395D01*
X136913097Y-94857298D01*
X136841514Y-94613329D01*
X136586004Y-94492429D01*
X136311816Y-94423700D01*
X136029488Y-94409783D01*
X135749870Y-94451213D01*
X135483708Y-94546397D01*
X135358486Y-94613329D01*
X135286903Y-94857298D01*
X132810000Y-94857298D01*
X132810000Y-93198816D01*
X139795000Y-93198816D01*
X139795000Y-93501184D01*
X139853989Y-93797743D01*
X139969701Y-94077095D01*
X140137688Y-94328505D01*
X140351495Y-94542312D01*
X140602905Y-94710299D01*
X140882257Y-94826011D01*
X141178816Y-94885000D01*
X141481184Y-94885000D01*
X141777743Y-94826011D01*
X142057095Y-94710299D01*
X142308505Y-94542312D01*
X142374944Y-94475873D01*
X142380498Y-94494180D01*
X142439463Y-94604494D01*
X142518815Y-94701185D01*
X142615506Y-94780537D01*
X142725820Y-94839502D01*
X142845518Y-94875812D01*
X142970000Y-94888072D01*
X143584250Y-94885000D01*
X143743000Y-94726250D01*
X143743000Y-93477000D01*
X143997000Y-93477000D01*
X143997000Y-94726250D01*
X144155750Y-94885000D01*
X144770000Y-94888072D01*
X144894482Y-94875812D01*
X145014180Y-94839502D01*
X145124494Y-94780537D01*
X145221185Y-94701185D01*
X145300537Y-94604494D01*
X145359502Y-94494180D01*
X145395812Y-94374482D01*
X145408072Y-94250000D01*
X145405000Y-93635750D01*
X145246250Y-93477000D01*
X143997000Y-93477000D01*
X143743000Y-93477000D01*
X143723000Y-93477000D01*
X143723000Y-93223000D01*
X143743000Y-93223000D01*
X143743000Y-91973750D01*
X143997000Y-91973750D01*
X143997000Y-93223000D01*
X145246250Y-93223000D01*
X145405000Y-93064250D01*
X145408072Y-92450000D01*
X145395812Y-92325518D01*
X145359502Y-92205820D01*
X145300537Y-92095506D01*
X145221185Y-91998815D01*
X145124494Y-91919463D01*
X145014180Y-91860498D01*
X144894482Y-91824188D01*
X144770000Y-91811928D01*
X144155750Y-91815000D01*
X143997000Y-91973750D01*
X143743000Y-91973750D01*
X143584250Y-91815000D01*
X142970000Y-91811928D01*
X142845518Y-91824188D01*
X142725820Y-91860498D01*
X142615506Y-91919463D01*
X142518815Y-91998815D01*
X142439463Y-92095506D01*
X142380498Y-92205820D01*
X142374944Y-92224127D01*
X142308505Y-92157688D01*
X142057095Y-91989701D01*
X141777743Y-91873989D01*
X141481184Y-91815000D01*
X141178816Y-91815000D01*
X140882257Y-91873989D01*
X140602905Y-91989701D01*
X140351495Y-92157688D01*
X140137688Y-92371495D01*
X139969701Y-92622905D01*
X139853989Y-92902257D01*
X139795000Y-93198816D01*
X132810000Y-93198816D01*
X132810000Y-90138816D01*
X132923222Y-90276778D01*
X132959569Y-90306607D01*
X134143397Y-91490436D01*
X134173222Y-91526778D01*
X134318259Y-91645806D01*
X134483731Y-91734252D01*
X134663277Y-91788717D01*
X134850000Y-91807108D01*
X134896785Y-91802500D01*
X135023104Y-91802500D01*
X135185241Y-91964637D01*
X135420273Y-92121680D01*
X135681426Y-92229853D01*
X135958665Y-92285000D01*
X136241335Y-92285000D01*
X136518574Y-92229853D01*
X136779727Y-92121680D01*
X137014759Y-91964637D01*
X137214637Y-91764759D01*
X137371680Y-91529727D01*
X137479853Y-91268574D01*
X137535000Y-90991335D01*
X137535000Y-90708665D01*
X137479853Y-90431426D01*
X137371680Y-90170273D01*
X137214637Y-89935241D01*
X137014759Y-89735363D01*
X136779727Y-89578320D01*
X136518574Y-89470147D01*
X136241335Y-89415000D01*
X135958665Y-89415000D01*
X135681426Y-89470147D01*
X135420273Y-89578320D01*
X135185241Y-89735363D01*
X135133821Y-89786783D01*
X134552500Y-89205462D01*
X134552500Y-88550000D01*
X147161928Y-88550000D01*
X147161928Y-90150000D01*
X147174188Y-90274482D01*
X147210498Y-90394180D01*
X147269463Y-90504494D01*
X147348815Y-90601185D01*
X147445506Y-90680537D01*
X147555820Y-90739502D01*
X147675518Y-90775812D01*
X147800000Y-90788072D01*
X149400000Y-90788072D01*
X149524482Y-90775812D01*
X149644180Y-90739502D01*
X149754494Y-90680537D01*
X149851185Y-90601185D01*
X149930537Y-90504494D01*
X149989502Y-90394180D01*
X150025812Y-90274482D01*
X150038072Y-90150000D01*
X150038072Y-88550000D01*
X150025812Y-88425518D01*
X149989502Y-88305820D01*
X149930537Y-88195506D01*
X149851185Y-88098815D01*
X149754494Y-88019463D01*
X149644180Y-87960498D01*
X149524482Y-87924188D01*
X149400000Y-87911928D01*
X147800000Y-87911928D01*
X147675518Y-87924188D01*
X147555820Y-87960498D01*
X147445506Y-88019463D01*
X147348815Y-88098815D01*
X147269463Y-88195506D01*
X147210498Y-88305820D01*
X147174188Y-88425518D01*
X147161928Y-88550000D01*
X134552500Y-88550000D01*
X134552500Y-85215852D01*
X137015001Y-85215852D01*
X137015001Y-85784148D01*
X137125870Y-86341523D01*
X137343347Y-86866560D01*
X137659075Y-87339080D01*
X138060921Y-87740926D01*
X138533441Y-88056654D01*
X139058478Y-88274131D01*
X139615853Y-88385000D01*
X140184149Y-88385000D01*
X140741524Y-88274131D01*
X141266561Y-88056654D01*
X141739081Y-87740926D01*
X142140927Y-87339080D01*
X142456655Y-86866560D01*
X142674132Y-86341523D01*
X142724163Y-86090000D01*
X144251929Y-86090000D01*
X144264189Y-86214482D01*
X144300499Y-86334180D01*
X144359464Y-86444494D01*
X144438816Y-86541185D01*
X144535507Y-86620537D01*
X144645821Y-86679502D01*
X144765519Y-86715812D01*
X144890001Y-86728072D01*
X146854251Y-86725000D01*
X147013001Y-86566250D01*
X147013001Y-83967000D01*
X147267001Y-83967000D01*
X147267001Y-86566250D01*
X147425751Y-86725000D01*
X149390001Y-86728072D01*
X149514483Y-86715812D01*
X149634181Y-86679502D01*
X149744495Y-86620537D01*
X149841186Y-86541185D01*
X149920538Y-86444494D01*
X149979503Y-86334180D01*
X150015813Y-86214482D01*
X150028073Y-86090000D01*
X150025001Y-84125750D01*
X149866251Y-83967000D01*
X147267001Y-83967000D01*
X147013001Y-83967000D01*
X144413751Y-83967000D01*
X144255001Y-84125750D01*
X144251929Y-86090000D01*
X142724163Y-86090000D01*
X142785001Y-85784148D01*
X142785001Y-85215852D01*
X142674132Y-84658477D01*
X142456655Y-84133440D01*
X142140927Y-83660920D01*
X141739081Y-83259074D01*
X141266561Y-82943346D01*
X140741524Y-82725869D01*
X140184149Y-82615000D01*
X139615853Y-82615000D01*
X139058478Y-82725869D01*
X138533441Y-82943346D01*
X138060921Y-83259074D01*
X137659075Y-83660920D01*
X137343347Y-84133440D01*
X137125870Y-84658477D01*
X137015001Y-85215852D01*
X134552500Y-85215852D01*
X134552500Y-82344538D01*
X134709061Y-82187977D01*
X135158478Y-82374131D01*
X135715853Y-82485000D01*
X136284149Y-82485000D01*
X136841524Y-82374131D01*
X137366561Y-82156654D01*
X137839081Y-81840926D01*
X138090007Y-81590000D01*
X144251929Y-81590000D01*
X144255001Y-83554250D01*
X144413751Y-83713000D01*
X147013001Y-83713000D01*
X147013001Y-81113750D01*
X147267001Y-81113750D01*
X147267001Y-83713000D01*
X149866251Y-83713000D01*
X150025001Y-83554250D01*
X150028073Y-81590000D01*
X150015813Y-81465518D01*
X149979503Y-81345820D01*
X149920538Y-81235506D01*
X149841186Y-81138815D01*
X149744495Y-81059463D01*
X149634181Y-81000498D01*
X149514483Y-80964188D01*
X149390001Y-80951928D01*
X147425751Y-80955000D01*
X147267001Y-81113750D01*
X147013001Y-81113750D01*
X146854251Y-80955000D01*
X144890001Y-80951928D01*
X144765519Y-80964188D01*
X144645821Y-81000498D01*
X144535507Y-81059463D01*
X144438816Y-81138815D01*
X144359464Y-81235506D01*
X144300499Y-81345820D01*
X144264189Y-81465518D01*
X144251929Y-81590000D01*
X138090007Y-81590000D01*
X138240927Y-81439080D01*
X138556655Y-80966560D01*
X138774132Y-80441523D01*
X138885001Y-79884148D01*
X138885001Y-79315852D01*
X138774132Y-78758477D01*
X138556655Y-78233440D01*
X138240927Y-77760920D01*
X137839081Y-77359074D01*
X137366561Y-77043346D01*
X136902500Y-76851126D01*
X136902500Y-76315852D01*
X145915001Y-76315852D01*
X145915001Y-76884148D01*
X146025870Y-77441523D01*
X146243347Y-77966560D01*
X146559075Y-78439080D01*
X146960921Y-78840926D01*
X147433441Y-79156654D01*
X147958478Y-79374131D01*
X148515853Y-79485000D01*
X149084149Y-79485000D01*
X149641524Y-79374131D01*
X150166561Y-79156654D01*
X150639081Y-78840926D01*
X151040927Y-78439080D01*
X151356655Y-77966560D01*
X151574132Y-77441523D01*
X151685001Y-76884148D01*
X151685001Y-76315852D01*
X151574132Y-75758477D01*
X151356655Y-75233440D01*
X151040927Y-74760920D01*
X150639081Y-74359074D01*
X150166561Y-74043346D01*
X149641524Y-73825869D01*
X149084149Y-73715000D01*
X148515853Y-73715000D01*
X147958478Y-73825869D01*
X147433441Y-74043346D01*
X146960921Y-74359074D01*
X146559075Y-74760920D01*
X146243347Y-75233440D01*
X146025870Y-75758477D01*
X145915001Y-76315852D01*
X136902500Y-76315852D01*
X136902500Y-72415852D01*
X140015001Y-72415852D01*
X140015001Y-72984148D01*
X140125870Y-73541523D01*
X140343347Y-74066560D01*
X140659075Y-74539080D01*
X141060921Y-74940926D01*
X141533441Y-75256654D01*
X142058478Y-75474131D01*
X142615853Y-75585000D01*
X143184149Y-75585000D01*
X143741524Y-75474131D01*
X144266561Y-75256654D01*
X144739081Y-74940926D01*
X145140927Y-74539080D01*
X145456655Y-74066560D01*
X145674132Y-73541523D01*
X145785001Y-72984148D01*
X145785001Y-72415852D01*
X145674132Y-71858477D01*
X145456655Y-71333440D01*
X145140927Y-70860920D01*
X144739081Y-70459074D01*
X144266561Y-70143346D01*
X143741524Y-69925869D01*
X143184149Y-69815000D01*
X142615853Y-69815000D01*
X142058478Y-69925869D01*
X141533441Y-70143346D01*
X141060921Y-70459074D01*
X140659075Y-70860920D01*
X140343347Y-71333440D01*
X140125870Y-71858477D01*
X140015001Y-72415852D01*
X136902500Y-72415852D01*
X136902500Y-69644538D01*
X138566213Y-67980825D01*
X139340000Y-67980825D01*
X139340000Y-68219175D01*
X139386499Y-68452944D01*
X139477712Y-68673150D01*
X139610131Y-68871330D01*
X139778670Y-69039869D01*
X139976850Y-69172288D01*
X140197056Y-69263501D01*
X140430825Y-69310000D01*
X140669175Y-69310000D01*
X140902944Y-69263501D01*
X141123150Y-69172288D01*
X141321330Y-69039869D01*
X141489869Y-68871330D01*
X141622288Y-68673150D01*
X141713501Y-68452944D01*
X141760000Y-68219175D01*
X141760000Y-67980825D01*
X141726519Y-67812500D01*
X143136928Y-67812500D01*
X143136928Y-68387500D01*
X143154713Y-68568070D01*
X143207383Y-68741701D01*
X143292915Y-68901720D01*
X143408022Y-69041978D01*
X143548280Y-69157085D01*
X143708299Y-69242617D01*
X143881930Y-69295287D01*
X144062500Y-69313072D01*
X144637500Y-69313072D01*
X144818070Y-69295287D01*
X144991701Y-69242617D01*
X145151720Y-69157085D01*
X145291978Y-69041978D01*
X145407085Y-68901720D01*
X145492617Y-68741701D01*
X145545287Y-68568070D01*
X145563072Y-68387500D01*
X145563072Y-67812500D01*
X145545287Y-67631930D01*
X145492617Y-67458299D01*
X145407085Y-67298280D01*
X145302500Y-67170843D01*
X145302500Y-66994538D01*
X146244538Y-66052500D01*
X149273104Y-66052500D01*
X149435241Y-66214637D01*
X149670273Y-66371680D01*
X149931426Y-66479853D01*
X150208665Y-66535000D01*
X150491335Y-66535000D01*
X150768574Y-66479853D01*
X151029727Y-66371680D01*
X151264759Y-66214637D01*
X151464637Y-66014759D01*
X151621680Y-65779727D01*
X151729853Y-65518574D01*
X151785000Y-65241335D01*
X151785000Y-64958665D01*
X151729853Y-64681426D01*
X151621680Y-64420273D01*
X151464637Y-64185241D01*
X151264759Y-63985363D01*
X151029727Y-63828320D01*
X150768574Y-63720147D01*
X150491335Y-63665000D01*
X150208665Y-63665000D01*
X149931426Y-63720147D01*
X149670273Y-63828320D01*
X149435241Y-63985363D01*
X149273104Y-64147500D01*
X145896784Y-64147500D01*
X145849999Y-64142892D01*
X145663277Y-64161283D01*
X145483731Y-64215748D01*
X145318259Y-64304194D01*
X145173222Y-64423222D01*
X145143393Y-64459569D01*
X143709565Y-65893397D01*
X143673223Y-65923222D01*
X143643399Y-65959563D01*
X143554194Y-66068260D01*
X143465749Y-66233731D01*
X143411283Y-66413278D01*
X143392892Y-66600000D01*
X143397501Y-66646794D01*
X143397501Y-67170842D01*
X143292915Y-67298280D01*
X143207383Y-67458299D01*
X143154713Y-67631930D01*
X143136928Y-67812500D01*
X141726519Y-67812500D01*
X141713501Y-67747056D01*
X141622288Y-67526850D01*
X141489869Y-67328670D01*
X141321330Y-67160131D01*
X141123150Y-67027712D01*
X140902944Y-66936499D01*
X140669175Y-66890000D01*
X140430825Y-66890000D01*
X140197056Y-66936499D01*
X139976850Y-67027712D01*
X139778670Y-67160131D01*
X139610131Y-67328670D01*
X139477712Y-67526850D01*
X139386499Y-67747056D01*
X139340000Y-67980825D01*
X138566213Y-67980825D01*
X141740436Y-64806603D01*
X141776778Y-64776778D01*
X141895806Y-64631741D01*
X141984252Y-64466269D01*
X142038717Y-64286723D01*
X142052500Y-64146785D01*
X142052500Y-64146784D01*
X142057108Y-64100000D01*
X142052500Y-64053215D01*
X142052500Y-55289040D01*
X148958091Y-55289040D01*
X149052930Y-55553881D01*
X149197615Y-55795131D01*
X149386586Y-56003519D01*
X149612580Y-56171037D01*
X149866913Y-56291246D01*
X150000961Y-56331904D01*
X150223000Y-56209915D01*
X150223000Y-55067000D01*
X150477000Y-55067000D01*
X150477000Y-56209915D01*
X150699039Y-56331904D01*
X150833087Y-56291246D01*
X151087420Y-56171037D01*
X151313414Y-56003519D01*
X151502385Y-55795131D01*
X151647070Y-55553881D01*
X151741909Y-55289040D01*
X151620624Y-55067000D01*
X150477000Y-55067000D01*
X150223000Y-55067000D01*
X149079376Y-55067000D01*
X148958091Y-55289040D01*
X142052500Y-55289040D01*
X142052500Y-54590960D01*
X148958091Y-54590960D01*
X149079376Y-54813000D01*
X150223000Y-54813000D01*
X150223000Y-53670085D01*
X150477000Y-53670085D01*
X150477000Y-54813000D01*
X151620624Y-54813000D01*
X151741909Y-54590960D01*
X151647070Y-54326119D01*
X151502385Y-54084869D01*
X151313414Y-53876481D01*
X151087420Y-53708963D01*
X150833087Y-53588754D01*
X150699039Y-53548096D01*
X150477000Y-53670085D01*
X150223000Y-53670085D01*
X150000961Y-53548096D01*
X149866913Y-53588754D01*
X149612580Y-53708963D01*
X149386586Y-53876481D01*
X149197615Y-54084869D01*
X149052930Y-54326119D01*
X148958091Y-54590960D01*
X142052500Y-54590960D01*
X142052500Y-54336784D01*
X142057108Y-54289999D01*
X142038717Y-54103277D01*
X142002948Y-53985363D01*
X141984252Y-53923731D01*
X141895806Y-53758259D01*
X141776778Y-53613222D01*
X141740436Y-53583397D01*
X141137864Y-52980825D01*
X143780000Y-52980825D01*
X143780000Y-53219175D01*
X143826499Y-53452944D01*
X143917712Y-53673150D01*
X144050131Y-53871330D01*
X144218670Y-54039869D01*
X144416850Y-54172288D01*
X144637056Y-54263501D01*
X144870825Y-54310000D01*
X145109175Y-54310000D01*
X145342944Y-54263501D01*
X145563150Y-54172288D01*
X145761330Y-54039869D01*
X145929869Y-53871330D01*
X146062288Y-53673150D01*
X146153501Y-53452944D01*
X146200000Y-53219175D01*
X146200000Y-52980825D01*
X146153501Y-52747056D01*
X146062288Y-52526850D01*
X145929869Y-52328670D01*
X145761330Y-52160131D01*
X145563150Y-52027712D01*
X145342944Y-51936499D01*
X145109175Y-51890000D01*
X144870825Y-51890000D01*
X144637056Y-51936499D01*
X144416850Y-52027712D01*
X144218670Y-52160131D01*
X144050131Y-52328670D01*
X143917712Y-52526850D01*
X143826499Y-52747056D01*
X143780000Y-52980825D01*
X141137864Y-52980825D01*
X141115565Y-52958526D01*
X141073501Y-52747056D01*
X140982288Y-52526850D01*
X140849869Y-52328670D01*
X140681330Y-52160131D01*
X140483150Y-52027712D01*
X140262944Y-51936499D01*
X140029175Y-51890000D01*
X139790825Y-51890000D01*
X139557056Y-51936499D01*
X139336850Y-52027712D01*
X139138670Y-52160131D01*
X138970131Y-52328670D01*
X138837712Y-52526850D01*
X138746499Y-52747056D01*
X138700000Y-52980825D01*
X138700000Y-53219175D01*
X138746499Y-53452944D01*
X138837712Y-53673150D01*
X138970131Y-53871330D01*
X139138670Y-54039869D01*
X139336850Y-54172288D01*
X139557056Y-54263501D01*
X139768526Y-54305565D01*
X140147501Y-54684540D01*
X140147500Y-63705461D01*
X135309564Y-68543398D01*
X135273223Y-68573222D01*
X135243399Y-68609563D01*
X135154194Y-68718260D01*
X135065749Y-68883731D01*
X135011283Y-69063278D01*
X134992892Y-69250000D01*
X134997501Y-69296795D01*
X134997500Y-76892548D01*
X134633441Y-77043346D01*
X134160921Y-77359074D01*
X133759075Y-77760920D01*
X133443347Y-78233440D01*
X133225870Y-78758477D01*
X133115001Y-79315852D01*
X133115001Y-79884148D01*
X133225870Y-80441523D01*
X133382734Y-80820228D01*
X132959564Y-81243398D01*
X132923223Y-81273222D01*
X132893399Y-81309563D01*
X132810000Y-81411185D01*
X132810000Y-65118665D01*
X133165000Y-65118665D01*
X133165000Y-65401335D01*
X133220147Y-65678574D01*
X133328320Y-65939727D01*
X133485363Y-66174759D01*
X133685241Y-66374637D01*
X133920273Y-66531680D01*
X134181426Y-66639853D01*
X134458665Y-66695000D01*
X134741335Y-66695000D01*
X135018574Y-66639853D01*
X135279727Y-66531680D01*
X135514759Y-66374637D01*
X135714637Y-66174759D01*
X135871680Y-65939727D01*
X135979853Y-65678574D01*
X136035000Y-65401335D01*
X136035000Y-65118665D01*
X135979853Y-64841426D01*
X135871680Y-64580273D01*
X135714637Y-64345241D01*
X135514759Y-64145363D01*
X135279727Y-63988320D01*
X135018574Y-63880147D01*
X134741335Y-63825000D01*
X134458665Y-63825000D01*
X134181426Y-63880147D01*
X133920273Y-63988320D01*
X133685241Y-64145363D01*
X133485363Y-64345241D01*
X133328320Y-64580273D01*
X133220147Y-64841426D01*
X133165000Y-65118665D01*
X132810000Y-65118665D01*
X132810000Y-54958665D01*
X133165000Y-54958665D01*
X133165000Y-55241335D01*
X133220147Y-55518574D01*
X133328320Y-55779727D01*
X133485363Y-56014759D01*
X133685241Y-56214637D01*
X133920273Y-56371680D01*
X134181426Y-56479853D01*
X134458665Y-56535000D01*
X134741335Y-56535000D01*
X135018574Y-56479853D01*
X135279727Y-56371680D01*
X135514759Y-56214637D01*
X135714637Y-56014759D01*
X135871680Y-55779727D01*
X135979853Y-55518574D01*
X136035000Y-55241335D01*
X136035000Y-54958665D01*
X135979853Y-54681426D01*
X135871680Y-54420273D01*
X135714637Y-54185241D01*
X135514759Y-53985363D01*
X135279727Y-53828320D01*
X135018574Y-53720147D01*
X134741335Y-53665000D01*
X134458665Y-53665000D01*
X134181426Y-53720147D01*
X133920273Y-53828320D01*
X133685241Y-53985363D01*
X133485363Y-54185241D01*
X133328320Y-54420273D01*
X133220147Y-54681426D01*
X133165000Y-54958665D01*
X132810000Y-54958665D01*
X132810000Y-46465852D01*
X137015001Y-46465852D01*
X137015001Y-47034148D01*
X137125870Y-47591523D01*
X137343347Y-48116560D01*
X137659075Y-48589080D01*
X138060921Y-48990926D01*
X138533441Y-49306654D01*
X139058478Y-49524131D01*
X139615853Y-49635000D01*
X140184149Y-49635000D01*
X140741524Y-49524131D01*
X141266561Y-49306654D01*
X141739081Y-48990926D01*
X142140927Y-48589080D01*
X142456655Y-48116560D01*
X142674132Y-47591523D01*
X142724163Y-47340000D01*
X144251929Y-47340000D01*
X144264189Y-47464482D01*
X144300499Y-47584180D01*
X144359464Y-47694494D01*
X144438816Y-47791185D01*
X144535507Y-47870537D01*
X144645821Y-47929502D01*
X144765519Y-47965812D01*
X144890001Y-47978072D01*
X146854251Y-47975000D01*
X147013001Y-47816250D01*
X147013001Y-45217000D01*
X147267001Y-45217000D01*
X147267001Y-47816250D01*
X147425751Y-47975000D01*
X149390001Y-47978072D01*
X149514483Y-47965812D01*
X149634181Y-47929502D01*
X149744495Y-47870537D01*
X149841186Y-47791185D01*
X149920538Y-47694494D01*
X149979503Y-47584180D01*
X150015813Y-47464482D01*
X150028073Y-47340000D01*
X150025001Y-45375750D01*
X149866251Y-45217000D01*
X147267001Y-45217000D01*
X147013001Y-45217000D01*
X144413751Y-45217000D01*
X144255001Y-45375750D01*
X144251929Y-47340000D01*
X142724163Y-47340000D01*
X142785001Y-47034148D01*
X142785001Y-46465852D01*
X142674132Y-45908477D01*
X142456655Y-45383440D01*
X142140927Y-44910920D01*
X141739081Y-44509074D01*
X141266561Y-44193346D01*
X140741524Y-43975869D01*
X140184149Y-43865000D01*
X139615853Y-43865000D01*
X139058478Y-43975869D01*
X138533441Y-44193346D01*
X138060921Y-44509074D01*
X137659075Y-44910920D01*
X137343347Y-45383440D01*
X137125870Y-45908477D01*
X137015001Y-46465852D01*
X132810000Y-46465852D01*
X132810000Y-40565852D01*
X133115001Y-40565852D01*
X133115001Y-41134148D01*
X133225870Y-41691523D01*
X133443347Y-42216560D01*
X133759075Y-42689080D01*
X134160921Y-43090926D01*
X134633441Y-43406654D01*
X135158478Y-43624131D01*
X135715853Y-43735000D01*
X136284149Y-43735000D01*
X136841524Y-43624131D01*
X137366561Y-43406654D01*
X137839081Y-43090926D01*
X138090007Y-42840000D01*
X144251929Y-42840000D01*
X144255001Y-44804250D01*
X144413751Y-44963000D01*
X147013001Y-44963000D01*
X147013001Y-42363750D01*
X147267001Y-42363750D01*
X147267001Y-44963000D01*
X149866251Y-44963000D01*
X150025001Y-44804250D01*
X150028073Y-42840000D01*
X150015813Y-42715518D01*
X149979503Y-42595820D01*
X149920538Y-42485506D01*
X149841186Y-42388815D01*
X149744495Y-42309463D01*
X149634181Y-42250498D01*
X149514483Y-42214188D01*
X149390001Y-42201928D01*
X147425751Y-42205000D01*
X147267001Y-42363750D01*
X147013001Y-42363750D01*
X146854251Y-42205000D01*
X144890001Y-42201928D01*
X144765519Y-42214188D01*
X144645821Y-42250498D01*
X144535507Y-42309463D01*
X144438816Y-42388815D01*
X144359464Y-42485506D01*
X144300499Y-42595820D01*
X144264189Y-42715518D01*
X144251929Y-42840000D01*
X138090007Y-42840000D01*
X138240927Y-42689080D01*
X138556655Y-42216560D01*
X138774132Y-41691523D01*
X138885001Y-41134148D01*
X138885001Y-40565852D01*
X138774132Y-40008477D01*
X138556655Y-39483440D01*
X138240927Y-39010920D01*
X137839081Y-38609074D01*
X137366561Y-38293346D01*
X136841524Y-38075869D01*
X136284149Y-37965000D01*
X135715853Y-37965000D01*
X135158478Y-38075869D01*
X134633441Y-38293346D01*
X134160921Y-38609074D01*
X133759075Y-39010920D01*
X133443347Y-39483440D01*
X133225870Y-40008477D01*
X133115001Y-40565852D01*
X132810000Y-40565852D01*
X132810000Y-37565852D01*
X145915001Y-37565852D01*
X145915001Y-38134148D01*
X146025870Y-38691523D01*
X146243347Y-39216560D01*
X146559075Y-39689080D01*
X146960921Y-40090926D01*
X147433441Y-40406654D01*
X147958478Y-40624131D01*
X148515853Y-40735000D01*
X149084149Y-40735000D01*
X149641524Y-40624131D01*
X150166561Y-40406654D01*
X150639081Y-40090926D01*
X151040927Y-39689080D01*
X151356655Y-39216560D01*
X151574132Y-38691523D01*
X151685001Y-38134148D01*
X151685001Y-37565852D01*
X151574132Y-37008477D01*
X151356655Y-36483440D01*
X151040927Y-36010920D01*
X150639081Y-35609074D01*
X150166561Y-35293346D01*
X149641524Y-35075869D01*
X149084149Y-34965000D01*
X148515853Y-34965000D01*
X147958478Y-35075869D01*
X147433441Y-35293346D01*
X146960921Y-35609074D01*
X146559075Y-36010920D01*
X146243347Y-36483440D01*
X146025870Y-37008477D01*
X145915001Y-37565852D01*
X132810000Y-37565852D01*
X132810000Y-33665852D01*
X140015001Y-33665852D01*
X140015001Y-34234148D01*
X140125870Y-34791523D01*
X140343347Y-35316560D01*
X140659075Y-35789080D01*
X141060921Y-36190926D01*
X141533441Y-36506654D01*
X142058478Y-36724131D01*
X142615853Y-36835000D01*
X143184149Y-36835000D01*
X143741524Y-36724131D01*
X144266561Y-36506654D01*
X144739081Y-36190926D01*
X145140927Y-35789080D01*
X145456655Y-35316560D01*
X145674132Y-34791523D01*
X145785001Y-34234148D01*
X145785001Y-33665852D01*
X145674132Y-33108477D01*
X145456655Y-32583440D01*
X145140927Y-32110920D01*
X144739081Y-31709074D01*
X144266561Y-31393346D01*
X143741524Y-31175869D01*
X143184149Y-31065000D01*
X142615853Y-31065000D01*
X142058478Y-31175869D01*
X141533441Y-31393346D01*
X141060921Y-31709074D01*
X140659075Y-32110920D01*
X140343347Y-32583440D01*
X140125870Y-33108477D01*
X140015001Y-33665852D01*
X132810000Y-33665852D01*
X132810000Y-30310000D01*
X152390000Y-30310000D01*
X152390001Y-203890000D01*
G37*
X152390001Y-203890000D02*
X132810000Y-203890000D01*
X132810000Y-199815852D01*
X137015001Y-199815852D01*
X137015001Y-200384148D01*
X137125870Y-200941523D01*
X137343347Y-201466560D01*
X137659075Y-201939080D01*
X138060921Y-202340926D01*
X138533441Y-202656654D01*
X139058478Y-202874131D01*
X139615853Y-202985000D01*
X140184149Y-202985000D01*
X140741524Y-202874131D01*
X141266561Y-202656654D01*
X141739081Y-202340926D01*
X142140927Y-201939080D01*
X142456655Y-201466560D01*
X142674132Y-200941523D01*
X142724163Y-200690000D01*
X144251929Y-200690000D01*
X144264189Y-200814482D01*
X144300499Y-200934180D01*
X144359464Y-201044494D01*
X144438816Y-201141185D01*
X144535507Y-201220537D01*
X144645821Y-201279502D01*
X144765519Y-201315812D01*
X144890001Y-201328072D01*
X146854251Y-201325000D01*
X147013001Y-201166250D01*
X147013001Y-198567000D01*
X147267001Y-198567000D01*
X147267001Y-201166250D01*
X147425751Y-201325000D01*
X149390001Y-201328072D01*
X149514483Y-201315812D01*
X149634181Y-201279502D01*
X149744495Y-201220537D01*
X149841186Y-201141185D01*
X149920538Y-201044494D01*
X149979503Y-200934180D01*
X150015813Y-200814482D01*
X150028073Y-200690000D01*
X150025001Y-198725750D01*
X149866251Y-198567000D01*
X147267001Y-198567000D01*
X147013001Y-198567000D01*
X144413751Y-198567000D01*
X144255001Y-198725750D01*
X144251929Y-200690000D01*
X142724163Y-200690000D01*
X142785001Y-200384148D01*
X142785001Y-199815852D01*
X142674132Y-199258477D01*
X142456655Y-198733440D01*
X142140927Y-198260920D01*
X141739081Y-197859074D01*
X141266561Y-197543346D01*
X140741524Y-197325869D01*
X140184149Y-197215000D01*
X139615853Y-197215000D01*
X139058478Y-197325869D01*
X138533441Y-197543346D01*
X138060921Y-197859074D01*
X137659075Y-198260920D01*
X137343347Y-198733440D01*
X137125870Y-199258477D01*
X137015001Y-199815852D01*
X132810000Y-199815852D01*
X132810000Y-193915852D01*
X133115001Y-193915852D01*
X133115001Y-194484148D01*
X133225870Y-195041523D01*
X133443347Y-195566560D01*
X133759075Y-196039080D01*
X134160921Y-196440926D01*
X134633441Y-196756654D01*
X135158478Y-196974131D01*
X135715853Y-197085000D01*
X136284149Y-197085000D01*
X136841524Y-196974131D01*
X137366561Y-196756654D01*
X137839081Y-196440926D01*
X138090007Y-196190000D01*
X144251929Y-196190000D01*
X144255001Y-198154250D01*
X144413751Y-198313000D01*
X147013001Y-198313000D01*
X147013001Y-195713750D01*
X147267001Y-195713750D01*
X147267001Y-198313000D01*
X149866251Y-198313000D01*
X150025001Y-198154250D01*
X150028073Y-196190000D01*
X150015813Y-196065518D01*
X149979503Y-195945820D01*
X149920538Y-195835506D01*
X149841186Y-195738815D01*
X149744495Y-195659463D01*
X149634181Y-195600498D01*
X149514483Y-195564188D01*
X149390001Y-195551928D01*
X147425751Y-195555000D01*
X147267001Y-195713750D01*
X147013001Y-195713750D01*
X146854251Y-195555000D01*
X144890001Y-195551928D01*
X144765519Y-195564188D01*
X144645821Y-195600498D01*
X144535507Y-195659463D01*
X144438816Y-195738815D01*
X144359464Y-195835506D01*
X144300499Y-195945820D01*
X144264189Y-196065518D01*
X144251929Y-196190000D01*
X138090007Y-196190000D01*
X138240927Y-196039080D01*
X138556655Y-195566560D01*
X138774132Y-195041523D01*
X138885001Y-194484148D01*
X138885001Y-193915852D01*
X138774132Y-193358477D01*
X138556655Y-192833440D01*
X138240927Y-192360920D01*
X137839081Y-191959074D01*
X137366561Y-191643346D01*
X136841524Y-191425869D01*
X136284149Y-191315000D01*
X135715853Y-191315000D01*
X135158478Y-191425869D01*
X134633441Y-191643346D01*
X134160921Y-191959074D01*
X133759075Y-192360920D01*
X133443347Y-192833440D01*
X133225870Y-193358477D01*
X133115001Y-193915852D01*
X132810000Y-193915852D01*
X132810000Y-190915852D01*
X145915001Y-190915852D01*
X145915001Y-191484148D01*
X146025870Y-192041523D01*
X146243347Y-192566560D01*
X146559075Y-193039080D01*
X146960921Y-193440926D01*
X147433441Y-193756654D01*
X147958478Y-193974131D01*
X148515853Y-194085000D01*
X149084149Y-194085000D01*
X149641524Y-193974131D01*
X150166561Y-193756654D01*
X150639081Y-193440926D01*
X151040927Y-193039080D01*
X151356655Y-192566560D01*
X151574132Y-192041523D01*
X151685001Y-191484148D01*
X151685001Y-190915852D01*
X151574132Y-190358477D01*
X151356655Y-189833440D01*
X151040927Y-189360920D01*
X150639081Y-188959074D01*
X150166561Y-188643346D01*
X149641524Y-188425869D01*
X149084149Y-188315000D01*
X148515853Y-188315000D01*
X147958478Y-188425869D01*
X147433441Y-188643346D01*
X146960921Y-188959074D01*
X146559075Y-189360920D01*
X146243347Y-189833440D01*
X146025870Y-190358477D01*
X145915001Y-190915852D01*
X132810000Y-190915852D01*
X132810000Y-187015852D01*
X140015001Y-187015852D01*
X140015001Y-187584148D01*
X140125870Y-188141523D01*
X140343347Y-188666560D01*
X140659075Y-189139080D01*
X141060921Y-189540926D01*
X141533441Y-189856654D01*
X142058478Y-190074131D01*
X142615853Y-190185000D01*
X143184149Y-190185000D01*
X143741524Y-190074131D01*
X144266561Y-189856654D01*
X144739081Y-189540926D01*
X145140927Y-189139080D01*
X145456655Y-188666560D01*
X145674132Y-188141523D01*
X145785001Y-187584148D01*
X145785001Y-187015852D01*
X145674132Y-186458477D01*
X145456655Y-185933440D01*
X145140927Y-185460920D01*
X144739081Y-185059074D01*
X144266561Y-184743346D01*
X143741524Y-184525869D01*
X143184149Y-184415000D01*
X142615853Y-184415000D01*
X142058478Y-184525869D01*
X141533441Y-184743346D01*
X141060921Y-185059074D01*
X140659075Y-185460920D01*
X140343347Y-185933440D01*
X140125870Y-186458477D01*
X140015001Y-187015852D01*
X132810000Y-187015852D01*
X132810000Y-183192702D01*
X135296903Y-183192702D01*
X135368486Y-183436671D01*
X135623996Y-183557571D01*
X135898184Y-183626300D01*
X136180512Y-183640217D01*
X136460130Y-183598787D01*
X136726292Y-183503603D01*
X136851514Y-183436671D01*
X136923097Y-183192702D01*
X136909060Y-183178665D01*
X147175000Y-183178665D01*
X147175000Y-183461335D01*
X147230147Y-183738574D01*
X147338320Y-183999727D01*
X147495363Y-184234759D01*
X147695241Y-184434637D01*
X147930273Y-184591680D01*
X148191426Y-184699853D01*
X148468665Y-184755000D01*
X148751335Y-184755000D01*
X149028574Y-184699853D01*
X149289727Y-184591680D01*
X149524759Y-184434637D01*
X149724637Y-184234759D01*
X149881680Y-183999727D01*
X149989853Y-183738574D01*
X150045000Y-183461335D01*
X150045000Y-183178665D01*
X149989853Y-182901426D01*
X149881680Y-182640273D01*
X149724637Y-182405241D01*
X149524759Y-182205363D01*
X149289727Y-182048320D01*
X149028574Y-181940147D01*
X148751335Y-181885000D01*
X148468665Y-181885000D01*
X148191426Y-181940147D01*
X147930273Y-182048320D01*
X147695241Y-182205363D01*
X147495363Y-182405241D01*
X147338320Y-182640273D01*
X147230147Y-182901426D01*
X147175000Y-183178665D01*
X136909060Y-183178665D01*
X136110000Y-182379605D01*
X135296903Y-183192702D01*
X132810000Y-183192702D01*
X132810000Y-182270512D01*
X134669783Y-182270512D01*
X134711213Y-182550130D01*
X134806397Y-182816292D01*
X134873329Y-182941514D01*
X135117298Y-183013097D01*
X135930395Y-182200000D01*
X136289605Y-182200000D01*
X137102702Y-183013097D01*
X137346671Y-182941514D01*
X137467571Y-182686004D01*
X137536300Y-182411816D01*
X137550217Y-182129488D01*
X137508787Y-181849870D01*
X137413603Y-181583708D01*
X137346671Y-181458486D01*
X137102702Y-181386903D01*
X136289605Y-182200000D01*
X135930395Y-182200000D01*
X135117298Y-181386903D01*
X134873329Y-181458486D01*
X134752429Y-181713996D01*
X134683700Y-181988184D01*
X134669783Y-182270512D01*
X132810000Y-182270512D01*
X132810000Y-181207298D01*
X135296903Y-181207298D01*
X136110000Y-182020395D01*
X136923097Y-181207298D01*
X136851514Y-180963329D01*
X136596004Y-180842429D01*
X136321816Y-180773700D01*
X136039488Y-180759783D01*
X135759870Y-180801213D01*
X135493708Y-180896397D01*
X135368486Y-180963329D01*
X135296903Y-181207298D01*
X132810000Y-181207298D01*
X132810000Y-179548816D01*
X139795000Y-179548816D01*
X139795000Y-179851184D01*
X139853989Y-180147743D01*
X139969701Y-180427095D01*
X140137688Y-180678505D01*
X140351495Y-180892312D01*
X140602905Y-181060299D01*
X140882257Y-181176011D01*
X141178816Y-181235000D01*
X141481184Y-181235000D01*
X141777743Y-181176011D01*
X142057095Y-181060299D01*
X142308505Y-180892312D01*
X142374944Y-180825873D01*
X142380498Y-180844180D01*
X142439463Y-180954494D01*
X142518815Y-181051185D01*
X142615506Y-181130537D01*
X142725820Y-181189502D01*
X142845518Y-181225812D01*
X142970000Y-181238072D01*
X143584250Y-181235000D01*
X143743000Y-181076250D01*
X143743000Y-179827000D01*
X143997000Y-179827000D01*
X143997000Y-181076250D01*
X144155750Y-181235000D01*
X144770000Y-181238072D01*
X144894482Y-181225812D01*
X145014180Y-181189502D01*
X145124494Y-181130537D01*
X145221185Y-181051185D01*
X145300537Y-180954494D01*
X145359502Y-180844180D01*
X145395812Y-180724482D01*
X145408072Y-180600000D01*
X145405000Y-179985750D01*
X145246250Y-179827000D01*
X143997000Y-179827000D01*
X143743000Y-179827000D01*
X143723000Y-179827000D01*
X143723000Y-179573000D01*
X143743000Y-179573000D01*
X143743000Y-178323750D01*
X143997000Y-178323750D01*
X143997000Y-179573000D01*
X145246250Y-179573000D01*
X145405000Y-179414250D01*
X145408072Y-178800000D01*
X145395812Y-178675518D01*
X145359502Y-178555820D01*
X145300537Y-178445506D01*
X145221185Y-178348815D01*
X145124494Y-178269463D01*
X145014180Y-178210498D01*
X144894482Y-178174188D01*
X144770000Y-178161928D01*
X144155750Y-178165000D01*
X143997000Y-178323750D01*
X143743000Y-178323750D01*
X143584250Y-178165000D01*
X142970000Y-178161928D01*
X142845518Y-178174188D01*
X142725820Y-178210498D01*
X142615506Y-178269463D01*
X142518815Y-178348815D01*
X142439463Y-178445506D01*
X142380498Y-178555820D01*
X142374944Y-178574127D01*
X142308505Y-178507688D01*
X142057095Y-178339701D01*
X141777743Y-178223989D01*
X141481184Y-178165000D01*
X141178816Y-178165000D01*
X140882257Y-178223989D01*
X140602905Y-178339701D01*
X140351495Y-178507688D01*
X140137688Y-178721495D01*
X139969701Y-178972905D01*
X139853989Y-179252257D01*
X139795000Y-179548816D01*
X132810000Y-179548816D01*
X132810000Y-168300000D01*
X133052892Y-168300000D01*
X133057500Y-168346785D01*
X133057501Y-175053205D01*
X133052892Y-175100000D01*
X133071283Y-175286722D01*
X133125749Y-175466269D01*
X133214195Y-175631741D01*
X133333223Y-175776778D01*
X133369565Y-175806603D01*
X134675000Y-177112038D01*
X134675000Y-177341335D01*
X134730147Y-177618574D01*
X134838320Y-177879727D01*
X134995363Y-178114759D01*
X135195241Y-178314637D01*
X135430273Y-178471680D01*
X135691426Y-178579853D01*
X135968665Y-178635000D01*
X136251335Y-178635000D01*
X136528574Y-178579853D01*
X136789727Y-178471680D01*
X137024759Y-178314637D01*
X137224637Y-178114759D01*
X137381680Y-177879727D01*
X137489853Y-177618574D01*
X137545000Y-177341335D01*
X137545000Y-177058665D01*
X137489853Y-176781426D01*
X137381680Y-176520273D01*
X137224637Y-176285241D01*
X137024759Y-176085363D01*
X136789727Y-175928320D01*
X136528574Y-175820147D01*
X136251335Y-175765000D01*
X136022038Y-175765000D01*
X135157038Y-174900000D01*
X147171928Y-174900000D01*
X147171928Y-176500000D01*
X147184188Y-176624482D01*
X147220498Y-176744180D01*
X147279463Y-176854494D01*
X147358815Y-176951185D01*
X147455506Y-177030537D01*
X147565820Y-177089502D01*
X147685518Y-177125812D01*
X147810000Y-177138072D01*
X149410000Y-177138072D01*
X149534482Y-177125812D01*
X149654180Y-177089502D01*
X149764494Y-177030537D01*
X149861185Y-176951185D01*
X149940537Y-176854494D01*
X149999502Y-176744180D01*
X150035812Y-176624482D01*
X150048072Y-176500000D01*
X150048072Y-174900000D01*
X150035812Y-174775518D01*
X149999502Y-174655820D01*
X149940537Y-174545506D01*
X149861185Y-174448815D01*
X149764494Y-174369463D01*
X149654180Y-174310498D01*
X149534482Y-174274188D01*
X149410000Y-174261928D01*
X147810000Y-174261928D01*
X147685518Y-174274188D01*
X147565820Y-174310498D01*
X147455506Y-174369463D01*
X147358815Y-174448815D01*
X147279463Y-174545506D01*
X147220498Y-174655820D01*
X147184188Y-174775518D01*
X147171928Y-174900000D01*
X135157038Y-174900000D01*
X134962500Y-174705462D01*
X134962500Y-171565852D01*
X137015001Y-171565852D01*
X137015001Y-172134148D01*
X137125870Y-172691523D01*
X137343347Y-173216560D01*
X137659075Y-173689080D01*
X138060921Y-174090926D01*
X138533441Y-174406654D01*
X139058478Y-174624131D01*
X139615853Y-174735000D01*
X140184149Y-174735000D01*
X140741524Y-174624131D01*
X141266561Y-174406654D01*
X141739081Y-174090926D01*
X142140927Y-173689080D01*
X142456655Y-173216560D01*
X142674132Y-172691523D01*
X142724163Y-172440000D01*
X144251929Y-172440000D01*
X144264189Y-172564482D01*
X144300499Y-172684180D01*
X144359464Y-172794494D01*
X144438816Y-172891185D01*
X144535507Y-172970537D01*
X144645821Y-173029502D01*
X144765519Y-173065812D01*
X144890001Y-173078072D01*
X146854251Y-173075000D01*
X147013001Y-172916250D01*
X147013001Y-170317000D01*
X147267001Y-170317000D01*
X147267001Y-172916250D01*
X147425751Y-173075000D01*
X149390001Y-173078072D01*
X149514483Y-173065812D01*
X149634181Y-173029502D01*
X149744495Y-172970537D01*
X149841186Y-172891185D01*
X149920538Y-172794494D01*
X149979503Y-172684180D01*
X150015813Y-172564482D01*
X150028073Y-172440000D01*
X150025001Y-170475750D01*
X149866251Y-170317000D01*
X147267001Y-170317000D01*
X147013001Y-170317000D01*
X144413751Y-170317000D01*
X144255001Y-170475750D01*
X144251929Y-172440000D01*
X142724163Y-172440000D01*
X142785001Y-172134148D01*
X142785001Y-171565852D01*
X142674132Y-171008477D01*
X142456655Y-170483440D01*
X142140927Y-170010920D01*
X141739081Y-169609074D01*
X141266561Y-169293346D01*
X140741524Y-169075869D01*
X140184149Y-168965000D01*
X139615853Y-168965000D01*
X139058478Y-169075869D01*
X138533441Y-169293346D01*
X138060921Y-169609074D01*
X137659075Y-170010920D01*
X137343347Y-170483440D01*
X137125870Y-171008477D01*
X137015001Y-171565852D01*
X134962500Y-171565852D01*
X134962500Y-168694538D01*
X134998975Y-168658063D01*
X135158478Y-168724131D01*
X135715853Y-168835000D01*
X136284149Y-168835000D01*
X136841524Y-168724131D01*
X137366561Y-168506654D01*
X137839081Y-168190926D01*
X138090007Y-167940000D01*
X144251929Y-167940000D01*
X144255001Y-169904250D01*
X144413751Y-170063000D01*
X147013001Y-170063000D01*
X147013001Y-167463750D01*
X147267001Y-167463750D01*
X147267001Y-170063000D01*
X149866251Y-170063000D01*
X150025001Y-169904250D01*
X150028073Y-167940000D01*
X150015813Y-167815518D01*
X149979503Y-167695820D01*
X149920538Y-167585506D01*
X149841186Y-167488815D01*
X149744495Y-167409463D01*
X149634181Y-167350498D01*
X149514483Y-167314188D01*
X149390001Y-167301928D01*
X147425751Y-167305000D01*
X147267001Y-167463750D01*
X147013001Y-167463750D01*
X146854251Y-167305000D01*
X144890001Y-167301928D01*
X144765519Y-167314188D01*
X144645821Y-167350498D01*
X144535507Y-167409463D01*
X144438816Y-167488815D01*
X144359464Y-167585506D01*
X144300499Y-167695820D01*
X144264189Y-167815518D01*
X144251929Y-167940000D01*
X138090007Y-167940000D01*
X138240927Y-167789080D01*
X138556655Y-167316560D01*
X138774132Y-166791523D01*
X138885001Y-166234148D01*
X138885001Y-165665852D01*
X138774132Y-165108477D01*
X138556655Y-164583440D01*
X138240927Y-164110920D01*
X137839081Y-163709074D01*
X137366561Y-163393346D01*
X136962500Y-163225979D01*
X136962500Y-162665852D01*
X145915001Y-162665852D01*
X145915001Y-163234148D01*
X146025870Y-163791523D01*
X146243347Y-164316560D01*
X146559075Y-164789080D01*
X146960921Y-165190926D01*
X147433441Y-165506654D01*
X147958478Y-165724131D01*
X148515853Y-165835000D01*
X149084149Y-165835000D01*
X149641524Y-165724131D01*
X150166561Y-165506654D01*
X150639081Y-165190926D01*
X151040927Y-164789080D01*
X151356655Y-164316560D01*
X151574132Y-163791523D01*
X151685001Y-163234148D01*
X151685001Y-162665852D01*
X151574132Y-162108477D01*
X151356655Y-161583440D01*
X151040927Y-161110920D01*
X150639081Y-160709074D01*
X150166561Y-160393346D01*
X149641524Y-160175869D01*
X149084149Y-160065000D01*
X148515853Y-160065000D01*
X147958478Y-160175869D01*
X147433441Y-160393346D01*
X146960921Y-160709074D01*
X146559075Y-161110920D01*
X146243347Y-161583440D01*
X146025870Y-162108477D01*
X145915001Y-162665852D01*
X136962500Y-162665852D01*
X136962500Y-158765852D01*
X140015001Y-158765852D01*
X140015001Y-159334148D01*
X140125870Y-159891523D01*
X140343347Y-160416560D01*
X140659075Y-160889080D01*
X141060921Y-161290926D01*
X141533441Y-161606654D01*
X142058478Y-161824131D01*
X142615853Y-161935000D01*
X143184149Y-161935000D01*
X143741524Y-161824131D01*
X144266561Y-161606654D01*
X144739081Y-161290926D01*
X145140927Y-160889080D01*
X145456655Y-160416560D01*
X145674132Y-159891523D01*
X145785001Y-159334148D01*
X145785001Y-158765852D01*
X145674132Y-158208477D01*
X145456655Y-157683440D01*
X145140927Y-157210920D01*
X144739081Y-156809074D01*
X144266561Y-156493346D01*
X143741524Y-156275869D01*
X143184149Y-156165000D01*
X142615853Y-156165000D01*
X142058478Y-156275869D01*
X141533441Y-156493346D01*
X141060921Y-156809074D01*
X140659075Y-157210920D01*
X140343347Y-157683440D01*
X140125870Y-158208477D01*
X140015001Y-158765852D01*
X136962500Y-158765852D01*
X136962500Y-156204538D01*
X138836213Y-154330825D01*
X139350000Y-154330825D01*
X139350000Y-154569175D01*
X139396499Y-154802944D01*
X139487712Y-155023150D01*
X139620131Y-155221330D01*
X139788670Y-155389869D01*
X139986850Y-155522288D01*
X140207056Y-155613501D01*
X140440825Y-155660000D01*
X140679175Y-155660000D01*
X140912944Y-155613501D01*
X141133150Y-155522288D01*
X141331330Y-155389869D01*
X141499869Y-155221330D01*
X141632288Y-155023150D01*
X141723501Y-154802944D01*
X141770000Y-154569175D01*
X141770000Y-154330825D01*
X141736519Y-154162500D01*
X143146928Y-154162500D01*
X143146928Y-154737500D01*
X143164713Y-154918070D01*
X143217383Y-155091701D01*
X143302915Y-155251720D01*
X143418022Y-155391978D01*
X143558280Y-155507085D01*
X143718299Y-155592617D01*
X143891930Y-155645287D01*
X144072500Y-155663072D01*
X144647500Y-155663072D01*
X144828070Y-155645287D01*
X145001701Y-155592617D01*
X145161720Y-155507085D01*
X145301978Y-155391978D01*
X145417085Y-155251720D01*
X145502617Y-155091701D01*
X145555287Y-154918070D01*
X145573072Y-154737500D01*
X145573072Y-154162500D01*
X145555287Y-153981930D01*
X145502617Y-153808299D01*
X145417085Y-153648280D01*
X145312500Y-153520843D01*
X145312500Y-153484538D01*
X146394539Y-152402500D01*
X149283104Y-152402500D01*
X149445241Y-152564637D01*
X149680273Y-152721680D01*
X149941426Y-152829853D01*
X150218665Y-152885000D01*
X150501335Y-152885000D01*
X150778574Y-152829853D01*
X151039727Y-152721680D01*
X151274759Y-152564637D01*
X151474637Y-152364759D01*
X151631680Y-152129727D01*
X151739853Y-151868574D01*
X151795000Y-151591335D01*
X151795000Y-151308665D01*
X151739853Y-151031426D01*
X151631680Y-150770273D01*
X151474637Y-150535241D01*
X151274759Y-150335363D01*
X151039727Y-150178320D01*
X150778574Y-150070147D01*
X150501335Y-150015000D01*
X150218665Y-150015000D01*
X149941426Y-150070147D01*
X149680273Y-150178320D01*
X149445241Y-150335363D01*
X149283104Y-150497500D01*
X146046784Y-150497500D01*
X145999999Y-150492892D01*
X145813277Y-150511283D01*
X145633731Y-150565748D01*
X145468259Y-150654194D01*
X145323222Y-150773222D01*
X145293397Y-150809564D01*
X143719564Y-152383398D01*
X143683223Y-152413222D01*
X143653399Y-152449563D01*
X143564194Y-152558260D01*
X143475749Y-152723731D01*
X143421283Y-152903278D01*
X143402892Y-153090000D01*
X143407501Y-153136794D01*
X143407501Y-153520842D01*
X143302915Y-153648280D01*
X143217383Y-153808299D01*
X143164713Y-153981930D01*
X143146928Y-154162500D01*
X141736519Y-154162500D01*
X141723501Y-154097056D01*
X141632288Y-153876850D01*
X141499869Y-153678670D01*
X141331330Y-153510131D01*
X141133150Y-153377712D01*
X140912944Y-153286499D01*
X140679175Y-153240000D01*
X140440825Y-153240000D01*
X140207056Y-153286499D01*
X139986850Y-153377712D01*
X139788670Y-153510131D01*
X139620131Y-153678670D01*
X139487712Y-153876850D01*
X139396499Y-154097056D01*
X139350000Y-154330825D01*
X138836213Y-154330825D01*
X142600436Y-150566603D01*
X142636778Y-150536778D01*
X142755806Y-150391741D01*
X142800029Y-150309005D01*
X142844252Y-150226270D01*
X142898717Y-150046722D01*
X142901842Y-150015000D01*
X142912500Y-149906785D01*
X142917108Y-149860000D01*
X142912500Y-149813215D01*
X142912500Y-141639040D01*
X148968091Y-141639040D01*
X149062930Y-141903881D01*
X149207615Y-142145131D01*
X149396586Y-142353519D01*
X149622580Y-142521037D01*
X149876913Y-142641246D01*
X150010961Y-142681904D01*
X150233000Y-142559915D01*
X150233000Y-141417000D01*
X150487000Y-141417000D01*
X150487000Y-142559915D01*
X150709039Y-142681904D01*
X150843087Y-142641246D01*
X151097420Y-142521037D01*
X151323414Y-142353519D01*
X151512385Y-142145131D01*
X151657070Y-141903881D01*
X151751909Y-141639040D01*
X151630624Y-141417000D01*
X150487000Y-141417000D01*
X150233000Y-141417000D01*
X149089376Y-141417000D01*
X148968091Y-141639040D01*
X142912500Y-141639040D01*
X142912500Y-141536785D01*
X142917108Y-141490000D01*
X142898717Y-141303278D01*
X142844252Y-141123730D01*
X142794914Y-141031426D01*
X142755806Y-140958259D01*
X142741610Y-140940960D01*
X148968091Y-140940960D01*
X149089376Y-141163000D01*
X150233000Y-141163000D01*
X150233000Y-140020085D01*
X150487000Y-140020085D01*
X150487000Y-141163000D01*
X151630624Y-141163000D01*
X151751909Y-140940960D01*
X151657070Y-140676119D01*
X151512385Y-140434869D01*
X151323414Y-140226481D01*
X151097420Y-140058963D01*
X150843087Y-139938754D01*
X150709039Y-139898096D01*
X150487000Y-140020085D01*
X150233000Y-140020085D01*
X150010961Y-139898096D01*
X149876913Y-139938754D01*
X149622580Y-140058963D01*
X149396586Y-140226481D01*
X149207615Y-140434869D01*
X149062930Y-140676119D01*
X148968091Y-140940960D01*
X142741610Y-140940960D01*
X142636778Y-140813222D01*
X142600431Y-140783393D01*
X141147863Y-139330825D01*
X143790000Y-139330825D01*
X143790000Y-139569175D01*
X143836499Y-139802944D01*
X143927712Y-140023150D01*
X144060131Y-140221330D01*
X144228670Y-140389869D01*
X144426850Y-140522288D01*
X144647056Y-140613501D01*
X144880825Y-140660000D01*
X145119175Y-140660000D01*
X145352944Y-140613501D01*
X145573150Y-140522288D01*
X145771330Y-140389869D01*
X145939869Y-140221330D01*
X146072288Y-140023150D01*
X146163501Y-139802944D01*
X146210000Y-139569175D01*
X146210000Y-139330825D01*
X146163501Y-139097056D01*
X146072288Y-138876850D01*
X145939869Y-138678670D01*
X145771330Y-138510131D01*
X145573150Y-138377712D01*
X145352944Y-138286499D01*
X145119175Y-138240000D01*
X144880825Y-138240000D01*
X144647056Y-138286499D01*
X144426850Y-138377712D01*
X144228670Y-138510131D01*
X144060131Y-138678670D01*
X143927712Y-138876850D01*
X143836499Y-139097056D01*
X143790000Y-139330825D01*
X141147863Y-139330825D01*
X141125565Y-139308527D01*
X141083501Y-139097056D01*
X140992288Y-138876850D01*
X140859869Y-138678670D01*
X140691330Y-138510131D01*
X140493150Y-138377712D01*
X140272944Y-138286499D01*
X140039175Y-138240000D01*
X139800825Y-138240000D01*
X139567056Y-138286499D01*
X139346850Y-138377712D01*
X139148670Y-138510131D01*
X138980131Y-138678670D01*
X138847712Y-138876850D01*
X138756499Y-139097056D01*
X138710000Y-139330825D01*
X138710000Y-139569175D01*
X138756499Y-139802944D01*
X138847712Y-140023150D01*
X138980131Y-140221330D01*
X139148670Y-140389869D01*
X139346850Y-140522288D01*
X139567056Y-140613501D01*
X139778527Y-140655565D01*
X141007500Y-141884538D01*
X141007501Y-149465460D01*
X135369569Y-155103393D01*
X135333222Y-155133222D01*
X135214194Y-155278259D01*
X135125748Y-155443732D01*
X135080584Y-155592617D01*
X135071283Y-155623278D01*
X135052892Y-155810000D01*
X135057500Y-155856785D01*
X135057501Y-163217695D01*
X134633441Y-163393346D01*
X134160921Y-163709074D01*
X133759075Y-164110920D01*
X133443347Y-164583440D01*
X133225870Y-165108477D01*
X133115001Y-165665852D01*
X133115001Y-166234148D01*
X133225870Y-166791523D01*
X133443347Y-167316560D01*
X133524679Y-167438282D01*
X133369569Y-167593393D01*
X133333222Y-167623222D01*
X133214194Y-167768259D01*
X133125748Y-167933732D01*
X133123847Y-167940000D01*
X133071283Y-168113278D01*
X133052892Y-168300000D01*
X132810000Y-168300000D01*
X132810000Y-151468665D01*
X133175000Y-151468665D01*
X133175000Y-151751335D01*
X133230147Y-152028574D01*
X133338320Y-152289727D01*
X133495363Y-152524759D01*
X133695241Y-152724637D01*
X133930273Y-152881680D01*
X134191426Y-152989853D01*
X134468665Y-153045000D01*
X134751335Y-153045000D01*
X135028574Y-152989853D01*
X135289727Y-152881680D01*
X135524759Y-152724637D01*
X135724637Y-152524759D01*
X135881680Y-152289727D01*
X135989853Y-152028574D01*
X136045000Y-151751335D01*
X136045000Y-151468665D01*
X135989853Y-151191426D01*
X135881680Y-150930273D01*
X135724637Y-150695241D01*
X135524759Y-150495363D01*
X135289727Y-150338320D01*
X135028574Y-150230147D01*
X134751335Y-150175000D01*
X134468665Y-150175000D01*
X134191426Y-150230147D01*
X133930273Y-150338320D01*
X133695241Y-150495363D01*
X133495363Y-150695241D01*
X133338320Y-150930273D01*
X133230147Y-151191426D01*
X133175000Y-151468665D01*
X132810000Y-151468665D01*
X132810000Y-141308665D01*
X133175000Y-141308665D01*
X133175000Y-141591335D01*
X133230147Y-141868574D01*
X133338320Y-142129727D01*
X133495363Y-142364759D01*
X133695241Y-142564637D01*
X133930273Y-142721680D01*
X134191426Y-142829853D01*
X134468665Y-142885000D01*
X134751335Y-142885000D01*
X135028574Y-142829853D01*
X135289727Y-142721680D01*
X135524759Y-142564637D01*
X135724637Y-142364759D01*
X135881680Y-142129727D01*
X135989853Y-141868574D01*
X136045000Y-141591335D01*
X136045000Y-141308665D01*
X135989853Y-141031426D01*
X135881680Y-140770273D01*
X135724637Y-140535241D01*
X135524759Y-140335363D01*
X135289727Y-140178320D01*
X135028574Y-140070147D01*
X134751335Y-140015000D01*
X134468665Y-140015000D01*
X134191426Y-140070147D01*
X133930273Y-140178320D01*
X133695241Y-140335363D01*
X133495363Y-140535241D01*
X133338320Y-140770273D01*
X133230147Y-141031426D01*
X133175000Y-141308665D01*
X132810000Y-141308665D01*
X132810000Y-132815852D01*
X137015001Y-132815852D01*
X137015001Y-133384148D01*
X137125870Y-133941523D01*
X137343347Y-134466560D01*
X137659075Y-134939080D01*
X138060921Y-135340926D01*
X138533441Y-135656654D01*
X139058478Y-135874131D01*
X139615853Y-135985000D01*
X140184149Y-135985000D01*
X140741524Y-135874131D01*
X141266561Y-135656654D01*
X141739081Y-135340926D01*
X142140927Y-134939080D01*
X142456655Y-134466560D01*
X142674132Y-133941523D01*
X142724163Y-133690000D01*
X144251929Y-133690000D01*
X144264189Y-133814482D01*
X144300499Y-133934180D01*
X144359464Y-134044494D01*
X144438816Y-134141185D01*
X144535507Y-134220537D01*
X144645821Y-134279502D01*
X144765519Y-134315812D01*
X144890001Y-134328072D01*
X146854251Y-134325000D01*
X147013001Y-134166250D01*
X147013001Y-131567000D01*
X147267001Y-131567000D01*
X147267001Y-134166250D01*
X147425751Y-134325000D01*
X149390001Y-134328072D01*
X149514483Y-134315812D01*
X149634181Y-134279502D01*
X149744495Y-134220537D01*
X149841186Y-134141185D01*
X149920538Y-134044494D01*
X149979503Y-133934180D01*
X150015813Y-133814482D01*
X150028073Y-133690000D01*
X150025001Y-131725750D01*
X149866251Y-131567000D01*
X147267001Y-131567000D01*
X147013001Y-131567000D01*
X144413751Y-131567000D01*
X144255001Y-131725750D01*
X144251929Y-133690000D01*
X142724163Y-133690000D01*
X142785001Y-133384148D01*
X142785001Y-132815852D01*
X142674132Y-132258477D01*
X142456655Y-131733440D01*
X142140927Y-131260920D01*
X141739081Y-130859074D01*
X141266561Y-130543346D01*
X140741524Y-130325869D01*
X140184149Y-130215000D01*
X139615853Y-130215000D01*
X139058478Y-130325869D01*
X138533441Y-130543346D01*
X138060921Y-130859074D01*
X137659075Y-131260920D01*
X137343347Y-131733440D01*
X137125870Y-132258477D01*
X137015001Y-132815852D01*
X132810000Y-132815852D01*
X132810000Y-126915852D01*
X133115001Y-126915852D01*
X133115001Y-127484148D01*
X133225870Y-128041523D01*
X133443347Y-128566560D01*
X133759075Y-129039080D01*
X134160921Y-129440926D01*
X134633441Y-129756654D01*
X135158478Y-129974131D01*
X135715853Y-130085000D01*
X136284149Y-130085000D01*
X136841524Y-129974131D01*
X137366561Y-129756654D01*
X137839081Y-129440926D01*
X138090007Y-129190000D01*
X144251929Y-129190000D01*
X144255001Y-131154250D01*
X144413751Y-131313000D01*
X147013001Y-131313000D01*
X147013001Y-128713750D01*
X147267001Y-128713750D01*
X147267001Y-131313000D01*
X149866251Y-131313000D01*
X150025001Y-131154250D01*
X150028073Y-129190000D01*
X150015813Y-129065518D01*
X149979503Y-128945820D01*
X149920538Y-128835506D01*
X149841186Y-128738815D01*
X149744495Y-128659463D01*
X149634181Y-128600498D01*
X149514483Y-128564188D01*
X149390001Y-128551928D01*
X147425751Y-128555000D01*
X147267001Y-128713750D01*
X147013001Y-128713750D01*
X146854251Y-128555000D01*
X144890001Y-128551928D01*
X144765519Y-128564188D01*
X144645821Y-128600498D01*
X144535507Y-128659463D01*
X144438816Y-128738815D01*
X144359464Y-128835506D01*
X144300499Y-128945820D01*
X144264189Y-129065518D01*
X144251929Y-129190000D01*
X138090007Y-129190000D01*
X138240927Y-129039080D01*
X138556655Y-128566560D01*
X138774132Y-128041523D01*
X138885001Y-127484148D01*
X138885001Y-126915852D01*
X138774132Y-126358477D01*
X138556655Y-125833440D01*
X138240927Y-125360920D01*
X137839081Y-124959074D01*
X137366561Y-124643346D01*
X136841524Y-124425869D01*
X136284149Y-124315000D01*
X135715853Y-124315000D01*
X135158478Y-124425869D01*
X134633441Y-124643346D01*
X134160921Y-124959074D01*
X133759075Y-125360920D01*
X133443347Y-125833440D01*
X133225870Y-126358477D01*
X133115001Y-126915852D01*
X132810000Y-126915852D01*
X132810000Y-123915852D01*
X145915001Y-123915852D01*
X145915001Y-124484148D01*
X146025870Y-125041523D01*
X146243347Y-125566560D01*
X146559075Y-126039080D01*
X146960921Y-126440926D01*
X147433441Y-126756654D01*
X147958478Y-126974131D01*
X148515853Y-127085000D01*
X149084149Y-127085000D01*
X149641524Y-126974131D01*
X150166561Y-126756654D01*
X150639081Y-126440926D01*
X151040927Y-126039080D01*
X151356655Y-125566560D01*
X151574132Y-125041523D01*
X151685001Y-124484148D01*
X151685001Y-123915852D01*
X151574132Y-123358477D01*
X151356655Y-122833440D01*
X151040927Y-122360920D01*
X150639081Y-121959074D01*
X150166561Y-121643346D01*
X149641524Y-121425869D01*
X149084149Y-121315000D01*
X148515853Y-121315000D01*
X147958478Y-121425869D01*
X147433441Y-121643346D01*
X146960921Y-121959074D01*
X146559075Y-122360920D01*
X146243347Y-122833440D01*
X146025870Y-123358477D01*
X145915001Y-123915852D01*
X132810000Y-123915852D01*
X132810000Y-120015852D01*
X140015001Y-120015852D01*
X140015001Y-120584148D01*
X140125870Y-121141523D01*
X140343347Y-121666560D01*
X140659075Y-122139080D01*
X141060921Y-122540926D01*
X141533441Y-122856654D01*
X142058478Y-123074131D01*
X142615853Y-123185000D01*
X143184149Y-123185000D01*
X143741524Y-123074131D01*
X144266561Y-122856654D01*
X144739081Y-122540926D01*
X145140927Y-122139080D01*
X145456655Y-121666560D01*
X145674132Y-121141523D01*
X145785001Y-120584148D01*
X145785001Y-120015852D01*
X145674132Y-119458477D01*
X145456655Y-118933440D01*
X145140927Y-118460920D01*
X144739081Y-118059074D01*
X144266561Y-117743346D01*
X143741524Y-117525869D01*
X143184149Y-117415000D01*
X142615853Y-117415000D01*
X142058478Y-117525869D01*
X141533441Y-117743346D01*
X141060921Y-118059074D01*
X140659075Y-118460920D01*
X140343347Y-118933440D01*
X140125870Y-119458477D01*
X140015001Y-120015852D01*
X132810000Y-120015852D01*
X132810000Y-113465852D01*
X137015001Y-113465852D01*
X137015001Y-114034148D01*
X137125870Y-114591523D01*
X137343347Y-115116560D01*
X137659075Y-115589080D01*
X138060921Y-115990926D01*
X138533441Y-116306654D01*
X139058478Y-116524131D01*
X139615853Y-116635000D01*
X140184149Y-116635000D01*
X140741524Y-116524131D01*
X141266561Y-116306654D01*
X141739081Y-115990926D01*
X142140927Y-115589080D01*
X142456655Y-115116560D01*
X142674132Y-114591523D01*
X142724163Y-114340000D01*
X144251929Y-114340000D01*
X144264189Y-114464482D01*
X144300499Y-114584180D01*
X144359464Y-114694494D01*
X144438816Y-114791185D01*
X144535507Y-114870537D01*
X144645821Y-114929502D01*
X144765519Y-114965812D01*
X144890001Y-114978072D01*
X146854251Y-114975000D01*
X147013001Y-114816250D01*
X147013001Y-112217000D01*
X147267001Y-112217000D01*
X147267001Y-114816250D01*
X147425751Y-114975000D01*
X149390001Y-114978072D01*
X149514483Y-114965812D01*
X149634181Y-114929502D01*
X149744495Y-114870537D01*
X149841186Y-114791185D01*
X149920538Y-114694494D01*
X149979503Y-114584180D01*
X150015813Y-114464482D01*
X150028073Y-114340000D01*
X150025001Y-112375750D01*
X149866251Y-112217000D01*
X147267001Y-112217000D01*
X147013001Y-112217000D01*
X144413751Y-112217000D01*
X144255001Y-112375750D01*
X144251929Y-114340000D01*
X142724163Y-114340000D01*
X142785001Y-114034148D01*
X142785001Y-113465852D01*
X142674132Y-112908477D01*
X142456655Y-112383440D01*
X142140927Y-111910920D01*
X141739081Y-111509074D01*
X141266561Y-111193346D01*
X140741524Y-110975869D01*
X140184149Y-110865000D01*
X139615853Y-110865000D01*
X139058478Y-110975869D01*
X138533441Y-111193346D01*
X138060921Y-111509074D01*
X137659075Y-111910920D01*
X137343347Y-112383440D01*
X137125870Y-112908477D01*
X137015001Y-113465852D01*
X132810000Y-113465852D01*
X132810000Y-107565852D01*
X133115001Y-107565852D01*
X133115001Y-108134148D01*
X133225870Y-108691523D01*
X133443347Y-109216560D01*
X133759075Y-109689080D01*
X134160921Y-110090926D01*
X134633441Y-110406654D01*
X135158478Y-110624131D01*
X135715853Y-110735000D01*
X136284149Y-110735000D01*
X136841524Y-110624131D01*
X137366561Y-110406654D01*
X137839081Y-110090926D01*
X138090007Y-109840000D01*
X144251929Y-109840000D01*
X144255001Y-111804250D01*
X144413751Y-111963000D01*
X147013001Y-111963000D01*
X147013001Y-109363750D01*
X147267001Y-109363750D01*
X147267001Y-111963000D01*
X149866251Y-111963000D01*
X150025001Y-111804250D01*
X150028073Y-109840000D01*
X150015813Y-109715518D01*
X149979503Y-109595820D01*
X149920538Y-109485506D01*
X149841186Y-109388815D01*
X149744495Y-109309463D01*
X149634181Y-109250498D01*
X149514483Y-109214188D01*
X149390001Y-109201928D01*
X147425751Y-109205000D01*
X147267001Y-109363750D01*
X147013001Y-109363750D01*
X146854251Y-109205000D01*
X144890001Y-109201928D01*
X144765519Y-109214188D01*
X144645821Y-109250498D01*
X144535507Y-109309463D01*
X144438816Y-109388815D01*
X144359464Y-109485506D01*
X144300499Y-109595820D01*
X144264189Y-109715518D01*
X144251929Y-109840000D01*
X138090007Y-109840000D01*
X138240927Y-109689080D01*
X138556655Y-109216560D01*
X138774132Y-108691523D01*
X138885001Y-108134148D01*
X138885001Y-107565852D01*
X138774132Y-107008477D01*
X138556655Y-106483440D01*
X138240927Y-106010920D01*
X137839081Y-105609074D01*
X137366561Y-105293346D01*
X136841524Y-105075869D01*
X136284149Y-104965000D01*
X135715853Y-104965000D01*
X135158478Y-105075869D01*
X134633441Y-105293346D01*
X134160921Y-105609074D01*
X133759075Y-106010920D01*
X133443347Y-106483440D01*
X133225870Y-107008477D01*
X133115001Y-107565852D01*
X132810000Y-107565852D01*
X132810000Y-104565852D01*
X145915001Y-104565852D01*
X145915001Y-105134148D01*
X146025870Y-105691523D01*
X146243347Y-106216560D01*
X146559075Y-106689080D01*
X146960921Y-107090926D01*
X147433441Y-107406654D01*
X147958478Y-107624131D01*
X148515853Y-107735000D01*
X149084149Y-107735000D01*
X149641524Y-107624131D01*
X150166561Y-107406654D01*
X150639081Y-107090926D01*
X151040927Y-106689080D01*
X151356655Y-106216560D01*
X151574132Y-105691523D01*
X151685001Y-105134148D01*
X151685001Y-104565852D01*
X151574132Y-104008477D01*
X151356655Y-103483440D01*
X151040927Y-103010920D01*
X150639081Y-102609074D01*
X150166561Y-102293346D01*
X149641524Y-102075869D01*
X149084149Y-101965000D01*
X148515853Y-101965000D01*
X147958478Y-102075869D01*
X147433441Y-102293346D01*
X146960921Y-102609074D01*
X146559075Y-103010920D01*
X146243347Y-103483440D01*
X146025870Y-104008477D01*
X145915001Y-104565852D01*
X132810000Y-104565852D01*
X132810000Y-100665852D01*
X140015001Y-100665852D01*
X140015001Y-101234148D01*
X140125870Y-101791523D01*
X140343347Y-102316560D01*
X140659075Y-102789080D01*
X141060921Y-103190926D01*
X141533441Y-103506654D01*
X142058478Y-103724131D01*
X142615853Y-103835000D01*
X143184149Y-103835000D01*
X143741524Y-103724131D01*
X144266561Y-103506654D01*
X144739081Y-103190926D01*
X145140927Y-102789080D01*
X145456655Y-102316560D01*
X145674132Y-101791523D01*
X145785001Y-101234148D01*
X145785001Y-100665852D01*
X145674132Y-100108477D01*
X145456655Y-99583440D01*
X145140927Y-99110920D01*
X144739081Y-98709074D01*
X144266561Y-98393346D01*
X143741524Y-98175869D01*
X143184149Y-98065000D01*
X142615853Y-98065000D01*
X142058478Y-98175869D01*
X141533441Y-98393346D01*
X141060921Y-98709074D01*
X140659075Y-99110920D01*
X140343347Y-99583440D01*
X140125870Y-100108477D01*
X140015001Y-100665852D01*
X132810000Y-100665852D01*
X132810000Y-96842702D01*
X135286903Y-96842702D01*
X135358486Y-97086671D01*
X135613996Y-97207571D01*
X135888184Y-97276300D01*
X136170512Y-97290217D01*
X136450130Y-97248787D01*
X136716292Y-97153603D01*
X136841514Y-97086671D01*
X136913097Y-96842702D01*
X136899060Y-96828665D01*
X147165000Y-96828665D01*
X147165000Y-97111335D01*
X147220147Y-97388574D01*
X147328320Y-97649727D01*
X147485363Y-97884759D01*
X147685241Y-98084637D01*
X147920273Y-98241680D01*
X148181426Y-98349853D01*
X148458665Y-98405000D01*
X148741335Y-98405000D01*
X149018574Y-98349853D01*
X149279727Y-98241680D01*
X149514759Y-98084637D01*
X149714637Y-97884759D01*
X149871680Y-97649727D01*
X149979853Y-97388574D01*
X150035000Y-97111335D01*
X150035000Y-96828665D01*
X149979853Y-96551426D01*
X149871680Y-96290273D01*
X149714637Y-96055241D01*
X149514759Y-95855363D01*
X149279727Y-95698320D01*
X149018574Y-95590147D01*
X148741335Y-95535000D01*
X148458665Y-95535000D01*
X148181426Y-95590147D01*
X147920273Y-95698320D01*
X147685241Y-95855363D01*
X147485363Y-96055241D01*
X147328320Y-96290273D01*
X147220147Y-96551426D01*
X147165000Y-96828665D01*
X136899060Y-96828665D01*
X136100000Y-96029605D01*
X135286903Y-96842702D01*
X132810000Y-96842702D01*
X132810000Y-95920512D01*
X134659783Y-95920512D01*
X134701213Y-96200130D01*
X134796397Y-96466292D01*
X134863329Y-96591514D01*
X135107298Y-96663097D01*
X135920395Y-95850000D01*
X136279605Y-95850000D01*
X137092702Y-96663097D01*
X137336671Y-96591514D01*
X137457571Y-96336004D01*
X137526300Y-96061816D01*
X137540217Y-95779488D01*
X137498787Y-95499870D01*
X137403603Y-95233708D01*
X137336671Y-95108486D01*
X137092702Y-95036903D01*
X136279605Y-95850000D01*
X135920395Y-95850000D01*
X135107298Y-95036903D01*
X134863329Y-95108486D01*
X134742429Y-95363996D01*
X134673700Y-95638184D01*
X134659783Y-95920512D01*
X132810000Y-95920512D01*
X132810000Y-94857298D01*
X135286903Y-94857298D01*
X136100000Y-95670395D01*
X136913097Y-94857298D01*
X136841514Y-94613329D01*
X136586004Y-94492429D01*
X136311816Y-94423700D01*
X136029488Y-94409783D01*
X135749870Y-94451213D01*
X135483708Y-94546397D01*
X135358486Y-94613329D01*
X135286903Y-94857298D01*
X132810000Y-94857298D01*
X132810000Y-93198816D01*
X139795000Y-93198816D01*
X139795000Y-93501184D01*
X139853989Y-93797743D01*
X139969701Y-94077095D01*
X140137688Y-94328505D01*
X140351495Y-94542312D01*
X140602905Y-94710299D01*
X140882257Y-94826011D01*
X141178816Y-94885000D01*
X141481184Y-94885000D01*
X141777743Y-94826011D01*
X142057095Y-94710299D01*
X142308505Y-94542312D01*
X142374944Y-94475873D01*
X142380498Y-94494180D01*
X142439463Y-94604494D01*
X142518815Y-94701185D01*
X142615506Y-94780537D01*
X142725820Y-94839502D01*
X142845518Y-94875812D01*
X142970000Y-94888072D01*
X143584250Y-94885000D01*
X143743000Y-94726250D01*
X143743000Y-93477000D01*
X143997000Y-93477000D01*
X143997000Y-94726250D01*
X144155750Y-94885000D01*
X144770000Y-94888072D01*
X144894482Y-94875812D01*
X145014180Y-94839502D01*
X145124494Y-94780537D01*
X145221185Y-94701185D01*
X145300537Y-94604494D01*
X145359502Y-94494180D01*
X145395812Y-94374482D01*
X145408072Y-94250000D01*
X145405000Y-93635750D01*
X145246250Y-93477000D01*
X143997000Y-93477000D01*
X143743000Y-93477000D01*
X143723000Y-93477000D01*
X143723000Y-93223000D01*
X143743000Y-93223000D01*
X143743000Y-91973750D01*
X143997000Y-91973750D01*
X143997000Y-93223000D01*
X145246250Y-93223000D01*
X145405000Y-93064250D01*
X145408072Y-92450000D01*
X145395812Y-92325518D01*
X145359502Y-92205820D01*
X145300537Y-92095506D01*
X145221185Y-91998815D01*
X145124494Y-91919463D01*
X145014180Y-91860498D01*
X144894482Y-91824188D01*
X144770000Y-91811928D01*
X144155750Y-91815000D01*
X143997000Y-91973750D01*
X143743000Y-91973750D01*
X143584250Y-91815000D01*
X142970000Y-91811928D01*
X142845518Y-91824188D01*
X142725820Y-91860498D01*
X142615506Y-91919463D01*
X142518815Y-91998815D01*
X142439463Y-92095506D01*
X142380498Y-92205820D01*
X142374944Y-92224127D01*
X142308505Y-92157688D01*
X142057095Y-91989701D01*
X141777743Y-91873989D01*
X141481184Y-91815000D01*
X141178816Y-91815000D01*
X140882257Y-91873989D01*
X140602905Y-91989701D01*
X140351495Y-92157688D01*
X140137688Y-92371495D01*
X139969701Y-92622905D01*
X139853989Y-92902257D01*
X139795000Y-93198816D01*
X132810000Y-93198816D01*
X132810000Y-90138816D01*
X132923222Y-90276778D01*
X132959569Y-90306607D01*
X134143397Y-91490436D01*
X134173222Y-91526778D01*
X134318259Y-91645806D01*
X134483731Y-91734252D01*
X134663277Y-91788717D01*
X134850000Y-91807108D01*
X134896785Y-91802500D01*
X135023104Y-91802500D01*
X135185241Y-91964637D01*
X135420273Y-92121680D01*
X135681426Y-92229853D01*
X135958665Y-92285000D01*
X136241335Y-92285000D01*
X136518574Y-92229853D01*
X136779727Y-92121680D01*
X137014759Y-91964637D01*
X137214637Y-91764759D01*
X137371680Y-91529727D01*
X137479853Y-91268574D01*
X137535000Y-90991335D01*
X137535000Y-90708665D01*
X137479853Y-90431426D01*
X137371680Y-90170273D01*
X137214637Y-89935241D01*
X137014759Y-89735363D01*
X136779727Y-89578320D01*
X136518574Y-89470147D01*
X136241335Y-89415000D01*
X135958665Y-89415000D01*
X135681426Y-89470147D01*
X135420273Y-89578320D01*
X135185241Y-89735363D01*
X135133821Y-89786783D01*
X134552500Y-89205462D01*
X134552500Y-88550000D01*
X147161928Y-88550000D01*
X147161928Y-90150000D01*
X147174188Y-90274482D01*
X147210498Y-90394180D01*
X147269463Y-90504494D01*
X147348815Y-90601185D01*
X147445506Y-90680537D01*
X147555820Y-90739502D01*
X147675518Y-90775812D01*
X147800000Y-90788072D01*
X149400000Y-90788072D01*
X149524482Y-90775812D01*
X149644180Y-90739502D01*
X149754494Y-90680537D01*
X149851185Y-90601185D01*
X149930537Y-90504494D01*
X149989502Y-90394180D01*
X150025812Y-90274482D01*
X150038072Y-90150000D01*
X150038072Y-88550000D01*
X150025812Y-88425518D01*
X149989502Y-88305820D01*
X149930537Y-88195506D01*
X149851185Y-88098815D01*
X149754494Y-88019463D01*
X149644180Y-87960498D01*
X149524482Y-87924188D01*
X149400000Y-87911928D01*
X147800000Y-87911928D01*
X147675518Y-87924188D01*
X147555820Y-87960498D01*
X147445506Y-88019463D01*
X147348815Y-88098815D01*
X147269463Y-88195506D01*
X147210498Y-88305820D01*
X147174188Y-88425518D01*
X147161928Y-88550000D01*
X134552500Y-88550000D01*
X134552500Y-85215852D01*
X137015001Y-85215852D01*
X137015001Y-85784148D01*
X137125870Y-86341523D01*
X137343347Y-86866560D01*
X137659075Y-87339080D01*
X138060921Y-87740926D01*
X138533441Y-88056654D01*
X139058478Y-88274131D01*
X139615853Y-88385000D01*
X140184149Y-88385000D01*
X140741524Y-88274131D01*
X141266561Y-88056654D01*
X141739081Y-87740926D01*
X142140927Y-87339080D01*
X142456655Y-86866560D01*
X142674132Y-86341523D01*
X142724163Y-86090000D01*
X144251929Y-86090000D01*
X144264189Y-86214482D01*
X144300499Y-86334180D01*
X144359464Y-86444494D01*
X144438816Y-86541185D01*
X144535507Y-86620537D01*
X144645821Y-86679502D01*
X144765519Y-86715812D01*
X144890001Y-86728072D01*
X146854251Y-86725000D01*
X147013001Y-86566250D01*
X147013001Y-83967000D01*
X147267001Y-83967000D01*
X147267001Y-86566250D01*
X147425751Y-86725000D01*
X149390001Y-86728072D01*
X149514483Y-86715812D01*
X149634181Y-86679502D01*
X149744495Y-86620537D01*
X149841186Y-86541185D01*
X149920538Y-86444494D01*
X149979503Y-86334180D01*
X150015813Y-86214482D01*
X150028073Y-86090000D01*
X150025001Y-84125750D01*
X149866251Y-83967000D01*
X147267001Y-83967000D01*
X147013001Y-83967000D01*
X144413751Y-83967000D01*
X144255001Y-84125750D01*
X144251929Y-86090000D01*
X142724163Y-86090000D01*
X142785001Y-85784148D01*
X142785001Y-85215852D01*
X142674132Y-84658477D01*
X142456655Y-84133440D01*
X142140927Y-83660920D01*
X141739081Y-83259074D01*
X141266561Y-82943346D01*
X140741524Y-82725869D01*
X140184149Y-82615000D01*
X139615853Y-82615000D01*
X139058478Y-82725869D01*
X138533441Y-82943346D01*
X138060921Y-83259074D01*
X137659075Y-83660920D01*
X137343347Y-84133440D01*
X137125870Y-84658477D01*
X137015001Y-85215852D01*
X134552500Y-85215852D01*
X134552500Y-82344538D01*
X134709061Y-82187977D01*
X135158478Y-82374131D01*
X135715853Y-82485000D01*
X136284149Y-82485000D01*
X136841524Y-82374131D01*
X137366561Y-82156654D01*
X137839081Y-81840926D01*
X138090007Y-81590000D01*
X144251929Y-81590000D01*
X144255001Y-83554250D01*
X144413751Y-83713000D01*
X147013001Y-83713000D01*
X147013001Y-81113750D01*
X147267001Y-81113750D01*
X147267001Y-83713000D01*
X149866251Y-83713000D01*
X150025001Y-83554250D01*
X150028073Y-81590000D01*
X150015813Y-81465518D01*
X149979503Y-81345820D01*
X149920538Y-81235506D01*
X149841186Y-81138815D01*
X149744495Y-81059463D01*
X149634181Y-81000498D01*
X149514483Y-80964188D01*
X149390001Y-80951928D01*
X147425751Y-80955000D01*
X147267001Y-81113750D01*
X147013001Y-81113750D01*
X146854251Y-80955000D01*
X144890001Y-80951928D01*
X144765519Y-80964188D01*
X144645821Y-81000498D01*
X144535507Y-81059463D01*
X144438816Y-81138815D01*
X144359464Y-81235506D01*
X144300499Y-81345820D01*
X144264189Y-81465518D01*
X144251929Y-81590000D01*
X138090007Y-81590000D01*
X138240927Y-81439080D01*
X138556655Y-80966560D01*
X138774132Y-80441523D01*
X138885001Y-79884148D01*
X138885001Y-79315852D01*
X138774132Y-78758477D01*
X138556655Y-78233440D01*
X138240927Y-77760920D01*
X137839081Y-77359074D01*
X137366561Y-77043346D01*
X136902500Y-76851126D01*
X136902500Y-76315852D01*
X145915001Y-76315852D01*
X145915001Y-76884148D01*
X146025870Y-77441523D01*
X146243347Y-77966560D01*
X146559075Y-78439080D01*
X146960921Y-78840926D01*
X147433441Y-79156654D01*
X147958478Y-79374131D01*
X148515853Y-79485000D01*
X149084149Y-79485000D01*
X149641524Y-79374131D01*
X150166561Y-79156654D01*
X150639081Y-78840926D01*
X151040927Y-78439080D01*
X151356655Y-77966560D01*
X151574132Y-77441523D01*
X151685001Y-76884148D01*
X151685001Y-76315852D01*
X151574132Y-75758477D01*
X151356655Y-75233440D01*
X151040927Y-74760920D01*
X150639081Y-74359074D01*
X150166561Y-74043346D01*
X149641524Y-73825869D01*
X149084149Y-73715000D01*
X148515853Y-73715000D01*
X147958478Y-73825869D01*
X147433441Y-74043346D01*
X146960921Y-74359074D01*
X146559075Y-74760920D01*
X146243347Y-75233440D01*
X146025870Y-75758477D01*
X145915001Y-76315852D01*
X136902500Y-76315852D01*
X136902500Y-72415852D01*
X140015001Y-72415852D01*
X140015001Y-72984148D01*
X140125870Y-73541523D01*
X140343347Y-74066560D01*
X140659075Y-74539080D01*
X141060921Y-74940926D01*
X141533441Y-75256654D01*
X142058478Y-75474131D01*
X142615853Y-75585000D01*
X143184149Y-75585000D01*
X143741524Y-75474131D01*
X144266561Y-75256654D01*
X144739081Y-74940926D01*
X145140927Y-74539080D01*
X145456655Y-74066560D01*
X145674132Y-73541523D01*
X145785001Y-72984148D01*
X145785001Y-72415852D01*
X145674132Y-71858477D01*
X145456655Y-71333440D01*
X145140927Y-70860920D01*
X144739081Y-70459074D01*
X144266561Y-70143346D01*
X143741524Y-69925869D01*
X143184149Y-69815000D01*
X142615853Y-69815000D01*
X142058478Y-69925869D01*
X141533441Y-70143346D01*
X141060921Y-70459074D01*
X140659075Y-70860920D01*
X140343347Y-71333440D01*
X140125870Y-71858477D01*
X140015001Y-72415852D01*
X136902500Y-72415852D01*
X136902500Y-69644538D01*
X138566213Y-67980825D01*
X139340000Y-67980825D01*
X139340000Y-68219175D01*
X139386499Y-68452944D01*
X139477712Y-68673150D01*
X139610131Y-68871330D01*
X139778670Y-69039869D01*
X139976850Y-69172288D01*
X140197056Y-69263501D01*
X140430825Y-69310000D01*
X140669175Y-69310000D01*
X140902944Y-69263501D01*
X141123150Y-69172288D01*
X141321330Y-69039869D01*
X141489869Y-68871330D01*
X141622288Y-68673150D01*
X141713501Y-68452944D01*
X141760000Y-68219175D01*
X141760000Y-67980825D01*
X141726519Y-67812500D01*
X143136928Y-67812500D01*
X143136928Y-68387500D01*
X143154713Y-68568070D01*
X143207383Y-68741701D01*
X143292915Y-68901720D01*
X143408022Y-69041978D01*
X143548280Y-69157085D01*
X143708299Y-69242617D01*
X143881930Y-69295287D01*
X144062500Y-69313072D01*
X144637500Y-69313072D01*
X144818070Y-69295287D01*
X144991701Y-69242617D01*
X145151720Y-69157085D01*
X145291978Y-69041978D01*
X145407085Y-68901720D01*
X145492617Y-68741701D01*
X145545287Y-68568070D01*
X145563072Y-68387500D01*
X145563072Y-67812500D01*
X145545287Y-67631930D01*
X145492617Y-67458299D01*
X145407085Y-67298280D01*
X145302500Y-67170843D01*
X145302500Y-66994538D01*
X146244538Y-66052500D01*
X149273104Y-66052500D01*
X149435241Y-66214637D01*
X149670273Y-66371680D01*
X149931426Y-66479853D01*
X150208665Y-66535000D01*
X150491335Y-66535000D01*
X150768574Y-66479853D01*
X151029727Y-66371680D01*
X151264759Y-66214637D01*
X151464637Y-66014759D01*
X151621680Y-65779727D01*
X151729853Y-65518574D01*
X151785000Y-65241335D01*
X151785000Y-64958665D01*
X151729853Y-64681426D01*
X151621680Y-64420273D01*
X151464637Y-64185241D01*
X151264759Y-63985363D01*
X151029727Y-63828320D01*
X150768574Y-63720147D01*
X150491335Y-63665000D01*
X150208665Y-63665000D01*
X149931426Y-63720147D01*
X149670273Y-63828320D01*
X149435241Y-63985363D01*
X149273104Y-64147500D01*
X145896784Y-64147500D01*
X145849999Y-64142892D01*
X145663277Y-64161283D01*
X145483731Y-64215748D01*
X145318259Y-64304194D01*
X145173222Y-64423222D01*
X145143393Y-64459569D01*
X143709565Y-65893397D01*
X143673223Y-65923222D01*
X143643399Y-65959563D01*
X143554194Y-66068260D01*
X143465749Y-66233731D01*
X143411283Y-66413278D01*
X143392892Y-66600000D01*
X143397501Y-66646794D01*
X143397501Y-67170842D01*
X143292915Y-67298280D01*
X143207383Y-67458299D01*
X143154713Y-67631930D01*
X143136928Y-67812500D01*
X141726519Y-67812500D01*
X141713501Y-67747056D01*
X141622288Y-67526850D01*
X141489869Y-67328670D01*
X141321330Y-67160131D01*
X141123150Y-67027712D01*
X140902944Y-66936499D01*
X140669175Y-66890000D01*
X140430825Y-66890000D01*
X140197056Y-66936499D01*
X139976850Y-67027712D01*
X139778670Y-67160131D01*
X139610131Y-67328670D01*
X139477712Y-67526850D01*
X139386499Y-67747056D01*
X139340000Y-67980825D01*
X138566213Y-67980825D01*
X141740436Y-64806603D01*
X141776778Y-64776778D01*
X141895806Y-64631741D01*
X141984252Y-64466269D01*
X142038717Y-64286723D01*
X142052500Y-64146785D01*
X142052500Y-64146784D01*
X142057108Y-64100000D01*
X142052500Y-64053215D01*
X142052500Y-55289040D01*
X148958091Y-55289040D01*
X149052930Y-55553881D01*
X149197615Y-55795131D01*
X149386586Y-56003519D01*
X149612580Y-56171037D01*
X149866913Y-56291246D01*
X150000961Y-56331904D01*
X150223000Y-56209915D01*
X150223000Y-55067000D01*
X150477000Y-55067000D01*
X150477000Y-56209915D01*
X150699039Y-56331904D01*
X150833087Y-56291246D01*
X151087420Y-56171037D01*
X151313414Y-56003519D01*
X151502385Y-55795131D01*
X151647070Y-55553881D01*
X151741909Y-55289040D01*
X151620624Y-55067000D01*
X150477000Y-55067000D01*
X150223000Y-55067000D01*
X149079376Y-55067000D01*
X148958091Y-55289040D01*
X142052500Y-55289040D01*
X142052500Y-54590960D01*
X148958091Y-54590960D01*
X149079376Y-54813000D01*
X150223000Y-54813000D01*
X150223000Y-53670085D01*
X150477000Y-53670085D01*
X150477000Y-54813000D01*
X151620624Y-54813000D01*
X151741909Y-54590960D01*
X151647070Y-54326119D01*
X151502385Y-54084869D01*
X151313414Y-53876481D01*
X151087420Y-53708963D01*
X150833087Y-53588754D01*
X150699039Y-53548096D01*
X150477000Y-53670085D01*
X150223000Y-53670085D01*
X150000961Y-53548096D01*
X149866913Y-53588754D01*
X149612580Y-53708963D01*
X149386586Y-53876481D01*
X149197615Y-54084869D01*
X149052930Y-54326119D01*
X148958091Y-54590960D01*
X142052500Y-54590960D01*
X142052500Y-54336784D01*
X142057108Y-54289999D01*
X142038717Y-54103277D01*
X142002948Y-53985363D01*
X141984252Y-53923731D01*
X141895806Y-53758259D01*
X141776778Y-53613222D01*
X141740436Y-53583397D01*
X141137864Y-52980825D01*
X143780000Y-52980825D01*
X143780000Y-53219175D01*
X143826499Y-53452944D01*
X143917712Y-53673150D01*
X144050131Y-53871330D01*
X144218670Y-54039869D01*
X144416850Y-54172288D01*
X144637056Y-54263501D01*
X144870825Y-54310000D01*
X145109175Y-54310000D01*
X145342944Y-54263501D01*
X145563150Y-54172288D01*
X145761330Y-54039869D01*
X145929869Y-53871330D01*
X146062288Y-53673150D01*
X146153501Y-53452944D01*
X146200000Y-53219175D01*
X146200000Y-52980825D01*
X146153501Y-52747056D01*
X146062288Y-52526850D01*
X145929869Y-52328670D01*
X145761330Y-52160131D01*
X145563150Y-52027712D01*
X145342944Y-51936499D01*
X145109175Y-51890000D01*
X144870825Y-51890000D01*
X144637056Y-51936499D01*
X144416850Y-52027712D01*
X144218670Y-52160131D01*
X144050131Y-52328670D01*
X143917712Y-52526850D01*
X143826499Y-52747056D01*
X143780000Y-52980825D01*
X141137864Y-52980825D01*
X141115565Y-52958526D01*
X141073501Y-52747056D01*
X140982288Y-52526850D01*
X140849869Y-52328670D01*
X140681330Y-52160131D01*
X140483150Y-52027712D01*
X140262944Y-51936499D01*
X140029175Y-51890000D01*
X139790825Y-51890000D01*
X139557056Y-51936499D01*
X139336850Y-52027712D01*
X139138670Y-52160131D01*
X138970131Y-52328670D01*
X138837712Y-52526850D01*
X138746499Y-52747056D01*
X138700000Y-52980825D01*
X138700000Y-53219175D01*
X138746499Y-53452944D01*
X138837712Y-53673150D01*
X138970131Y-53871330D01*
X139138670Y-54039869D01*
X139336850Y-54172288D01*
X139557056Y-54263501D01*
X139768526Y-54305565D01*
X140147501Y-54684540D01*
X140147500Y-63705461D01*
X135309564Y-68543398D01*
X135273223Y-68573222D01*
X135243399Y-68609563D01*
X135154194Y-68718260D01*
X135065749Y-68883731D01*
X135011283Y-69063278D01*
X134992892Y-69250000D01*
X134997501Y-69296795D01*
X134997500Y-76892548D01*
X134633441Y-77043346D01*
X134160921Y-77359074D01*
X133759075Y-77760920D01*
X133443347Y-78233440D01*
X133225870Y-78758477D01*
X133115001Y-79315852D01*
X133115001Y-79884148D01*
X133225870Y-80441523D01*
X133382734Y-80820228D01*
X132959564Y-81243398D01*
X132923223Y-81273222D01*
X132893399Y-81309563D01*
X132810000Y-81411185D01*
X132810000Y-65118665D01*
X133165000Y-65118665D01*
X133165000Y-65401335D01*
X133220147Y-65678574D01*
X133328320Y-65939727D01*
X133485363Y-66174759D01*
X133685241Y-66374637D01*
X133920273Y-66531680D01*
X134181426Y-66639853D01*
X134458665Y-66695000D01*
X134741335Y-66695000D01*
X135018574Y-66639853D01*
X135279727Y-66531680D01*
X135514759Y-66374637D01*
X135714637Y-66174759D01*
X135871680Y-65939727D01*
X135979853Y-65678574D01*
X136035000Y-65401335D01*
X136035000Y-65118665D01*
X135979853Y-64841426D01*
X135871680Y-64580273D01*
X135714637Y-64345241D01*
X135514759Y-64145363D01*
X135279727Y-63988320D01*
X135018574Y-63880147D01*
X134741335Y-63825000D01*
X134458665Y-63825000D01*
X134181426Y-63880147D01*
X133920273Y-63988320D01*
X133685241Y-64145363D01*
X133485363Y-64345241D01*
X133328320Y-64580273D01*
X133220147Y-64841426D01*
X133165000Y-65118665D01*
X132810000Y-65118665D01*
X132810000Y-54958665D01*
X133165000Y-54958665D01*
X133165000Y-55241335D01*
X133220147Y-55518574D01*
X133328320Y-55779727D01*
X133485363Y-56014759D01*
X133685241Y-56214637D01*
X133920273Y-56371680D01*
X134181426Y-56479853D01*
X134458665Y-56535000D01*
X134741335Y-56535000D01*
X135018574Y-56479853D01*
X135279727Y-56371680D01*
X135514759Y-56214637D01*
X135714637Y-56014759D01*
X135871680Y-55779727D01*
X135979853Y-55518574D01*
X136035000Y-55241335D01*
X136035000Y-54958665D01*
X135979853Y-54681426D01*
X135871680Y-54420273D01*
X135714637Y-54185241D01*
X135514759Y-53985363D01*
X135279727Y-53828320D01*
X135018574Y-53720147D01*
X134741335Y-53665000D01*
X134458665Y-53665000D01*
X134181426Y-53720147D01*
X133920273Y-53828320D01*
X133685241Y-53985363D01*
X133485363Y-54185241D01*
X133328320Y-54420273D01*
X133220147Y-54681426D01*
X133165000Y-54958665D01*
X132810000Y-54958665D01*
X132810000Y-46465852D01*
X137015001Y-46465852D01*
X137015001Y-47034148D01*
X137125870Y-47591523D01*
X137343347Y-48116560D01*
X137659075Y-48589080D01*
X138060921Y-48990926D01*
X138533441Y-49306654D01*
X139058478Y-49524131D01*
X139615853Y-49635000D01*
X140184149Y-49635000D01*
X140741524Y-49524131D01*
X141266561Y-49306654D01*
X141739081Y-48990926D01*
X142140927Y-48589080D01*
X142456655Y-48116560D01*
X142674132Y-47591523D01*
X142724163Y-47340000D01*
X144251929Y-47340000D01*
X144264189Y-47464482D01*
X144300499Y-47584180D01*
X144359464Y-47694494D01*
X144438816Y-47791185D01*
X144535507Y-47870537D01*
X144645821Y-47929502D01*
X144765519Y-47965812D01*
X144890001Y-47978072D01*
X146854251Y-47975000D01*
X147013001Y-47816250D01*
X147013001Y-45217000D01*
X147267001Y-45217000D01*
X147267001Y-47816250D01*
X147425751Y-47975000D01*
X149390001Y-47978072D01*
X149514483Y-47965812D01*
X149634181Y-47929502D01*
X149744495Y-47870537D01*
X149841186Y-47791185D01*
X149920538Y-47694494D01*
X149979503Y-47584180D01*
X150015813Y-47464482D01*
X150028073Y-47340000D01*
X150025001Y-45375750D01*
X149866251Y-45217000D01*
X147267001Y-45217000D01*
X147013001Y-45217000D01*
X144413751Y-45217000D01*
X144255001Y-45375750D01*
X144251929Y-47340000D01*
X142724163Y-47340000D01*
X142785001Y-47034148D01*
X142785001Y-46465852D01*
X142674132Y-45908477D01*
X142456655Y-45383440D01*
X142140927Y-44910920D01*
X141739081Y-44509074D01*
X141266561Y-44193346D01*
X140741524Y-43975869D01*
X140184149Y-43865000D01*
X139615853Y-43865000D01*
X139058478Y-43975869D01*
X138533441Y-44193346D01*
X138060921Y-44509074D01*
X137659075Y-44910920D01*
X137343347Y-45383440D01*
X137125870Y-45908477D01*
X137015001Y-46465852D01*
X132810000Y-46465852D01*
X132810000Y-40565852D01*
X133115001Y-40565852D01*
X133115001Y-41134148D01*
X133225870Y-41691523D01*
X133443347Y-42216560D01*
X133759075Y-42689080D01*
X134160921Y-43090926D01*
X134633441Y-43406654D01*
X135158478Y-43624131D01*
X135715853Y-43735000D01*
X136284149Y-43735000D01*
X136841524Y-43624131D01*
X137366561Y-43406654D01*
X137839081Y-43090926D01*
X138090007Y-42840000D01*
X144251929Y-42840000D01*
X144255001Y-44804250D01*
X144413751Y-44963000D01*
X147013001Y-44963000D01*
X147013001Y-42363750D01*
X147267001Y-42363750D01*
X147267001Y-44963000D01*
X149866251Y-44963000D01*
X150025001Y-44804250D01*
X150028073Y-42840000D01*
X150015813Y-42715518D01*
X149979503Y-42595820D01*
X149920538Y-42485506D01*
X149841186Y-42388815D01*
X149744495Y-42309463D01*
X149634181Y-42250498D01*
X149514483Y-42214188D01*
X149390001Y-42201928D01*
X147425751Y-42205000D01*
X147267001Y-42363750D01*
X147013001Y-42363750D01*
X146854251Y-42205000D01*
X144890001Y-42201928D01*
X144765519Y-42214188D01*
X144645821Y-42250498D01*
X144535507Y-42309463D01*
X144438816Y-42388815D01*
X144359464Y-42485506D01*
X144300499Y-42595820D01*
X144264189Y-42715518D01*
X144251929Y-42840000D01*
X138090007Y-42840000D01*
X138240927Y-42689080D01*
X138556655Y-42216560D01*
X138774132Y-41691523D01*
X138885001Y-41134148D01*
X138885001Y-40565852D01*
X138774132Y-40008477D01*
X138556655Y-39483440D01*
X138240927Y-39010920D01*
X137839081Y-38609074D01*
X137366561Y-38293346D01*
X136841524Y-38075869D01*
X136284149Y-37965000D01*
X135715853Y-37965000D01*
X135158478Y-38075869D01*
X134633441Y-38293346D01*
X134160921Y-38609074D01*
X133759075Y-39010920D01*
X133443347Y-39483440D01*
X133225870Y-40008477D01*
X133115001Y-40565852D01*
X132810000Y-40565852D01*
X132810000Y-37565852D01*
X145915001Y-37565852D01*
X145915001Y-38134148D01*
X146025870Y-38691523D01*
X146243347Y-39216560D01*
X146559075Y-39689080D01*
X146960921Y-40090926D01*
X147433441Y-40406654D01*
X147958478Y-40624131D01*
X148515853Y-40735000D01*
X149084149Y-40735000D01*
X149641524Y-40624131D01*
X150166561Y-40406654D01*
X150639081Y-40090926D01*
X151040927Y-39689080D01*
X151356655Y-39216560D01*
X151574132Y-38691523D01*
X151685001Y-38134148D01*
X151685001Y-37565852D01*
X151574132Y-37008477D01*
X151356655Y-36483440D01*
X151040927Y-36010920D01*
X150639081Y-35609074D01*
X150166561Y-35293346D01*
X149641524Y-35075869D01*
X149084149Y-34965000D01*
X148515853Y-34965000D01*
X147958478Y-35075869D01*
X147433441Y-35293346D01*
X146960921Y-35609074D01*
X146559075Y-36010920D01*
X146243347Y-36483440D01*
X146025870Y-37008477D01*
X145915001Y-37565852D01*
X132810000Y-37565852D01*
X132810000Y-33665852D01*
X140015001Y-33665852D01*
X140015001Y-34234148D01*
X140125870Y-34791523D01*
X140343347Y-35316560D01*
X140659075Y-35789080D01*
X141060921Y-36190926D01*
X141533441Y-36506654D01*
X142058478Y-36724131D01*
X142615853Y-36835000D01*
X143184149Y-36835000D01*
X143741524Y-36724131D01*
X144266561Y-36506654D01*
X144739081Y-36190926D01*
X145140927Y-35789080D01*
X145456655Y-35316560D01*
X145674132Y-34791523D01*
X145785001Y-34234148D01*
X145785001Y-33665852D01*
X145674132Y-33108477D01*
X145456655Y-32583440D01*
X145140927Y-32110920D01*
X144739081Y-31709074D01*
X144266561Y-31393346D01*
X143741524Y-31175869D01*
X143184149Y-31065000D01*
X142615853Y-31065000D01*
X142058478Y-31175869D01*
X141533441Y-31393346D01*
X141060921Y-31709074D01*
X140659075Y-32110920D01*
X140343347Y-32583440D01*
X140125870Y-33108477D01*
X140015001Y-33665852D01*
X132810000Y-33665852D01*
X132810000Y-30310000D01*
X152390000Y-30310000D01*
X152390001Y-203890000D01*
%TD*%
M02*
