%TF.GenerationSoftware,KiCad,Pcbnew,(5.1.6)-1*%
%TF.CreationDate,2020-06-24T18:06:57-05:00*%
%TF.ProjectId,Dual Passive VLPG,4475616c-2050-4617-9373-69766520564c,rev?*%
%TF.SameCoordinates,Original*%
%TF.FileFunction,Legend,Bot*%
%TF.FilePolarity,Positive*%
%FSLAX46Y46*%
G04 Gerber Fmt 4.6, Leading zero omitted, Abs format (unit mm)*
G04 Created by KiCad (PCBNEW (5.1.6)-1) date 2020-06-24 18:06:57*
%MOMM*%
%LPD*%
G01*
G04 APERTURE LIST*
%ADD10C,0.120000*%
%ADD11C,0.010000*%
%ADD12C,0.150000*%
G04 APERTURE END LIST*
D10*
%TO.C,U1*%
X137440000Y-55590000D02*
X147460000Y-55590000D01*
X137440000Y-65610000D02*
X137440000Y-55590000D01*
X144880000Y-65610000D02*
X137440000Y-65610000D01*
X147460000Y-63030000D02*
X144880000Y-65610000D01*
X147460000Y-55590000D02*
X147460000Y-63030000D01*
%TO.C,U2*%
X147470000Y-141940000D02*
X147470000Y-149380000D01*
X147470000Y-149380000D02*
X144890000Y-151960000D01*
X144890000Y-151960000D02*
X137450000Y-151960000D01*
X137450000Y-151960000D02*
X137450000Y-141940000D01*
X137450000Y-141940000D02*
X147470000Y-141940000D01*
D11*
%TO.C,G\u002A\u002A\u002A*%
G36*
X142793806Y-203099101D02*
G01*
X142772093Y-203128571D01*
X142794438Y-203181441D01*
X142798795Y-203187812D01*
X142843556Y-203234957D01*
X142879649Y-203232308D01*
X142910924Y-203179515D01*
X142911675Y-203177556D01*
X142931695Y-203119756D01*
X142925912Y-203095398D01*
X142886053Y-203090028D01*
X142861545Y-203089960D01*
X142793806Y-203099101D01*
G37*
X142793806Y-203099101D02*
X142772093Y-203128571D01*
X142794438Y-203181441D01*
X142798795Y-203187812D01*
X142843556Y-203234957D01*
X142879649Y-203232308D01*
X142910924Y-203179515D01*
X142911675Y-203177556D01*
X142931695Y-203119756D01*
X142925912Y-203095398D01*
X142886053Y-203090028D01*
X142861545Y-203089960D01*
X142793806Y-203099101D01*
G36*
X143015538Y-203090159D02*
G01*
X143015937Y-203144319D01*
X143017629Y-203160773D01*
X143028187Y-203212301D01*
X143052586Y-203223950D01*
X143083183Y-203215050D01*
X143129449Y-203178964D01*
X143138139Y-203131655D01*
X143109098Y-203091683D01*
X143084296Y-203081194D01*
X143035213Y-203072831D01*
X143015538Y-203090159D01*
G37*
X143015538Y-203090159D02*
X143015937Y-203144319D01*
X143017629Y-203160773D01*
X143028187Y-203212301D01*
X143052586Y-203223950D01*
X143083183Y-203215050D01*
X143129449Y-203178964D01*
X143138139Y-203131655D01*
X143109098Y-203091683D01*
X143084296Y-203081194D01*
X143035213Y-203072831D01*
X143015538Y-203090159D01*
G36*
X143430323Y-203234526D02*
G01*
X143375572Y-203279667D01*
X143307422Y-203343851D01*
X143293594Y-203357711D01*
X143224587Y-203429092D01*
X143187068Y-203474727D01*
X143175968Y-203504435D01*
X143186216Y-203528036D01*
X143198686Y-203541543D01*
X143226201Y-203563828D01*
X143253070Y-203563306D01*
X143291987Y-203535122D01*
X143343782Y-203486018D01*
X143402402Y-203430344D01*
X143438334Y-203405972D01*
X143465319Y-203408505D01*
X143497098Y-203433548D01*
X143499902Y-203436071D01*
X143522753Y-203459486D01*
X143537412Y-203487167D01*
X143544901Y-203528972D01*
X143546243Y-203594757D01*
X143542460Y-203694377D01*
X143537043Y-203794236D01*
X143530328Y-203925674D01*
X143528203Y-204014957D01*
X143531325Y-204070782D01*
X143540354Y-204101846D01*
X143555948Y-204116846D01*
X143561669Y-204119386D01*
X143603453Y-204131542D01*
X143629323Y-204122567D01*
X143644783Y-204083671D01*
X143655334Y-204006064D01*
X143659306Y-203963403D01*
X143668493Y-203854456D01*
X143679144Y-203719854D01*
X143689274Y-203584830D01*
X143691393Y-203555371D01*
X143708185Y-203319478D01*
X143645093Y-203319478D01*
X143579931Y-203301033D01*
X143535843Y-203268474D01*
X143491512Y-203230278D01*
X143460889Y-203217470D01*
X143430323Y-203234526D01*
G37*
X143430323Y-203234526D02*
X143375572Y-203279667D01*
X143307422Y-203343851D01*
X143293594Y-203357711D01*
X143224587Y-203429092D01*
X143187068Y-203474727D01*
X143175968Y-203504435D01*
X143186216Y-203528036D01*
X143198686Y-203541543D01*
X143226201Y-203563828D01*
X143253070Y-203563306D01*
X143291987Y-203535122D01*
X143343782Y-203486018D01*
X143402402Y-203430344D01*
X143438334Y-203405972D01*
X143465319Y-203408505D01*
X143497098Y-203433548D01*
X143499902Y-203436071D01*
X143522753Y-203459486D01*
X143537412Y-203487167D01*
X143544901Y-203528972D01*
X143546243Y-203594757D01*
X143542460Y-203694377D01*
X143537043Y-203794236D01*
X143530328Y-203925674D01*
X143528203Y-204014957D01*
X143531325Y-204070782D01*
X143540354Y-204101846D01*
X143555948Y-204116846D01*
X143561669Y-204119386D01*
X143603453Y-204131542D01*
X143629323Y-204122567D01*
X143644783Y-204083671D01*
X143655334Y-204006064D01*
X143659306Y-203963403D01*
X143668493Y-203854456D01*
X143679144Y-203719854D01*
X143689274Y-203584830D01*
X143691393Y-203555371D01*
X143708185Y-203319478D01*
X143645093Y-203319478D01*
X143579931Y-203301033D01*
X143535843Y-203268474D01*
X143491512Y-203230278D01*
X143460889Y-203217470D01*
X143430323Y-203234526D01*
G36*
X143917174Y-203281991D02*
G01*
X143821025Y-203335731D01*
X143765139Y-203375327D01*
X143743365Y-203407778D01*
X143749552Y-203440084D01*
X143761641Y-203458964D01*
X143783954Y-203483554D01*
X143810292Y-203487726D01*
X143854464Y-203469252D01*
X143916552Y-203433956D01*
X144037795Y-203362903D01*
X144343626Y-203668734D01*
X144156628Y-203824207D01*
X144069587Y-203895755D01*
X144012183Y-203938713D01*
X143975074Y-203957386D01*
X143948916Y-203956077D01*
X143924368Y-203939090D01*
X143918500Y-203933894D01*
X143857207Y-203884654D01*
X143815963Y-203870819D01*
X143781170Y-203889460D01*
X143769237Y-203901741D01*
X143749563Y-203929167D01*
X143752597Y-203954550D01*
X143784586Y-203988498D01*
X143851489Y-204041401D01*
X143918001Y-204090821D01*
X143966636Y-204124522D01*
X143984907Y-204134512D01*
X144006926Y-204118532D01*
X144060139Y-204075526D01*
X144137028Y-204011681D01*
X144230081Y-203933184D01*
X144249899Y-203916331D01*
X144345277Y-203834208D01*
X144425450Y-203763456D01*
X144482941Y-203710802D01*
X144510269Y-203682975D01*
X144511428Y-203681067D01*
X144496849Y-203657283D01*
X144452346Y-203605312D01*
X144384572Y-203532512D01*
X144300183Y-203446243D01*
X144288522Y-203434604D01*
X144059107Y-203206252D01*
X143917174Y-203281991D01*
G37*
X143917174Y-203281991D02*
X143821025Y-203335731D01*
X143765139Y-203375327D01*
X143743365Y-203407778D01*
X143749552Y-203440084D01*
X143761641Y-203458964D01*
X143783954Y-203483554D01*
X143810292Y-203487726D01*
X143854464Y-203469252D01*
X143916552Y-203433956D01*
X144037795Y-203362903D01*
X144343626Y-203668734D01*
X144156628Y-203824207D01*
X144069587Y-203895755D01*
X144012183Y-203938713D01*
X143975074Y-203957386D01*
X143948916Y-203956077D01*
X143924368Y-203939090D01*
X143918500Y-203933894D01*
X143857207Y-203884654D01*
X143815963Y-203870819D01*
X143781170Y-203889460D01*
X143769237Y-203901741D01*
X143749563Y-203929167D01*
X143752597Y-203954550D01*
X143784586Y-203988498D01*
X143851489Y-204041401D01*
X143918001Y-204090821D01*
X143966636Y-204124522D01*
X143984907Y-204134512D01*
X144006926Y-204118532D01*
X144060139Y-204075526D01*
X144137028Y-204011681D01*
X144230081Y-203933184D01*
X144249899Y-203916331D01*
X144345277Y-203834208D01*
X144425450Y-203763456D01*
X144482941Y-203710802D01*
X144510269Y-203682975D01*
X144511428Y-203681067D01*
X144496849Y-203657283D01*
X144452346Y-203605312D01*
X144384572Y-203532512D01*
X144300183Y-203446243D01*
X144288522Y-203434604D01*
X144059107Y-203206252D01*
X143917174Y-203281991D01*
G36*
X142030003Y-203348875D02*
G01*
X141940956Y-203403565D01*
X141891131Y-203443511D01*
X141874115Y-203476753D01*
X141883498Y-203511327D01*
X141890713Y-203523494D01*
X141910953Y-203542249D01*
X141943537Y-203539746D01*
X142000892Y-203513399D01*
X142038792Y-203492685D01*
X142162447Y-203423624D01*
X142312568Y-203575327D01*
X142388316Y-203657342D01*
X142431710Y-203716739D01*
X142439382Y-203748834D01*
X142438221Y-203750208D01*
X142407962Y-203776991D01*
X142350148Y-203826778D01*
X142276237Y-203889716D01*
X142261496Y-203902198D01*
X142109238Y-204031011D01*
X142023924Y-203965939D01*
X141969062Y-203926486D01*
X141937872Y-203916503D01*
X141914190Y-203933606D01*
X141902762Y-203948074D01*
X141886072Y-203978374D01*
X141892786Y-204007933D01*
X141929017Y-204048847D01*
X141974571Y-204090152D01*
X142037927Y-204142152D01*
X142087910Y-204176323D01*
X142107731Y-204184347D01*
X142135602Y-204168378D01*
X142194012Y-204125118D01*
X142275013Y-204060749D01*
X142370658Y-203981452D01*
X142393641Y-203961966D01*
X142654049Y-203740261D01*
X142177895Y-203262459D01*
X142030003Y-203348875D01*
G37*
X142030003Y-203348875D02*
X141940956Y-203403565D01*
X141891131Y-203443511D01*
X141874115Y-203476753D01*
X141883498Y-203511327D01*
X141890713Y-203523494D01*
X141910953Y-203542249D01*
X141943537Y-203539746D01*
X142000892Y-203513399D01*
X142038792Y-203492685D01*
X142162447Y-203423624D01*
X142312568Y-203575327D01*
X142388316Y-203657342D01*
X142431710Y-203716739D01*
X142439382Y-203748834D01*
X142438221Y-203750208D01*
X142407962Y-203776991D01*
X142350148Y-203826778D01*
X142276237Y-203889716D01*
X142261496Y-203902198D01*
X142109238Y-204031011D01*
X142023924Y-203965939D01*
X141969062Y-203926486D01*
X141937872Y-203916503D01*
X141914190Y-203933606D01*
X141902762Y-203948074D01*
X141886072Y-203978374D01*
X141892786Y-204007933D01*
X141929017Y-204048847D01*
X141974571Y-204090152D01*
X142037927Y-204142152D01*
X142087910Y-204176323D01*
X142107731Y-204184347D01*
X142135602Y-204168378D01*
X142194012Y-204125118D01*
X142275013Y-204060749D01*
X142370658Y-203981452D01*
X142393641Y-203961966D01*
X142654049Y-203740261D01*
X142177895Y-203262459D01*
X142030003Y-203348875D01*
G36*
X142676329Y-203638253D02*
G01*
X142670559Y-203769851D01*
X142667126Y-203884327D01*
X142666217Y-203971462D01*
X142668022Y-204021040D01*
X142669153Y-204027158D01*
X142697961Y-204053614D01*
X142742117Y-204057199D01*
X142777095Y-204039280D01*
X142783534Y-204020783D01*
X142792420Y-203985158D01*
X142814372Y-203991856D01*
X142842337Y-204036333D01*
X142854696Y-204066610D01*
X142886240Y-204139584D01*
X142919883Y-204198256D01*
X142920342Y-204198888D01*
X142947944Y-204232259D01*
X142962068Y-204223618D01*
X142970852Y-204197689D01*
X142983110Y-204151763D01*
X143003170Y-204069849D01*
X143028690Y-203962193D01*
X143057328Y-203839042D01*
X143086742Y-203710644D01*
X143114593Y-203587246D01*
X143138536Y-203479095D01*
X143156232Y-203396438D01*
X143165339Y-203349522D01*
X143166064Y-203343395D01*
X143144296Y-203325194D01*
X143104402Y-203319478D01*
X143075441Y-203323123D01*
X143053617Y-203340092D01*
X143034642Y-203379435D01*
X143014229Y-203450201D01*
X142988088Y-203561440D01*
X142986578Y-203568122D01*
X142961474Y-203675757D01*
X142939216Y-203764869D01*
X142922854Y-203823567D01*
X142916929Y-203839607D01*
X142897959Y-203834659D01*
X142867018Y-203794479D01*
X142856211Y-203775852D01*
X142830238Y-203713372D01*
X142816854Y-203636616D01*
X142813848Y-203530079D01*
X142814771Y-203485241D01*
X142817013Y-203384086D01*
X142814697Y-203323508D01*
X142804897Y-203293106D01*
X142784692Y-203282478D01*
X142757421Y-203281225D01*
X142694277Y-203281225D01*
X142676329Y-203638253D01*
G37*
X142676329Y-203638253D02*
X142670559Y-203769851D01*
X142667126Y-203884327D01*
X142666217Y-203971462D01*
X142668022Y-204021040D01*
X142669153Y-204027158D01*
X142697961Y-204053614D01*
X142742117Y-204057199D01*
X142777095Y-204039280D01*
X142783534Y-204020783D01*
X142792420Y-203985158D01*
X142814372Y-203991856D01*
X142842337Y-204036333D01*
X142854696Y-204066610D01*
X142886240Y-204139584D01*
X142919883Y-204198256D01*
X142920342Y-204198888D01*
X142947944Y-204232259D01*
X142962068Y-204223618D01*
X142970852Y-204197689D01*
X142983110Y-204151763D01*
X143003170Y-204069849D01*
X143028690Y-203962193D01*
X143057328Y-203839042D01*
X143086742Y-203710644D01*
X143114593Y-203587246D01*
X143138536Y-203479095D01*
X143156232Y-203396438D01*
X143165339Y-203349522D01*
X143166064Y-203343395D01*
X143144296Y-203325194D01*
X143104402Y-203319478D01*
X143075441Y-203323123D01*
X143053617Y-203340092D01*
X143034642Y-203379435D01*
X143014229Y-203450201D01*
X142988088Y-203561440D01*
X142986578Y-203568122D01*
X142961474Y-203675757D01*
X142939216Y-203764869D01*
X142922854Y-203823567D01*
X142916929Y-203839607D01*
X142897959Y-203834659D01*
X142867018Y-203794479D01*
X142856211Y-203775852D01*
X142830238Y-203713372D01*
X142816854Y-203636616D01*
X142813848Y-203530079D01*
X142814771Y-203485241D01*
X142817013Y-203384086D01*
X142814697Y-203323508D01*
X142804897Y-203293106D01*
X142784692Y-203282478D01*
X142757421Y-203281225D01*
X142694277Y-203281225D01*
X142676329Y-203638253D01*
G36*
X141753274Y-202915165D02*
G01*
X141672245Y-202926151D01*
X141564166Y-202942528D01*
X141439006Y-202962608D01*
X141306734Y-202984702D01*
X141177318Y-203007121D01*
X141060726Y-203028178D01*
X140966926Y-203046183D01*
X140905886Y-203059448D01*
X140887477Y-203065375D01*
X140874422Y-203102367D01*
X140886961Y-203146232D01*
X140915287Y-203174749D01*
X140935944Y-203175187D01*
X140963727Y-203169484D01*
X140968021Y-203185210D01*
X140946531Y-203226993D01*
X140896962Y-203299464D01*
X140828228Y-203392380D01*
X140683565Y-203584582D01*
X140459841Y-203343646D01*
X140367761Y-203245314D01*
X140303302Y-203179881D01*
X140259838Y-203142451D01*
X140230742Y-203128126D01*
X140209387Y-203132011D01*
X140192368Y-203145978D01*
X140176456Y-203165927D01*
X140173911Y-203188717D01*
X140189121Y-203221465D01*
X140226472Y-203271287D01*
X140290352Y-203345301D01*
X140369491Y-203433329D01*
X140452258Y-203526189D01*
X140520846Y-203605796D01*
X140568800Y-203664459D01*
X140589661Y-203694488D01*
X140590055Y-203696086D01*
X140575600Y-203722557D01*
X140536328Y-203781479D01*
X140478007Y-203864488D01*
X140406407Y-203963223D01*
X140396311Y-203976930D01*
X140315230Y-204088846D01*
X140262286Y-204167906D01*
X140233717Y-204221053D01*
X140225762Y-204255230D01*
X140233977Y-204276579D01*
X140269047Y-204308118D01*
X140284352Y-204314056D01*
X140306162Y-204294771D01*
X140351472Y-204242212D01*
X140413740Y-204164323D01*
X140486423Y-204069046D01*
X140489136Y-204065411D01*
X140561384Y-203968689D01*
X140622098Y-203887617D01*
X140665030Y-203830527D01*
X140683932Y-203805746D01*
X140684067Y-203805583D01*
X140704119Y-203818439D01*
X140751445Y-203861803D01*
X140818748Y-203928685D01*
X140890568Y-204003418D01*
X140976582Y-204093623D01*
X141035669Y-204151380D01*
X141075333Y-204181865D01*
X141103078Y-204190257D01*
X141126411Y-204181732D01*
X141137469Y-204173758D01*
X141162319Y-204150979D01*
X141166290Y-204127776D01*
X141144950Y-204093095D01*
X141093867Y-204035886D01*
X141073492Y-204014177D01*
X140993623Y-203929028D01*
X140910117Y-203839563D01*
X140863686Y-203789574D01*
X140767674Y-203685876D01*
X140935447Y-203463450D01*
X141023400Y-203340445D01*
X141074874Y-203252990D01*
X141089904Y-203201024D01*
X141088917Y-203195959D01*
X141088086Y-203175141D01*
X141106055Y-203158541D01*
X141150818Y-203143435D01*
X141230374Y-203127102D01*
X141348904Y-203107422D01*
X141463544Y-203089697D01*
X141560662Y-203075507D01*
X141628485Y-203066523D01*
X141653586Y-203064203D01*
X141669500Y-203081262D01*
X141675487Y-203136032D01*
X141672107Y-203234429D01*
X141671105Y-203249347D01*
X141661844Y-203376558D01*
X141652019Y-203461471D01*
X141636976Y-203512629D01*
X141612067Y-203538574D01*
X141572638Y-203547850D01*
X141514038Y-203548999D01*
X141507948Y-203548996D01*
X141432453Y-203551081D01*
X141394858Y-203561710D01*
X141382096Y-203587439D01*
X141380924Y-203612751D01*
X141385058Y-203650589D01*
X141406156Y-203669465D01*
X141457261Y-203675902D01*
X141508434Y-203676506D01*
X141581183Y-203680068D01*
X141627350Y-203689175D01*
X141635944Y-203696301D01*
X141632957Y-203729202D01*
X141625004Y-203799512D01*
X141613598Y-203894049D01*
X141609304Y-203928552D01*
X141597173Y-204033853D01*
X141593626Y-204100464D01*
X141599575Y-204140116D01*
X141615932Y-204164542D01*
X141628431Y-204174810D01*
X141672067Y-204193994D01*
X141693927Y-204189326D01*
X141703978Y-204158674D01*
X141717253Y-204091165D01*
X141731752Y-204000679D01*
X141745473Y-203901095D01*
X141756417Y-203806291D01*
X141762582Y-203730147D01*
X141763260Y-203708383D01*
X141784726Y-203682506D01*
X141814458Y-203676506D01*
X141851944Y-203664328D01*
X141864996Y-203619184D01*
X141865462Y-203600800D01*
X141859627Y-203548806D01*
X141837520Y-203537134D01*
X141823519Y-203541189D01*
X141806431Y-203543697D01*
X141795649Y-203530446D01*
X141790585Y-203493802D01*
X141790654Y-203426128D01*
X141795271Y-203319789D01*
X141799973Y-203234365D01*
X141805336Y-203112884D01*
X141806813Y-203012246D01*
X141804482Y-202942016D01*
X141798424Y-202911760D01*
X141797287Y-202911260D01*
X141753274Y-202915165D01*
G37*
X141753274Y-202915165D02*
X141672245Y-202926151D01*
X141564166Y-202942528D01*
X141439006Y-202962608D01*
X141306734Y-202984702D01*
X141177318Y-203007121D01*
X141060726Y-203028178D01*
X140966926Y-203046183D01*
X140905886Y-203059448D01*
X140887477Y-203065375D01*
X140874422Y-203102367D01*
X140886961Y-203146232D01*
X140915287Y-203174749D01*
X140935944Y-203175187D01*
X140963727Y-203169484D01*
X140968021Y-203185210D01*
X140946531Y-203226993D01*
X140896962Y-203299464D01*
X140828228Y-203392380D01*
X140683565Y-203584582D01*
X140459841Y-203343646D01*
X140367761Y-203245314D01*
X140303302Y-203179881D01*
X140259838Y-203142451D01*
X140230742Y-203128126D01*
X140209387Y-203132011D01*
X140192368Y-203145978D01*
X140176456Y-203165927D01*
X140173911Y-203188717D01*
X140189121Y-203221465D01*
X140226472Y-203271287D01*
X140290352Y-203345301D01*
X140369491Y-203433329D01*
X140452258Y-203526189D01*
X140520846Y-203605796D01*
X140568800Y-203664459D01*
X140589661Y-203694488D01*
X140590055Y-203696086D01*
X140575600Y-203722557D01*
X140536328Y-203781479D01*
X140478007Y-203864488D01*
X140406407Y-203963223D01*
X140396311Y-203976930D01*
X140315230Y-204088846D01*
X140262286Y-204167906D01*
X140233717Y-204221053D01*
X140225762Y-204255230D01*
X140233977Y-204276579D01*
X140269047Y-204308118D01*
X140284352Y-204314056D01*
X140306162Y-204294771D01*
X140351472Y-204242212D01*
X140413740Y-204164323D01*
X140486423Y-204069046D01*
X140489136Y-204065411D01*
X140561384Y-203968689D01*
X140622098Y-203887617D01*
X140665030Y-203830527D01*
X140683932Y-203805746D01*
X140684067Y-203805583D01*
X140704119Y-203818439D01*
X140751445Y-203861803D01*
X140818748Y-203928685D01*
X140890568Y-204003418D01*
X140976582Y-204093623D01*
X141035669Y-204151380D01*
X141075333Y-204181865D01*
X141103078Y-204190257D01*
X141126411Y-204181732D01*
X141137469Y-204173758D01*
X141162319Y-204150979D01*
X141166290Y-204127776D01*
X141144950Y-204093095D01*
X141093867Y-204035886D01*
X141073492Y-204014177D01*
X140993623Y-203929028D01*
X140910117Y-203839563D01*
X140863686Y-203789574D01*
X140767674Y-203685876D01*
X140935447Y-203463450D01*
X141023400Y-203340445D01*
X141074874Y-203252990D01*
X141089904Y-203201024D01*
X141088917Y-203195959D01*
X141088086Y-203175141D01*
X141106055Y-203158541D01*
X141150818Y-203143435D01*
X141230374Y-203127102D01*
X141348904Y-203107422D01*
X141463544Y-203089697D01*
X141560662Y-203075507D01*
X141628485Y-203066523D01*
X141653586Y-203064203D01*
X141669500Y-203081262D01*
X141675487Y-203136032D01*
X141672107Y-203234429D01*
X141671105Y-203249347D01*
X141661844Y-203376558D01*
X141652019Y-203461471D01*
X141636976Y-203512629D01*
X141612067Y-203538574D01*
X141572638Y-203547850D01*
X141514038Y-203548999D01*
X141507948Y-203548996D01*
X141432453Y-203551081D01*
X141394858Y-203561710D01*
X141382096Y-203587439D01*
X141380924Y-203612751D01*
X141385058Y-203650589D01*
X141406156Y-203669465D01*
X141457261Y-203675902D01*
X141508434Y-203676506D01*
X141581183Y-203680068D01*
X141627350Y-203689175D01*
X141635944Y-203696301D01*
X141632957Y-203729202D01*
X141625004Y-203799512D01*
X141613598Y-203894049D01*
X141609304Y-203928552D01*
X141597173Y-204033853D01*
X141593626Y-204100464D01*
X141599575Y-204140116D01*
X141615932Y-204164542D01*
X141628431Y-204174810D01*
X141672067Y-204193994D01*
X141693927Y-204189326D01*
X141703978Y-204158674D01*
X141717253Y-204091165D01*
X141731752Y-204000679D01*
X141745473Y-203901095D01*
X141756417Y-203806291D01*
X141762582Y-203730147D01*
X141763260Y-203708383D01*
X141784726Y-203682506D01*
X141814458Y-203676506D01*
X141851944Y-203664328D01*
X141864996Y-203619184D01*
X141865462Y-203600800D01*
X141859627Y-203548806D01*
X141837520Y-203537134D01*
X141823519Y-203541189D01*
X141806431Y-203543697D01*
X141795649Y-203530446D01*
X141790585Y-203493802D01*
X141790654Y-203426128D01*
X141795271Y-203319789D01*
X141799973Y-203234365D01*
X141805336Y-203112884D01*
X141806813Y-203012246D01*
X141804482Y-202942016D01*
X141798424Y-202911760D01*
X141797287Y-202911260D01*
X141753274Y-202915165D01*
G36*
X142793806Y-203099101D02*
G01*
X142772093Y-203128571D01*
X142794438Y-203181441D01*
X142798795Y-203187812D01*
X142843556Y-203234957D01*
X142879649Y-203232308D01*
X142910924Y-203179515D01*
X142911675Y-203177556D01*
X142931695Y-203119756D01*
X142925912Y-203095398D01*
X142886053Y-203090028D01*
X142861545Y-203089960D01*
X142793806Y-203099101D01*
G37*
X142793806Y-203099101D02*
X142772093Y-203128571D01*
X142794438Y-203181441D01*
X142798795Y-203187812D01*
X142843556Y-203234957D01*
X142879649Y-203232308D01*
X142910924Y-203179515D01*
X142911675Y-203177556D01*
X142931695Y-203119756D01*
X142925912Y-203095398D01*
X142886053Y-203090028D01*
X142861545Y-203089960D01*
X142793806Y-203099101D01*
G36*
X143015538Y-203090159D02*
G01*
X143015937Y-203144319D01*
X143017629Y-203160773D01*
X143028187Y-203212301D01*
X143052586Y-203223950D01*
X143083183Y-203215050D01*
X143129449Y-203178964D01*
X143138139Y-203131655D01*
X143109098Y-203091683D01*
X143084296Y-203081194D01*
X143035213Y-203072831D01*
X143015538Y-203090159D01*
G37*
X143015538Y-203090159D02*
X143015937Y-203144319D01*
X143017629Y-203160773D01*
X143028187Y-203212301D01*
X143052586Y-203223950D01*
X143083183Y-203215050D01*
X143129449Y-203178964D01*
X143138139Y-203131655D01*
X143109098Y-203091683D01*
X143084296Y-203081194D01*
X143035213Y-203072831D01*
X143015538Y-203090159D01*
G36*
X143430323Y-203234526D02*
G01*
X143375572Y-203279667D01*
X143307422Y-203343851D01*
X143293594Y-203357711D01*
X143224587Y-203429092D01*
X143187068Y-203474727D01*
X143175968Y-203504435D01*
X143186216Y-203528036D01*
X143198686Y-203541543D01*
X143226201Y-203563828D01*
X143253070Y-203563306D01*
X143291987Y-203535122D01*
X143343782Y-203486018D01*
X143402402Y-203430344D01*
X143438334Y-203405972D01*
X143465319Y-203408505D01*
X143497098Y-203433548D01*
X143499902Y-203436071D01*
X143522753Y-203459486D01*
X143537412Y-203487167D01*
X143544901Y-203528972D01*
X143546243Y-203594757D01*
X143542460Y-203694377D01*
X143537043Y-203794236D01*
X143530328Y-203925674D01*
X143528203Y-204014957D01*
X143531325Y-204070782D01*
X143540354Y-204101846D01*
X143555948Y-204116846D01*
X143561669Y-204119386D01*
X143603453Y-204131542D01*
X143629323Y-204122567D01*
X143644783Y-204083671D01*
X143655334Y-204006064D01*
X143659306Y-203963403D01*
X143668493Y-203854456D01*
X143679144Y-203719854D01*
X143689274Y-203584830D01*
X143691393Y-203555371D01*
X143708185Y-203319478D01*
X143645093Y-203319478D01*
X143579931Y-203301033D01*
X143535843Y-203268474D01*
X143491512Y-203230278D01*
X143460889Y-203217470D01*
X143430323Y-203234526D01*
G37*
X143430323Y-203234526D02*
X143375572Y-203279667D01*
X143307422Y-203343851D01*
X143293594Y-203357711D01*
X143224587Y-203429092D01*
X143187068Y-203474727D01*
X143175968Y-203504435D01*
X143186216Y-203528036D01*
X143198686Y-203541543D01*
X143226201Y-203563828D01*
X143253070Y-203563306D01*
X143291987Y-203535122D01*
X143343782Y-203486018D01*
X143402402Y-203430344D01*
X143438334Y-203405972D01*
X143465319Y-203408505D01*
X143497098Y-203433548D01*
X143499902Y-203436071D01*
X143522753Y-203459486D01*
X143537412Y-203487167D01*
X143544901Y-203528972D01*
X143546243Y-203594757D01*
X143542460Y-203694377D01*
X143537043Y-203794236D01*
X143530328Y-203925674D01*
X143528203Y-204014957D01*
X143531325Y-204070782D01*
X143540354Y-204101846D01*
X143555948Y-204116846D01*
X143561669Y-204119386D01*
X143603453Y-204131542D01*
X143629323Y-204122567D01*
X143644783Y-204083671D01*
X143655334Y-204006064D01*
X143659306Y-203963403D01*
X143668493Y-203854456D01*
X143679144Y-203719854D01*
X143689274Y-203584830D01*
X143691393Y-203555371D01*
X143708185Y-203319478D01*
X143645093Y-203319478D01*
X143579931Y-203301033D01*
X143535843Y-203268474D01*
X143491512Y-203230278D01*
X143460889Y-203217470D01*
X143430323Y-203234526D01*
G36*
X143917174Y-203281991D02*
G01*
X143821025Y-203335731D01*
X143765139Y-203375327D01*
X143743365Y-203407778D01*
X143749552Y-203440084D01*
X143761641Y-203458964D01*
X143783954Y-203483554D01*
X143810292Y-203487726D01*
X143854464Y-203469252D01*
X143916552Y-203433956D01*
X144037795Y-203362903D01*
X144343626Y-203668734D01*
X144156628Y-203824207D01*
X144069587Y-203895755D01*
X144012183Y-203938713D01*
X143975074Y-203957386D01*
X143948916Y-203956077D01*
X143924368Y-203939090D01*
X143918500Y-203933894D01*
X143857207Y-203884654D01*
X143815963Y-203870819D01*
X143781170Y-203889460D01*
X143769237Y-203901741D01*
X143749563Y-203929167D01*
X143752597Y-203954550D01*
X143784586Y-203988498D01*
X143851489Y-204041401D01*
X143918001Y-204090821D01*
X143966636Y-204124522D01*
X143984907Y-204134512D01*
X144006926Y-204118532D01*
X144060139Y-204075526D01*
X144137028Y-204011681D01*
X144230081Y-203933184D01*
X144249899Y-203916331D01*
X144345277Y-203834208D01*
X144425450Y-203763456D01*
X144482941Y-203710802D01*
X144510269Y-203682975D01*
X144511428Y-203681067D01*
X144496849Y-203657283D01*
X144452346Y-203605312D01*
X144384572Y-203532512D01*
X144300183Y-203446243D01*
X144288522Y-203434604D01*
X144059107Y-203206252D01*
X143917174Y-203281991D01*
G37*
X143917174Y-203281991D02*
X143821025Y-203335731D01*
X143765139Y-203375327D01*
X143743365Y-203407778D01*
X143749552Y-203440084D01*
X143761641Y-203458964D01*
X143783954Y-203483554D01*
X143810292Y-203487726D01*
X143854464Y-203469252D01*
X143916552Y-203433956D01*
X144037795Y-203362903D01*
X144343626Y-203668734D01*
X144156628Y-203824207D01*
X144069587Y-203895755D01*
X144012183Y-203938713D01*
X143975074Y-203957386D01*
X143948916Y-203956077D01*
X143924368Y-203939090D01*
X143918500Y-203933894D01*
X143857207Y-203884654D01*
X143815963Y-203870819D01*
X143781170Y-203889460D01*
X143769237Y-203901741D01*
X143749563Y-203929167D01*
X143752597Y-203954550D01*
X143784586Y-203988498D01*
X143851489Y-204041401D01*
X143918001Y-204090821D01*
X143966636Y-204124522D01*
X143984907Y-204134512D01*
X144006926Y-204118532D01*
X144060139Y-204075526D01*
X144137028Y-204011681D01*
X144230081Y-203933184D01*
X144249899Y-203916331D01*
X144345277Y-203834208D01*
X144425450Y-203763456D01*
X144482941Y-203710802D01*
X144510269Y-203682975D01*
X144511428Y-203681067D01*
X144496849Y-203657283D01*
X144452346Y-203605312D01*
X144384572Y-203532512D01*
X144300183Y-203446243D01*
X144288522Y-203434604D01*
X144059107Y-203206252D01*
X143917174Y-203281991D01*
G36*
X142030003Y-203348875D02*
G01*
X141940956Y-203403565D01*
X141891131Y-203443511D01*
X141874115Y-203476753D01*
X141883498Y-203511327D01*
X141890713Y-203523494D01*
X141910953Y-203542249D01*
X141943537Y-203539746D01*
X142000892Y-203513399D01*
X142038792Y-203492685D01*
X142162447Y-203423624D01*
X142312568Y-203575327D01*
X142388316Y-203657342D01*
X142431710Y-203716739D01*
X142439382Y-203748834D01*
X142438221Y-203750208D01*
X142407962Y-203776991D01*
X142350148Y-203826778D01*
X142276237Y-203889716D01*
X142261496Y-203902198D01*
X142109238Y-204031011D01*
X142023924Y-203965939D01*
X141969062Y-203926486D01*
X141937872Y-203916503D01*
X141914190Y-203933606D01*
X141902762Y-203948074D01*
X141886072Y-203978374D01*
X141892786Y-204007933D01*
X141929017Y-204048847D01*
X141974571Y-204090152D01*
X142037927Y-204142152D01*
X142087910Y-204176323D01*
X142107731Y-204184347D01*
X142135602Y-204168378D01*
X142194012Y-204125118D01*
X142275013Y-204060749D01*
X142370658Y-203981452D01*
X142393641Y-203961966D01*
X142654049Y-203740261D01*
X142177895Y-203262459D01*
X142030003Y-203348875D01*
G37*
X142030003Y-203348875D02*
X141940956Y-203403565D01*
X141891131Y-203443511D01*
X141874115Y-203476753D01*
X141883498Y-203511327D01*
X141890713Y-203523494D01*
X141910953Y-203542249D01*
X141943537Y-203539746D01*
X142000892Y-203513399D01*
X142038792Y-203492685D01*
X142162447Y-203423624D01*
X142312568Y-203575327D01*
X142388316Y-203657342D01*
X142431710Y-203716739D01*
X142439382Y-203748834D01*
X142438221Y-203750208D01*
X142407962Y-203776991D01*
X142350148Y-203826778D01*
X142276237Y-203889716D01*
X142261496Y-203902198D01*
X142109238Y-204031011D01*
X142023924Y-203965939D01*
X141969062Y-203926486D01*
X141937872Y-203916503D01*
X141914190Y-203933606D01*
X141902762Y-203948074D01*
X141886072Y-203978374D01*
X141892786Y-204007933D01*
X141929017Y-204048847D01*
X141974571Y-204090152D01*
X142037927Y-204142152D01*
X142087910Y-204176323D01*
X142107731Y-204184347D01*
X142135602Y-204168378D01*
X142194012Y-204125118D01*
X142275013Y-204060749D01*
X142370658Y-203981452D01*
X142393641Y-203961966D01*
X142654049Y-203740261D01*
X142177895Y-203262459D01*
X142030003Y-203348875D01*
G36*
X142676329Y-203638253D02*
G01*
X142670559Y-203769851D01*
X142667126Y-203884327D01*
X142666217Y-203971462D01*
X142668022Y-204021040D01*
X142669153Y-204027158D01*
X142697961Y-204053614D01*
X142742117Y-204057199D01*
X142777095Y-204039280D01*
X142783534Y-204020783D01*
X142792420Y-203985158D01*
X142814372Y-203991856D01*
X142842337Y-204036333D01*
X142854696Y-204066610D01*
X142886240Y-204139584D01*
X142919883Y-204198256D01*
X142920342Y-204198888D01*
X142947944Y-204232259D01*
X142962068Y-204223618D01*
X142970852Y-204197689D01*
X142983110Y-204151763D01*
X143003170Y-204069849D01*
X143028690Y-203962193D01*
X143057328Y-203839042D01*
X143086742Y-203710644D01*
X143114593Y-203587246D01*
X143138536Y-203479095D01*
X143156232Y-203396438D01*
X143165339Y-203349522D01*
X143166064Y-203343395D01*
X143144296Y-203325194D01*
X143104402Y-203319478D01*
X143075441Y-203323123D01*
X143053617Y-203340092D01*
X143034642Y-203379435D01*
X143014229Y-203450201D01*
X142988088Y-203561440D01*
X142986578Y-203568122D01*
X142961474Y-203675757D01*
X142939216Y-203764869D01*
X142922854Y-203823567D01*
X142916929Y-203839607D01*
X142897959Y-203834659D01*
X142867018Y-203794479D01*
X142856211Y-203775852D01*
X142830238Y-203713372D01*
X142816854Y-203636616D01*
X142813848Y-203530079D01*
X142814771Y-203485241D01*
X142817013Y-203384086D01*
X142814697Y-203323508D01*
X142804897Y-203293106D01*
X142784692Y-203282478D01*
X142757421Y-203281225D01*
X142694277Y-203281225D01*
X142676329Y-203638253D01*
G37*
X142676329Y-203638253D02*
X142670559Y-203769851D01*
X142667126Y-203884327D01*
X142666217Y-203971462D01*
X142668022Y-204021040D01*
X142669153Y-204027158D01*
X142697961Y-204053614D01*
X142742117Y-204057199D01*
X142777095Y-204039280D01*
X142783534Y-204020783D01*
X142792420Y-203985158D01*
X142814372Y-203991856D01*
X142842337Y-204036333D01*
X142854696Y-204066610D01*
X142886240Y-204139584D01*
X142919883Y-204198256D01*
X142920342Y-204198888D01*
X142947944Y-204232259D01*
X142962068Y-204223618D01*
X142970852Y-204197689D01*
X142983110Y-204151763D01*
X143003170Y-204069849D01*
X143028690Y-203962193D01*
X143057328Y-203839042D01*
X143086742Y-203710644D01*
X143114593Y-203587246D01*
X143138536Y-203479095D01*
X143156232Y-203396438D01*
X143165339Y-203349522D01*
X143166064Y-203343395D01*
X143144296Y-203325194D01*
X143104402Y-203319478D01*
X143075441Y-203323123D01*
X143053617Y-203340092D01*
X143034642Y-203379435D01*
X143014229Y-203450201D01*
X142988088Y-203561440D01*
X142986578Y-203568122D01*
X142961474Y-203675757D01*
X142939216Y-203764869D01*
X142922854Y-203823567D01*
X142916929Y-203839607D01*
X142897959Y-203834659D01*
X142867018Y-203794479D01*
X142856211Y-203775852D01*
X142830238Y-203713372D01*
X142816854Y-203636616D01*
X142813848Y-203530079D01*
X142814771Y-203485241D01*
X142817013Y-203384086D01*
X142814697Y-203323508D01*
X142804897Y-203293106D01*
X142784692Y-203282478D01*
X142757421Y-203281225D01*
X142694277Y-203281225D01*
X142676329Y-203638253D01*
G36*
X141753274Y-202915165D02*
G01*
X141672245Y-202926151D01*
X141564166Y-202942528D01*
X141439006Y-202962608D01*
X141306734Y-202984702D01*
X141177318Y-203007121D01*
X141060726Y-203028178D01*
X140966926Y-203046183D01*
X140905886Y-203059448D01*
X140887477Y-203065375D01*
X140874422Y-203102367D01*
X140886961Y-203146232D01*
X140915287Y-203174749D01*
X140935944Y-203175187D01*
X140963727Y-203169484D01*
X140968021Y-203185210D01*
X140946531Y-203226993D01*
X140896962Y-203299464D01*
X140828228Y-203392380D01*
X140683565Y-203584582D01*
X140459841Y-203343646D01*
X140367761Y-203245314D01*
X140303302Y-203179881D01*
X140259838Y-203142451D01*
X140230742Y-203128126D01*
X140209387Y-203132011D01*
X140192368Y-203145978D01*
X140176456Y-203165927D01*
X140173911Y-203188717D01*
X140189121Y-203221465D01*
X140226472Y-203271287D01*
X140290352Y-203345301D01*
X140369491Y-203433329D01*
X140452258Y-203526189D01*
X140520846Y-203605796D01*
X140568800Y-203664459D01*
X140589661Y-203694488D01*
X140590055Y-203696086D01*
X140575600Y-203722557D01*
X140536328Y-203781479D01*
X140478007Y-203864488D01*
X140406407Y-203963223D01*
X140396311Y-203976930D01*
X140315230Y-204088846D01*
X140262286Y-204167906D01*
X140233717Y-204221053D01*
X140225762Y-204255230D01*
X140233977Y-204276579D01*
X140269047Y-204308118D01*
X140284352Y-204314056D01*
X140306162Y-204294771D01*
X140351472Y-204242212D01*
X140413740Y-204164323D01*
X140486423Y-204069046D01*
X140489136Y-204065411D01*
X140561384Y-203968689D01*
X140622098Y-203887617D01*
X140665030Y-203830527D01*
X140683932Y-203805746D01*
X140684067Y-203805583D01*
X140704119Y-203818439D01*
X140751445Y-203861803D01*
X140818748Y-203928685D01*
X140890568Y-204003418D01*
X140976582Y-204093623D01*
X141035669Y-204151380D01*
X141075333Y-204181865D01*
X141103078Y-204190257D01*
X141126411Y-204181732D01*
X141137469Y-204173758D01*
X141162319Y-204150979D01*
X141166290Y-204127776D01*
X141144950Y-204093095D01*
X141093867Y-204035886D01*
X141073492Y-204014177D01*
X140993623Y-203929028D01*
X140910117Y-203839563D01*
X140863686Y-203789574D01*
X140767674Y-203685876D01*
X140935447Y-203463450D01*
X141023400Y-203340445D01*
X141074874Y-203252990D01*
X141089904Y-203201024D01*
X141088917Y-203195959D01*
X141088086Y-203175141D01*
X141106055Y-203158541D01*
X141150818Y-203143435D01*
X141230374Y-203127102D01*
X141348904Y-203107422D01*
X141463544Y-203089697D01*
X141560662Y-203075507D01*
X141628485Y-203066523D01*
X141653586Y-203064203D01*
X141669500Y-203081262D01*
X141675487Y-203136032D01*
X141672107Y-203234429D01*
X141671105Y-203249347D01*
X141661844Y-203376558D01*
X141652019Y-203461471D01*
X141636976Y-203512629D01*
X141612067Y-203538574D01*
X141572638Y-203547850D01*
X141514038Y-203548999D01*
X141507948Y-203548996D01*
X141432453Y-203551081D01*
X141394858Y-203561710D01*
X141382096Y-203587439D01*
X141380924Y-203612751D01*
X141385058Y-203650589D01*
X141406156Y-203669465D01*
X141457261Y-203675902D01*
X141508434Y-203676506D01*
X141581183Y-203680068D01*
X141627350Y-203689175D01*
X141635944Y-203696301D01*
X141632957Y-203729202D01*
X141625004Y-203799512D01*
X141613598Y-203894049D01*
X141609304Y-203928552D01*
X141597173Y-204033853D01*
X141593626Y-204100464D01*
X141599575Y-204140116D01*
X141615932Y-204164542D01*
X141628431Y-204174810D01*
X141672067Y-204193994D01*
X141693927Y-204189326D01*
X141703978Y-204158674D01*
X141717253Y-204091165D01*
X141731752Y-204000679D01*
X141745473Y-203901095D01*
X141756417Y-203806291D01*
X141762582Y-203730147D01*
X141763260Y-203708383D01*
X141784726Y-203682506D01*
X141814458Y-203676506D01*
X141851944Y-203664328D01*
X141864996Y-203619184D01*
X141865462Y-203600800D01*
X141859627Y-203548806D01*
X141837520Y-203537134D01*
X141823519Y-203541189D01*
X141806431Y-203543697D01*
X141795649Y-203530446D01*
X141790585Y-203493802D01*
X141790654Y-203426128D01*
X141795271Y-203319789D01*
X141799973Y-203234365D01*
X141805336Y-203112884D01*
X141806813Y-203012246D01*
X141804482Y-202942016D01*
X141798424Y-202911760D01*
X141797287Y-202911260D01*
X141753274Y-202915165D01*
G37*
X141753274Y-202915165D02*
X141672245Y-202926151D01*
X141564166Y-202942528D01*
X141439006Y-202962608D01*
X141306734Y-202984702D01*
X141177318Y-203007121D01*
X141060726Y-203028178D01*
X140966926Y-203046183D01*
X140905886Y-203059448D01*
X140887477Y-203065375D01*
X140874422Y-203102367D01*
X140886961Y-203146232D01*
X140915287Y-203174749D01*
X140935944Y-203175187D01*
X140963727Y-203169484D01*
X140968021Y-203185210D01*
X140946531Y-203226993D01*
X140896962Y-203299464D01*
X140828228Y-203392380D01*
X140683565Y-203584582D01*
X140459841Y-203343646D01*
X140367761Y-203245314D01*
X140303302Y-203179881D01*
X140259838Y-203142451D01*
X140230742Y-203128126D01*
X140209387Y-203132011D01*
X140192368Y-203145978D01*
X140176456Y-203165927D01*
X140173911Y-203188717D01*
X140189121Y-203221465D01*
X140226472Y-203271287D01*
X140290352Y-203345301D01*
X140369491Y-203433329D01*
X140452258Y-203526189D01*
X140520846Y-203605796D01*
X140568800Y-203664459D01*
X140589661Y-203694488D01*
X140590055Y-203696086D01*
X140575600Y-203722557D01*
X140536328Y-203781479D01*
X140478007Y-203864488D01*
X140406407Y-203963223D01*
X140396311Y-203976930D01*
X140315230Y-204088846D01*
X140262286Y-204167906D01*
X140233717Y-204221053D01*
X140225762Y-204255230D01*
X140233977Y-204276579D01*
X140269047Y-204308118D01*
X140284352Y-204314056D01*
X140306162Y-204294771D01*
X140351472Y-204242212D01*
X140413740Y-204164323D01*
X140486423Y-204069046D01*
X140489136Y-204065411D01*
X140561384Y-203968689D01*
X140622098Y-203887617D01*
X140665030Y-203830527D01*
X140683932Y-203805746D01*
X140684067Y-203805583D01*
X140704119Y-203818439D01*
X140751445Y-203861803D01*
X140818748Y-203928685D01*
X140890568Y-204003418D01*
X140976582Y-204093623D01*
X141035669Y-204151380D01*
X141075333Y-204181865D01*
X141103078Y-204190257D01*
X141126411Y-204181732D01*
X141137469Y-204173758D01*
X141162319Y-204150979D01*
X141166290Y-204127776D01*
X141144950Y-204093095D01*
X141093867Y-204035886D01*
X141073492Y-204014177D01*
X140993623Y-203929028D01*
X140910117Y-203839563D01*
X140863686Y-203789574D01*
X140767674Y-203685876D01*
X140935447Y-203463450D01*
X141023400Y-203340445D01*
X141074874Y-203252990D01*
X141089904Y-203201024D01*
X141088917Y-203195959D01*
X141088086Y-203175141D01*
X141106055Y-203158541D01*
X141150818Y-203143435D01*
X141230374Y-203127102D01*
X141348904Y-203107422D01*
X141463544Y-203089697D01*
X141560662Y-203075507D01*
X141628485Y-203066523D01*
X141653586Y-203064203D01*
X141669500Y-203081262D01*
X141675487Y-203136032D01*
X141672107Y-203234429D01*
X141671105Y-203249347D01*
X141661844Y-203376558D01*
X141652019Y-203461471D01*
X141636976Y-203512629D01*
X141612067Y-203538574D01*
X141572638Y-203547850D01*
X141514038Y-203548999D01*
X141507948Y-203548996D01*
X141432453Y-203551081D01*
X141394858Y-203561710D01*
X141382096Y-203587439D01*
X141380924Y-203612751D01*
X141385058Y-203650589D01*
X141406156Y-203669465D01*
X141457261Y-203675902D01*
X141508434Y-203676506D01*
X141581183Y-203680068D01*
X141627350Y-203689175D01*
X141635944Y-203696301D01*
X141632957Y-203729202D01*
X141625004Y-203799512D01*
X141613598Y-203894049D01*
X141609304Y-203928552D01*
X141597173Y-204033853D01*
X141593626Y-204100464D01*
X141599575Y-204140116D01*
X141615932Y-204164542D01*
X141628431Y-204174810D01*
X141672067Y-204193994D01*
X141693927Y-204189326D01*
X141703978Y-204158674D01*
X141717253Y-204091165D01*
X141731752Y-204000679D01*
X141745473Y-203901095D01*
X141756417Y-203806291D01*
X141762582Y-203730147D01*
X141763260Y-203708383D01*
X141784726Y-203682506D01*
X141814458Y-203676506D01*
X141851944Y-203664328D01*
X141864996Y-203619184D01*
X141865462Y-203600800D01*
X141859627Y-203548806D01*
X141837520Y-203537134D01*
X141823519Y-203541189D01*
X141806431Y-203543697D01*
X141795649Y-203530446D01*
X141790585Y-203493802D01*
X141790654Y-203426128D01*
X141795271Y-203319789D01*
X141799973Y-203234365D01*
X141805336Y-203112884D01*
X141806813Y-203012246D01*
X141804482Y-202942016D01*
X141798424Y-202911760D01*
X141797287Y-202911260D01*
X141753274Y-202915165D01*
%TO.C,U1*%
D12*
X147902380Y-59838095D02*
X148711904Y-59838095D01*
X148807142Y-59885714D01*
X148854761Y-59933333D01*
X148902380Y-60028571D01*
X148902380Y-60219047D01*
X148854761Y-60314285D01*
X148807142Y-60361904D01*
X148711904Y-60409523D01*
X147902380Y-60409523D01*
X148902380Y-61409523D02*
X148902380Y-60838095D01*
X148902380Y-61123809D02*
X147902380Y-61123809D01*
X148045238Y-61028571D01*
X148140476Y-60933333D01*
X148188095Y-60838095D01*
X144345238Y-65952380D02*
X144011904Y-66952380D01*
X143678571Y-65952380D01*
X143488095Y-65952380D02*
X142916666Y-65952380D01*
X143202380Y-66952380D02*
X143202380Y-65952380D01*
X142107142Y-66952380D02*
X142583333Y-66952380D01*
X142583333Y-65952380D01*
X141297619Y-65952380D02*
X141773809Y-65952380D01*
X141821428Y-66428571D01*
X141773809Y-66380952D01*
X141678571Y-66333333D01*
X141440476Y-66333333D01*
X141345238Y-66380952D01*
X141297619Y-66428571D01*
X141250000Y-66523809D01*
X141250000Y-66761904D01*
X141297619Y-66857142D01*
X141345238Y-66904761D01*
X141440476Y-66952380D01*
X141678571Y-66952380D01*
X141773809Y-66904761D01*
X141821428Y-66857142D01*
X140250000Y-66857142D02*
X140297619Y-66904761D01*
X140440476Y-66952380D01*
X140535714Y-66952380D01*
X140678571Y-66904761D01*
X140773809Y-66809523D01*
X140821428Y-66714285D01*
X140869047Y-66523809D01*
X140869047Y-66380952D01*
X140821428Y-66190476D01*
X140773809Y-66095238D01*
X140678571Y-66000000D01*
X140535714Y-65952380D01*
X140440476Y-65952380D01*
X140297619Y-66000000D01*
X140250000Y-66047619D01*
%TO.C,U2*%
X147912380Y-146188095D02*
X148721904Y-146188095D01*
X148817142Y-146235714D01*
X148864761Y-146283333D01*
X148912380Y-146378571D01*
X148912380Y-146569047D01*
X148864761Y-146664285D01*
X148817142Y-146711904D01*
X148721904Y-146759523D01*
X147912380Y-146759523D01*
X148007619Y-147188095D02*
X147960000Y-147235714D01*
X147912380Y-147330952D01*
X147912380Y-147569047D01*
X147960000Y-147664285D01*
X148007619Y-147711904D01*
X148102857Y-147759523D01*
X148198095Y-147759523D01*
X148340952Y-147711904D01*
X148912380Y-147140476D01*
X148912380Y-147759523D01*
X144595238Y-152452380D02*
X144261904Y-153452380D01*
X143928571Y-152452380D01*
X143738095Y-152452380D02*
X143166666Y-152452380D01*
X143452380Y-153452380D02*
X143452380Y-152452380D01*
X142357142Y-153452380D02*
X142833333Y-153452380D01*
X142833333Y-152452380D01*
X141547619Y-152452380D02*
X142023809Y-152452380D01*
X142071428Y-152928571D01*
X142023809Y-152880952D01*
X141928571Y-152833333D01*
X141690476Y-152833333D01*
X141595238Y-152880952D01*
X141547619Y-152928571D01*
X141500000Y-153023809D01*
X141500000Y-153261904D01*
X141547619Y-153357142D01*
X141595238Y-153404761D01*
X141690476Y-153452380D01*
X141928571Y-153452380D01*
X142023809Y-153404761D01*
X142071428Y-153357142D01*
X140500000Y-153357142D02*
X140547619Y-153404761D01*
X140690476Y-153452380D01*
X140785714Y-153452380D01*
X140928571Y-153404761D01*
X141023809Y-153309523D01*
X141071428Y-153214285D01*
X141119047Y-153023809D01*
X141119047Y-152880952D01*
X141071428Y-152690476D01*
X141023809Y-152595238D01*
X140928571Y-152500000D01*
X140785714Y-152452380D01*
X140690476Y-152452380D01*
X140547619Y-152500000D01*
X140500000Y-152547619D01*
%TD*%
M02*
